<svg width="150" height="150" viewBox="0 0 150 150" fill="none" xmlns="http://www.w3.org/2000/svg">
<path d="M75.025 6.26624C37.0563 6.26624 6.27502 37.0462 6.27502 75.0162C6.27502 112.986 37.055 143.766 75.025 143.766C112.995 143.766 143.775 112.986 143.775 75.0162C143.775 37.0462 112.995 6.26624 75.025 6.26624ZM75.025 117.507C51.5575 117.507 32.5338 98.4837 32.5338 75.0162C32.5338 51.5487 51.5575 32.525 75.025 32.525C98.4925 32.525 117.516 51.5487 117.516 75.0162C117.516 98.4837 98.4925 117.507 75.025 117.507Z" fill="white"/>
<path d="M75.025 91.2475C83.9893 91.2475 91.2563 83.9806 91.2563 75.0163C91.2563 66.052 83.9893 58.785 75.025 58.785C66.0607 58.785 58.7938 66.052 58.7938 75.0163C58.7938 83.9806 66.0607 91.2475 75.025 91.2475Z" fill="#FFB266"/>
</svg>
