<svg width="380" height="280" viewBox="0 0 380 280" fill="none" xmlns="http://www.w3.org/2000/svg">
<g clip-path="url(#clip0_17_859)">
<path d="M309.48 135.138C309.48 139.073 309.291 142.967 308.912 146.822C308.614 149.831 308.207 152.813 307.691 155.768C307.143 158.897 306.471 161.988 305.676 165.041V165.045C305.156 167.054 304.585 169.047 303.963 171.024C302.159 176.77 299.915 182.404 297.246 187.888C296.666 189.081 296.067 190.266 295.449 191.442C293.111 195.898 290.493 200.238 287.607 204.442C279.514 216.248 269.411 226.91 257.646 236.063C256.373 237.052 255.082 238.024 253.774 238.98C225.995 259.246 190.935 270.325 154.74 270.277C69.2784 270.277 0 209.774 0 135.138C0 60.5026 69.2784 4.53085e-05 154.74 4.53085e-05C189.689 -0.0480805 223.618 10.2832 250.957 29.2976C252.238 30.1844 253.504 31.0912 254.753 32.018C260.849 36.533 266.538 41.451 271.77 46.7283H271.774C296.143 71.261 309.535 102.661 309.48 135.138Z" fill="#F2F2F2"/>
<path d="M45.679 158.482C30.9382 150.82 19.8125 136.5 21.2569 121.573C34.7336 132.837 52.3383 139.576 70.9562 140.596C78.138 140.967 86.1701 140.726 91.4567 144.987C94.7462 147.639 96.2775 151.631 96.5287 155.534C96.7797 159.437 95.8844 163.32 94.9937 167.151L95.3003 168.09C78.1463 168.146 60.4198 166.144 45.679 158.482Z" fill="#E6E6E6"/>
<path d="M21.6164 121.557C27.5226 132.833 37.3471 142.198 49.6945 148.32C52.3489 149.618 55.1709 150.732 58.1698 151.249C61.0973 151.733 64.12 151.524 66.9236 150.643C69.5567 149.868 72.1472 148.808 74.9502 148.605C77.9048 148.391 80.6401 149.387 82.7891 151.13C85.4185 153.264 87.0134 156.095 88.4629 158.911C90.0723 162.038 91.6872 165.308 94.7729 167.556C95.1467 167.828 94.6408 168.319 94.2676 168.047C88.899 164.135 88.0227 157.584 83.7314 152.976C81.729 150.827 78.9726 149.191 75.6981 149.234C72.8347 149.272 70.1623 150.362 67.504 151.168C64.7128 152.013 61.9167 152.41 58.9699 152.038C55.9555 151.658 53.0777 150.637 50.3969 149.405C44.3419 146.57 38.8348 142.921 34.0775 138.593C28.6167 133.679 24.1586 127.985 20.8962 121.758C20.6944 121.373 21.4159 121.174 21.6164 121.557Z" fill="white"/>
<path d="M45.5858 146.553C44.1284 148.223 42.0388 149.386 39.6902 149.834C37.3416 150.283 34.8869 149.987 32.7646 149.001C32.3359 148.8 32.6732 148.209 33.1024 148.41C35.0768 149.332 37.3633 149.607 39.5494 149.185C41.7354 148.764 43.6769 147.674 45.0235 146.112C45.3166 145.773 45.8772 146.216 45.5858 146.553Z" fill="white"/>
<path d="M65.6479 151.19C65.0345 146.932 62.6058 143.032 58.8461 140.268C58.4734 139.994 58.9792 139.503 59.3515 139.777C63.2577 142.659 65.7757 146.722 66.4028 151.155C66.4623 151.577 65.707 151.61 65.6479 151.19Z" fill="white"/>
<path d="M29.5542 133.369C30.2723 132.825 30.8245 132.135 31.1614 131.359C31.4983 130.583 31.6092 129.746 31.4842 128.923C31.4187 128.502 32.1741 128.469 32.2392 128.888C32.3724 129.797 32.2486 130.722 31.8786 131.58C31.5086 132.438 30.9036 133.203 30.1166 133.81C30.0478 133.873 29.9544 133.91 29.8553 133.915C29.7561 133.919 29.6587 133.891 29.5827 133.835C29.5086 133.776 29.464 133.694 29.4587 133.607C29.4533 133.52 29.4877 133.434 29.5542 133.369Z" fill="white"/>
<path d="M68.9717 92.6525C69.0213 92.9147 69.0708 93.177 69.126 93.4418C69.8124 96.9648 70.8254 100.433 72.155 103.813C72.2531 104.076 72.357 104.341 72.4635 104.601C75.7662 112.713 80.7649 120.22 87.2055 126.739C89.7711 129.331 92.5588 131.749 95.5445 133.972C99.6679 137.041 104.418 140.083 107.062 144.046C107.343 144.457 107.595 144.883 107.816 145.32L96.5875 167.69C96.5327 167.73 96.4837 167.772 96.4289 167.812L96.0273 168.723C95.8641 168.618 95.6975 168.505 95.5344 168.4C95.4394 168.339 95.347 168.274 95.2521 168.213C95.1896 168.171 95.1271 168.129 95.068 168.094C95.0472 168.08 95.0264 168.066 95.0114 168.054C94.9522 168.019 94.9015 167.981 94.8482 167.949C93.9149 167.324 92.9849 166.692 92.0584 166.053C92.0525 166.051 92.0525 166.051 92.0492 166.044C85.0036 161.162 78.3627 155.724 72.8782 149.578C72.7132 149.393 72.5423 149.206 72.3825 149.011C69.928 146.229 67.7379 143.276 65.8342 140.182C64.798 138.485 63.8608 136.743 63.0263 134.963C60.8802 130.361 59.5763 125.493 59.1625 120.536C58.3392 110.656 61.1433 100.656 68.4102 93.2162C68.5962 93.0259 68.7798 92.8404 68.9717 92.6525Z" fill="#E6E6E6"/>
<path d="M69.2716 92.8272C66.2135 104.936 67.602 117.579 73.2399 128.96C74.4648 131.391 75.9496 133.765 77.9876 135.755C79.9912 137.681 82.5488 139.103 85.3947 139.874C88.0316 140.639 90.8304 141.155 93.2084 142.467C95.715 143.85 97.2127 146.083 97.7266 148.605C98.3553 151.691 97.6769 154.79 96.8929 157.801C96.0223 161.143 95.0575 164.603 95.9711 168.021C96.0818 168.435 95.3396 168.561 95.2291 168.147C93.6395 162.201 97.4564 156.509 97.2062 150.574C97.0895 147.805 96.0165 145.05 93.3722 143.362C91.0599 141.887 88.1743 141.352 85.4966 140.598C82.685 139.805 80.1786 138.652 78.0823 136.806C75.9378 134.917 74.3436 132.589 73.053 130.195C70.1726 124.748 68.2908 118.939 67.4766 112.982C66.5041 106.187 66.8698 99.2965 68.5578 92.6093C68.6625 92.1954 69.3756 92.416 69.2716 92.8272Z" fill="white"/>
<path d="M71.1776 125.389C68.8628 125.955 66.3926 125.785 64.2082 124.908C62.0238 124.032 60.2674 122.505 59.2528 120.602C59.0489 120.216 59.7257 119.921 59.9298 120.308C60.871 122.082 62.5072 123.503 64.5432 124.316C66.5792 125.129 68.8809 125.279 71.0328 124.74C71.5006 124.624 71.6427 125.273 71.1776 125.389Z" fill="white"/>
<path d="M83.9991 139.64C86.445 135.917 87.1945 131.526 86.0981 127.342C85.9891 126.928 86.7313 126.802 86.8402 127.216C87.9718 131.572 87.1812 136.14 84.6262 140.009C84.3824 140.377 83.7566 140.006 83.9991 139.64Z" fill="white"/>
<path d="M67.4664 106.432C68.4144 106.376 69.3315 106.115 70.1354 105.672C70.9392 105.23 71.6047 104.62 72.0721 103.898C72.3104 103.527 72.9359 103.898 72.6991 104.267C72.1786 105.063 71.4427 105.735 70.5557 106.226C69.6688 106.716 68.6578 107.01 67.6111 107.08C67.5131 107.094 67.4127 107.075 67.3304 107.026C67.248 106.978 67.1899 106.904 67.1677 106.819C67.1491 106.734 67.17 106.645 67.2259 106.572C67.2818 106.5 67.3682 106.449 67.4664 106.432Z" fill="white"/>
<path d="M107.19 31.3211L126.129 224.946L88.2502 227.434V33.7846C92.7638 31.1763 99.243 30.7682 107.19 31.3211Z" fill="#CCCCCC"/>
<path d="M200.678 31.3211L181.739 224.946L219.618 227.434V33.7846C215.104 31.1763 208.625 30.7682 200.678 31.3211Z" fill="#CCCCCC"/>
<path d="M213.946 235.436H93.5189C91.5878 235.434 89.7365 234.764 88.371 233.571C87.0055 232.378 86.2375 230.762 86.2353 229.075V36.6263C86.2375 34.9399 87.0056 33.3231 88.3711 32.1306C89.7365 30.9381 91.5878 30.2673 93.5189 30.2654H213.946C215.877 30.2673 217.729 30.9381 219.094 32.1306C220.46 33.3231 221.228 34.9399 221.23 36.6263V229.075C221.228 230.762 220.46 232.378 219.094 233.571C217.729 234.764 215.877 235.434 213.946 235.436ZM93.5189 32.3769C92.2288 32.3782 90.992 32.8263 90.0799 33.6229C89.1677 34.4195 88.6546 35.4997 88.6531 36.6263V229.075C88.6546 230.202 89.1677 231.282 90.0798 232.079C90.992 232.875 92.2288 233.323 93.5189 233.325H213.946C215.236 233.323 216.473 232.875 217.385 232.079C218.298 231.282 218.811 230.202 218.812 229.075V36.6263C218.811 35.4997 218.298 34.4195 217.385 33.6229C216.473 32.8263 215.236 32.3782 213.946 32.3769L93.5189 32.3769Z" fill="#CCCCCC"/>
<path d="M220.021 62.2903H87.4442V64.4018H220.021V62.2903Z" fill="#CCCCCC"/>
<path d="M220.021 97.4825H87.4442V99.5941H220.021V97.4825Z" fill="#CCCCCC"/>
<path d="M130.467 31.3212H128.049V127.396H130.467V31.3212Z" fill="#CCCCCC"/>
<path d="M179.416 31.3212H176.999V127.396H179.416V31.3212Z" fill="#CCCCCC"/>
<path d="M235.132 241.243H76.3626C73.477 241.243 70.7096 240.242 68.6691 238.46C66.6287 236.678 65.4824 234.261 65.4824 231.741C65.4824 229.221 66.6287 226.804 68.6691 225.022C70.7096 223.24 73.477 222.239 76.3626 222.239H235.132C238.018 222.239 240.785 223.24 242.826 225.022C244.866 226.804 246.012 229.221 246.012 231.741C246.012 234.261 244.866 236.678 242.826 238.46C240.785 240.242 238.018 241.243 235.132 241.243Z" fill="#CCCCCC"/>
<path d="M220.021 122.469H88.2502V129.508H220.021V122.469Z" fill="#CCCCCC"/>
<path d="M130.842 144.869L130.675 144.799C121.692 141.009 109.929 141.013 92.5323 144.811L92.3466 144.852L92.2909 144.692C90.4506 139.422 88.3659 133.453 92.2822 130.517C92.3371 121.9 100.992 114.903 111.623 114.903C122.252 114.903 130.905 121.896 130.963 130.511C136.789 134.401 134.013 140.149 130.936 144.729L130.842 144.869Z" fill="#2F2E41"/>
<path d="M186.053 126.418C185.892 127.116 185.558 127.775 185.074 128.348C184.589 128.921 183.967 129.395 183.251 129.735C182.534 130.076 181.741 130.275 180.927 130.319C180.113 130.362 179.298 130.25 178.539 129.989L146.794 157.849L143.962 149.198L175.491 123.326C176.077 122.242 177.099 121.383 178.362 120.913C179.625 120.443 181.042 120.394 182.344 120.775C183.646 121.156 184.743 121.941 185.426 122.981C186.11 124.021 186.333 125.244 186.053 126.418Z" fill="#FFB6B6"/>
<path d="M107.596 153.238C107.596 153.238 104.716 158.938 111.822 162.454C118.929 165.969 143.767 161.112 147.797 160.434C151.827 159.756 166.88 140.083 166.88 140.083L164.751 130.435L144.788 145.57L107.596 153.238Z" fill="#4169E2"/>
<path d="M102.354 184.759L102.757 191.446C102.757 191.446 101.568 197.369 102.546 198.647C103.517 199.919 130.008 200.079 130.008 200.079C130.008 200.079 131.759 191.839 133.266 184.626L102.354 184.759Z" fill="#FFB6B6"/>
<path d="M178.521 273.17L184.059 272.193L182.474 252.656L174.3 254.098L178.521 273.17Z" fill="#FFB6B6"/>
<path d="M186.454 247.746L191.603 245.724L184.924 227.031L177.324 230.016L186.454 247.746Z" fill="#FFB6B6"/>
<path d="M190.939 237.213L181.244 242.007L157.335 208.454C140.551 218.329 124.138 223.059 107.593 225.582C101.999 226.452 96.2953 226.011 95.2213 221.039C95.1711 220.807 95.1311 220.573 95.1012 220.338C94.4406 214.906 102.177 207.945 103.16 201.3L124.332 200.19L126.943 203.113L151.428 189.967C156.352 187.323 162.828 188.753 165.893 193.161C166.055 193.393 166.205 193.632 166.344 193.876L190.939 237.213Z" fill="#2F2E41"/>
<path d="M185.005 259.785L173.912 260.685L153.799 224.76C133.854 227.756 115.037 228.716 98.7619 225.092C93.2514 223.882 89.883 218.913 91.2384 213.993C91.3018 213.763 91.375 213.536 91.4582 213.31C93.406 208.12 98.5048 204.448 102.522 198.74L131.865 199.129L128.588 209.004L157.092 205.783C162.824 205.135 168.06 208.759 168.785 213.877C168.824 214.147 168.849 214.418 168.86 214.691L185.005 259.785Z" fill="#2F2E41"/>
<path d="M113.811 139.762C120.392 139.762 125.726 135.103 125.726 129.356C125.726 123.609 120.392 118.951 113.811 118.951C107.231 118.951 101.896 123.609 101.896 129.356C101.896 135.103 107.231 139.762 113.811 139.762Z" fill="#FFB6B6"/>
<path d="M106.826 143.518L117.751 144.641C118.212 144.688 118.644 144.86 118.988 145.132C119.332 145.404 119.569 145.763 119.669 146.158L121.406 153.102L132.236 164.24C132.236 164.24 136.125 170.608 134.667 177.826C133.209 185.043 132.568 190.406 132.568 190.406C132.568 190.406 103.515 199.919 102.543 198.646C101.571 197.372 101.255 191.587 101.255 191.587L97.3661 153.801C97.3661 153.801 101.741 147.433 104.172 147.433C105.741 147.387 105.54 144.303 106.826 143.518Z" fill="#4169E2"/>
<path d="M132.863 192.73C134.395 192.73 135.637 191.428 135.637 189.822C135.637 188.217 134.395 186.915 132.863 186.915C131.331 186.915 130.089 188.217 130.089 189.822C130.089 191.428 131.331 192.73 132.863 192.73Z" fill="#4169E2"/>
<path d="M175.772 268.14L184.216 264.444L185.807 267.686L196.485 269.571C197.012 269.664 197.492 269.902 197.853 270.25C198.215 270.598 198.44 271.038 198.495 271.505C198.55 271.972 198.433 272.443 198.16 272.848C197.887 273.253 197.474 273.571 196.979 273.757L186.663 277.618L183.31 275.077L184.19 278.544L180.3 280L175.772 268.14Z" fill="#2F2E41"/>
<path d="M184.038 246.191L192.405 242.366L194.062 245.583L204.775 247.304C205.305 247.389 205.789 247.619 206.157 247.961C206.526 248.304 206.76 248.74 206.824 249.206C206.889 249.673 206.781 250.145 206.517 250.554C206.252 250.964 205.845 251.288 205.354 251.481L195.117 255.501L191.714 253.011L192.664 256.464L188.804 257.98L184.038 246.191Z" fill="#2F2E41"/>
<path d="M107.004 126.092C103.856 126.097 100.784 125.25 98.2089 123.669L98.1229 123.616V123.525C98.1264 120.866 99.3375 118.316 101.491 116.436C103.644 114.556 106.563 113.498 109.608 113.495H114.443C117.488 113.498 120.407 114.556 122.56 116.436C124.713 118.316 125.924 120.866 125.928 123.525C125.925 124.133 125.649 124.717 125.161 125.151C124.672 125.585 124.009 125.835 123.312 125.849L107.276 126.09C107.185 126.092 107.094 126.092 107.004 126.092Z" fill="#2F2E41"/>
<path d="M126.734 121.598C128.276 120.821 128.533 118.69 127.309 116.838C126.085 114.987 123.843 114.116 122.301 114.893C120.759 115.671 120.501 117.802 121.725 119.654C122.95 121.505 125.192 122.376 126.734 121.598Z" fill="#2F2E41"/>
<path d="M102.619 119.533C104.35 118.021 104.733 115.904 103.474 114.805C102.215 113.705 99.7908 114.04 98.0597 115.551C96.3287 117.063 95.9459 119.18 97.2049 120.279C98.4638 121.379 100.888 121.045 102.619 119.533Z" fill="#2F2E41"/>
<path d="M208.068 214.673H196.176C195.907 214.672 195.642 214.723 195.399 214.821C195.155 214.92 194.939 215.063 194.766 215.242C194.327 215.172 193.876 215.193 193.448 215.305C193.021 215.416 192.63 215.615 192.308 215.884C191.985 216.153 191.74 216.485 191.593 216.853C191.446 217.22 191.401 217.613 191.462 217.999C191.522 218.385 191.687 218.753 191.942 219.072C192.197 219.392 192.535 219.654 192.928 219.838C193.322 220.021 193.759 220.12 194.205 220.127C194.651 220.134 195.093 220.049 195.493 219.878L196.48 222.677C196.597 223.009 196.832 223.299 197.152 223.505C197.472 223.712 197.858 223.823 198.256 223.823H205.988C206.385 223.823 206.772 223.712 207.092 223.505C207.412 223.299 207.647 223.009 207.764 222.677L209.844 216.773C209.93 216.53 209.949 216.273 209.9 216.023C209.851 215.773 209.736 215.536 209.563 215.332C209.39 215.127 209.165 214.961 208.905 214.847C208.646 214.732 208.359 214.673 208.068 214.673ZM194.264 219.424C193.73 219.424 193.217 219.238 192.839 218.908C192.461 218.578 192.249 218.131 192.249 217.664C192.249 217.198 192.461 216.75 192.839 216.42C193.217 216.09 193.73 215.905 194.264 215.905C194.301 215.905 194.335 215.912 194.371 215.914C194.291 216.197 194.301 216.494 194.4 216.773L195.251 219.189C194.951 219.341 194.611 219.422 194.264 219.424Z" fill="#3F3D56"/>
<path d="M154.963 207.033C154.15 207.099 153.332 207.008 152.564 206.768C151.796 206.527 151.099 206.142 150.52 205.641C149.941 205.139 149.495 204.533 149.213 203.864C148.931 203.196 148.821 202.481 148.89 201.772L109.222 183.207L117.898 178.356L155.323 197.31C156.681 197.489 157.916 198.098 158.794 199.02C159.672 199.942 160.133 201.113 160.088 202.311C160.044 203.51 159.498 204.653 158.553 205.523C157.608 206.393 156.331 206.931 154.963 207.033Z" fill="#FFB6B6"/>
<path d="M103.032 149.091C103.032 149.091 95.9533 148.317 94.1365 155.271C92.3197 162.225 104.773 181.611 106.673 184.788C108.574 187.965 134.471 194.914 134.471 194.914L144.444 190.365L122.115 178.006L103.032 149.091Z" fill="#4169E2"/>
<path d="M152.927 120.358H155.344C156.52 120.358 157.648 120.765 158.479 121.491C159.31 122.217 159.777 123.202 159.777 124.229H148.494C148.494 123.202 148.961 122.217 149.792 121.491C150.624 120.765 151.751 120.358 152.927 120.358Z" fill="#CCCCCC"/>
<path d="M76.2585 48.1308C89.4874 48.1308 100.212 38.7651 100.212 27.2119C100.212 15.6587 89.4874 6.29297 76.2585 6.29297C63.0295 6.29297 52.3052 15.6587 52.3052 27.2119C52.3052 38.7651 63.0295 48.1308 76.2585 48.1308Z" fill="#FF6584"/>
<path d="M149.597 26.1219C143.258 20.3143 135.896 15.0162 127.18 12.2165C124.753 11.4333 122.235 10.8809 119.672 10.5687C119.651 10.5662 119.632 10.5699 119.611 10.5684C119.57 10.5591 119.527 10.5518 119.485 10.5467C115.9 10.1479 112.261 10.3397 108.757 11.1124C107.043 11.4879 105.372 11.9965 103.762 12.632C102.146 13.3203 100.581 14.095 99.0748 14.9518C95.8867 16.6184 92.3765 17.762 88.7175 18.3262C86.8808 18.615 85.0206 18.7745 83.1547 18.803C81.5357 18.8314 80.0088 18.8805 78.4749 19.3913C76.8363 19.9294 75.3645 20.7946 74.1767 21.9177C72.989 23.0408 72.1183 24.3908 71.6342 25.86C71.5968 25.9909 71.6081 26.1287 71.6663 26.2536C71.7245 26.3784 71.8266 26.484 71.9579 26.5549C72.3728 26.8144 72.7774 27.1089 73.2133 27.3401C73.6011 27.4951 74.0154 27.5938 74.4396 27.6322C75.1327 27.7599 75.8268 27.8839 76.5216 28.0042C79.0816 28.4471 81.6522 28.8392 84.2334 29.1805C89.4565 29.871 94.7078 30.3574 99.9872 30.6397C110.564 31.1992 121.176 30.9207 131.695 29.8075C137.606 29.1822 143.478 28.2953 149.287 27.1502C149.404 27.1202 149.511 27.0641 149.596 26.9875C149.682 26.9108 149.743 26.8162 149.775 26.7127C149.806 26.6092 149.806 26.5005 149.775 26.3969C149.744 26.2934 149.683 26.1987 149.597 26.1219Z" fill="#E6E6E6"/>
<path d="M77.3953 40.1084C74.9675 39.3252 72.4502 38.7727 69.887 38.4606C69.8663 38.4581 69.8468 38.4617 69.8263 38.4603C69.7846 38.4509 69.7423 38.4437 69.6997 38.4386C66.1147 38.0397 62.4758 38.2316 58.9718 39.0042C57.2582 39.3797 55.5866 39.8883 53.9767 40.5239C52.3612 41.2122 50.7959 41.9869 49.2897 42.8436C46.1016 44.5103 42.5914 45.6539 38.9324 46.2181C37.0957 46.5068 35.2355 46.6663 33.3696 46.6949C31.7505 46.7232 30.2237 46.7724 28.6898 47.2832C27.0512 47.8213 25.5793 48.6864 24.3916 49.8095C23.2039 50.9327 22.3332 52.2827 21.849 53.7518C21.8117 53.8827 21.8229 54.0205 21.8811 54.1454C21.9393 54.2703 22.0415 54.3758 22.1728 54.4467C22.5877 54.7062 22.9922 55.0007 23.4282 55.2319C23.816 55.3869 24.2302 55.4856 24.6545 55.524C25.3476 55.6517 26.0416 55.7757 26.7365 55.896C29.2965 56.3389 31.8671 56.7311 34.4483 57.0723C39.6714 57.7628 44.9226 58.2492 50.2021 58.5315C60.7784 59.091 71.391 58.8125 81.9097 57.6993C87.8213 57.074 93.6928 56.1871 99.5014 55.042C99.6191 55.012 99.7258 54.9559 99.8113 54.8793C99.8968 54.8026 99.9581 54.708 99.9894 54.6045C100.021 54.5011 100.021 54.3923 99.9898 54.2888C99.9588 54.1853 99.8976 54.0905 99.8123 54.0137C93.4732 48.2061 86.1109 42.9081 77.3953 40.1084Z" fill="#E6E6E6"/>
<path d="M250.132 196.056L231.711 174.922L217.177 182.1L247.977 214.041L250.132 196.056Z" fill="#3F3D56"/>
<path d="M292.563 161.701C292.973 170.558 294.544 179.344 297.246 187.888C296.666 189.081 296.067 190.266 295.449 191.442C293.111 195.898 290.493 200.238 287.607 204.442C279.514 216.248 269.411 226.91 257.646 236.063C256.373 237.052 255.082 238.024 253.774 238.98C246.315 229.999 242.289 220.089 240.697 209.89C240.496 208.595 240.331 207.286 240.206 205.984V205.977C239.9 202.812 239.802 199.635 239.912 196.461C239.916 196.207 239.924 195.951 239.936 195.694C240.077 192.301 240.427 188.902 240.955 185.534V185.53C241.016 185.143 241.076 184.756 241.145 184.369C241.338 183.207 241.556 182.046 241.793 180.892C243.177 174.234 245.108 167.673 247.572 161.258V161.254C247.64 161.068 247.709 160.885 247.786 160.702C248.051 160.005 248.321 159.315 248.6 158.626C248.617 158.572 248.638 158.519 248.664 158.467C249.023 157.566 249.389 156.672 249.764 155.786C249.865 155.539 249.97 155.293 250.078 155.047C250.502 154.058 250.933 153.076 251.372 152.108C251.509 151.798 251.65 151.489 251.791 151.182C251.9 150.947 252.005 150.711 252.117 150.479V150.475C252.758 149.092 253.407 147.736 254.064 146.407C255.905 142.669 257.799 139.154 259.645 135.913L259.649 135.909C267.309 122.49 274.273 113.777 274.273 113.777L300.421 121.167C297.302 125.999 294.889 133.125 293.567 141.533C292.548 148.215 292.213 154.964 292.563 161.698L292.563 161.701Z" fill="#3F3D56"/>
<path d="M249.103 159.551C248.95 159.238 248.777 158.932 248.599 158.626C247.68 157.071 246.497 155.648 245.09 154.403C244.88 154.216 244.662 154.03 244.437 153.854C242.01 151.901 239.058 150.514 235.855 149.822C232.651 149.129 229.3 149.153 226.11 149.891L226.094 149.898L225.973 149.926L226.001 150.046C226.122 150.603 226.297 151.151 226.525 151.682C226.585 151.826 226.654 151.964 226.722 152.101C226.751 152.164 226.787 152.221 226.819 152.284C226.819 152.284 226.815 152.287 226.823 152.287C226.823 152.291 226.827 152.295 226.827 152.298C226.904 152.428 226.976 152.562 227.057 152.689C226.892 152.551 226.734 152.411 226.581 152.266C226.432 152.133 226.295 151.992 226.158 151.851C225.688 151.373 225.264 150.862 224.889 150.324L224.824 150.229L224.711 150.267C223.191 150.728 221.74 151.348 220.392 152.115L220.247 152.2C219.217 152.79 218.057 153.185 216.841 153.358C215.626 153.531 214.382 153.48 213.191 153.206C211.313 152.783 209.355 152.706 207.441 152.979C205.527 153.252 203.699 153.87 202.073 154.793C200.996 155.406 200.022 156.148 199.179 156.996C199.107 157.07 199.034 157.148 198.962 157.221C198.809 157.383 198.664 157.549 198.523 157.718C197.008 159.486 196.078 161.583 195.835 163.781L195.827 163.862L195.903 163.908C197.267 164.724 198.809 165.285 200.433 165.555C199.413 165.679 198.38 165.702 197.354 165.622H197.35C196.885 165.588 196.422 165.532 195.964 165.453L195.879 165.439H195.875L195.77 165.421L195.786 165.59C195.907 167.741 196.682 169.824 198.031 171.626L198.071 171.675C198.086 171.693 198.1 171.712 198.112 171.731C198.683 172.495 199.159 173.31 199.53 174.163C200.472 176.282 200.68 178.597 200.126 180.818C199.5 183.194 199.708 185.679 200.723 187.95C201.738 190.221 203.513 192.173 205.816 193.55C207.84 194.766 210.197 195.489 212.647 195.644C212.981 195.669 213.32 195.683 213.658 195.683C215.596 195.688 217.513 195.339 219.288 194.659L219.352 194.638L219.368 194.575C219.709 193.613 220.189 192.693 220.795 191.837C220.596 192.512 220.496 193.206 220.496 193.902V194.135L220.726 194.019C220.924 193.916 221.125 193.807 221.306 193.705C222.395 193.085 223.381 192.336 224.236 191.481C224.57 191.143 224.909 190.816 225.264 190.489L225.268 190.485C225.957 189.845 226.686 189.218 227.444 188.62C229.055 187.356 230.78 186.206 232.602 185.182C234.422 184.161 236.325 183.258 238.296 182.479H238.3C238.521 182.387 238.747 182.299 238.969 182.215C239.95 181.842 240.895 181.399 241.793 180.892C241.826 180.874 241.854 180.86 241.882 180.843C245.777 178.615 248.641 175.252 249.964 171.353C251.286 167.455 250.981 163.272 249.103 159.551Z" fill="#4169E2"/>
<path opacity="0.15" d="M200.79 185.815C200.68 186.242 200.597 186.675 200.541 187.111C199.791 185.04 199.682 182.833 200.226 180.714C200.31 180.39 200.372 180.062 200.422 179.732C201.166 181.694 201.294 183.795 200.79 185.815Z" fill="black"/>
<path opacity="0.15" d="M201.095 170.549C199.901 170.694 198.691 170.699 197.496 170.564C197.183 170.048 196.912 169.514 196.687 168.964C198.018 169.749 199.518 170.288 201.095 170.549Z" fill="black"/>
<path opacity="0.15" d="M197.4 165.509C196.96 166.493 196.667 167.522 196.529 168.572C196.161 167.572 195.944 166.535 195.884 165.486L195.874 165.317L196.064 165.35C196.506 165.422 196.952 165.475 197.4 165.509Z" fill="black"/>
<path opacity="0.15" d="M202.177 154.689C203.801 153.764 205.628 153.146 207.541 152.872C209.454 152.598 211.411 152.676 213.288 153.1C214.48 153.375 215.724 153.427 216.941 153.254C218.157 153.081 219.318 152.686 220.348 152.095L220.494 152.011C221.841 151.242 223.291 150.62 224.811 150.159L224.927 150.124L224.991 150.215C225.592 151.083 226.32 151.879 227.157 152.582C226.649 151.755 226.293 150.863 226.102 149.939L226.075 149.817L226.212 149.786C229.204 149.094 232.341 149.03 235.366 149.599C238.392 150.167 241.221 151.353 243.622 153.058C246.023 154.763 247.929 156.94 249.183 159.411C250.438 161.882 251.005 164.577 250.84 167.276C250.205 165.076 249.077 163.007 247.52 161.19C245.964 159.374 244.01 157.845 241.771 156.692C239.533 155.54 237.055 154.787 234.481 154.477C231.907 154.166 229.289 154.306 226.777 154.886L226.639 154.918L226.667 155.039C226.857 155.963 227.213 156.855 227.722 157.683C226.885 156.979 226.156 156.184 225.555 155.316L225.492 155.224L225.376 155.259C223.855 155.72 222.406 156.342 221.058 157.111L220.913 157.195C219.883 157.786 218.722 158.181 217.506 158.354C216.289 158.528 215.045 158.475 213.853 158.2C210.733 157.493 207.43 157.753 204.505 158.935C201.58 160.118 199.216 162.15 197.815 164.685C197.191 164.423 196.587 164.128 196.004 163.801L195.925 163.757L195.935 163.676C196.135 161.865 196.8 160.116 197.881 158.56C198.962 157.004 200.43 155.681 202.177 154.689Z" fill="black"/>
<path d="M351.985 64.7679L351.602 64.5462L351.324 64.8629C349.172 67.229 347.46 69.8762 346.251 72.7073C346.418 69.4458 347.071 66.2173 348.193 63.1033L348.314 62.776L347.968 62.6036C343.459 60.3739 338.655 58.6342 333.662 57.4233L333.118 57.2966C329.292 56.3797 325.73 54.7687 322.664 52.5688C319.599 50.3688 317.099 47.6293 315.327 44.5288C311.21 37.4131 304.706 31.5632 296.683 27.7596C288.66 23.956 279.5 22.3797 270.424 23.241H270.42C270.324 23.248 270.223 23.2586 270.126 23.2692C269.961 23.2832 269.8 23.3008 269.639 23.3184C269.308 23.3571 268.986 23.3959 268.663 23.4381C268.389 23.4733 268.111 23.512 267.837 23.5542C267.692 23.5718 267.551 23.5929 267.41 23.6176C267.269 23.6387 267.124 23.6598 266.983 23.6844H266.979C264.273 24.1314 261.621 24.797 259.057 25.6728H259.053V25.6763L258.404 25.898C257.735 26.1373 257.071 26.3907 256.413 26.6582C256.264 26.718 256.119 26.7813 255.97 26.8412C255.93 26.8588 255.885 26.8764 255.845 26.8975C255.422 27.0734 255.003 27.2564 254.588 27.45C254.527 27.4746 254.467 27.5028 254.406 27.5309L254.019 27.7104C253.169 28.1116 252.334 28.5374 251.513 28.9879C251.444 29.0231 251.38 29.0583 251.312 29.097C251.239 29.1392 251.162 29.1814 251.09 29.2237C251.046 29.2448 251.001 29.2729 250.957 29.2976C250.832 29.3644 250.711 29.4348 250.59 29.5087C250.348 29.646 250.107 29.7868 249.869 29.931C249.623 30.0753 249.381 30.2267 249.14 30.378L248.898 30.5293L248.942 30.7897C248.982 31.0044 249.019 31.2191 249.063 31.4302C249.103 31.6414 249.144 31.849 249.188 32.0567C249.256 32.4051 249.333 32.7499 249.41 33.0843C249.462 33.306 249.51 33.5242 249.567 33.7388C249.619 33.9606 249.675 34.1823 249.736 34.404C249.853 34.8615 249.978 35.3049 250.111 35.7413C250.175 35.9595 250.244 36.1777 250.316 36.3923C250.356 36.5226 250.397 36.6528 250.441 36.7795C250.473 36.8674 250.506 36.9554 250.538 37.0434C250.546 37.0716 250.554 37.1032 250.566 37.1349C250.575 37.1647 250.586 37.1941 250.598 37.2229C250.643 37.3531 250.687 37.4798 250.731 37.603C250.755 37.6698 250.78 37.7367 250.808 37.8C250.864 37.9514 250.925 38.1062 250.985 38.254C251.05 38.4229 251.118 38.5919 251.187 38.7573C251.203 38.7995 251.219 38.8382 251.235 38.8804C251.247 38.9121 251.259 38.9438 251.275 38.9755C251.291 39.0106 251.308 39.0494 251.324 39.0846C251.392 39.2429 251.461 39.4048 251.533 39.5632C251.557 39.6195 251.582 39.6793 251.61 39.7356C252.263 41.1693 253.066 42.5476 254.007 43.8531C252.964 43.0718 251.959 42.2436 250.993 41.3685C249.502 40.0154 248.128 38.5674 246.883 37.0364C246.782 36.9167 246.681 36.7935 246.589 36.6704C246.399 36.4346 246.214 36.1988 246.033 35.9595C245.839 35.7131 245.654 35.4562 245.473 35.2028C245.352 35.0339 245.231 34.8615 245.114 34.6926C244.997 34.5307 244.888 34.3723 244.783 34.2104L244.469 33.7388H244.465V33.7424L244.022 34.1224C243.845 34.2738 243.667 34.4251 243.494 34.5764C238.078 39.3355 234.155 45.2315 232.102 51.6974L232.042 51.891L231.981 52.0916C231.864 52.4506 231.747 52.799 231.622 53.1544V53.1579C231.502 53.5098 231.373 53.8618 231.236 54.2066C231.111 54.5339 230.982 54.8577 230.845 55.1815C230.8 55.2906 230.752 55.3997 230.7 55.5088C230.615 55.7199 230.522 55.9275 230.43 56.1387C230.385 56.2337 230.341 56.3323 230.297 56.4273C230.188 56.6595 230.079 56.8918 229.97 57.1206C229.954 57.1558 229.934 57.1945 229.914 57.2297C229.882 57.3 229.845 57.3704 229.813 57.4373C229.729 57.6062 229.64 57.7787 229.555 57.9476C229.495 58.0567 229.438 58.1693 229.382 58.2784C229.358 58.3277 229.33 58.3769 229.305 58.4262C229.156 58.7077 229.003 58.9858 228.842 59.2603C228.661 59.584 228.475 59.9078 228.278 60.2245C228.105 60.5202 227.923 60.8087 227.734 61.0973C227.407 61.6076 227.065 62.1144 226.71 62.6071C226.573 62.7971 226.436 62.9871 226.295 63.1772C226.263 63.2229 226.231 63.2687 226.199 63.3109C226.082 63.4763 225.961 63.6347 225.836 63.7966C225.751 63.9057 225.667 64.0147 225.582 64.1203C225.441 64.3104 225.292 64.4934 225.139 64.6728C225.098 64.7292 225.054 64.7819 225.01 64.8347C224.784 65.1092 224.558 65.3767 224.329 65.6441C224.321 65.6477 224.321 65.6512 224.317 65.6547C224.309 65.6547 224.309 65.6582 224.305 65.6617C224.204 65.7779 224.103 65.894 223.998 66.0066C223.861 66.172 223.712 66.3339 223.563 66.4923C223.321 66.7597 223.067 67.0307 222.81 67.2947C222.802 67.3017 222.797 67.3087 222.789 67.3123C221.454 68.6823 220.008 69.9666 218.462 71.1553C218.433 71.1764 218.413 71.1975 218.385 71.2151C218.167 71.3805 217.95 71.5459 217.724 71.7078C217.631 71.7747 217.539 71.8415 217.446 71.9084C217.293 72.021 217.136 72.1336 216.983 72.2357C216.965 72.2518 216.944 72.266 216.922 72.2779C216.785 72.3764 216.652 72.4679 216.515 72.5594C216.35 72.6756 216.185 72.7847 216.016 72.8938C215.218 73.4216 214.398 73.9202 213.557 74.3894C213.432 74.4633 213.3 74.5372 213.171 74.6076C213.094 74.6499 213.017 74.6921 212.945 74.7273C212.639 74.8927 212.332 75.0546 212.026 75.2094C211.72 75.3678 211.406 75.5191 211.095 75.6669C210.43 75.9836 209.774 76.3144 209.133 76.6593C208.81 76.8353 208.488 77.0113 208.17 77.1907C206.904 77.9087 205.686 78.677 204.515 79.4958C203.344 80.3151 202.221 81.1855 201.15 82.1036C201.017 82.2162 200.884 82.3323 200.751 82.452C200.485 82.6807 200.227 82.913 199.981 83.1453C199.586 83.5007 199.208 83.8667 198.833 84.2362C196.857 86.1944 195.107 88.3187 193.61 90.5779C192.859 91.7059 192.176 92.8677 191.563 94.0584C191.1 94.9487 190.677 95.8602 190.294 96.7823C190.04 97.3981 189.802 98.0198 189.581 98.6474C189.472 98.9607 189.367 99.2774 189.266 99.5941C188.924 100.667 188.638 101.751 188.404 102.839C188.215 103.712 188.062 104.586 187.945 105.461C187.884 105.901 187.836 106.34 187.792 106.777C187.688 107.849 187.635 108.923 187.633 109.998C187.625 113.222 188.074 116.434 188.968 119.562C189.166 120.252 189.385 120.938 189.625 121.621C189.746 121.962 189.875 122.3 190.004 122.638C190.33 123.483 190.692 124.319 191.088 125.147C191.326 125.643 191.575 126.136 191.837 126.625C193.502 129.735 195.626 132.641 198.156 135.269C198.571 135.701 198.999 136.127 199.441 136.546C199.445 136.546 199.441 136.55 199.441 136.55C200.538 137.594 201.699 138.586 202.919 139.52H202.923C203.411 139.896 203.906 140.261 204.41 140.614C204.414 140.611 204.414 140.614 204.414 140.614C204.922 140.973 205.434 141.318 205.957 141.652C206.219 141.818 206.485 141.983 206.755 142.149C207.283 142.476 207.822 142.791 208.371 143.095H208.375C208.923 143.405 209.479 143.701 210.043 143.982C211.176 144.549 212.336 145.08 213.529 145.562L213.731 145.643L213.936 145.562C215.849 144.811 217.82 144.179 219.836 143.672C220.279 143.56 220.726 143.458 221.169 143.359C222.29 143.116 223.418 142.912 224.554 142.747C223.447 143.232 222.378 143.781 221.355 144.39C220.561 144.858 219.779 145.369 218.993 145.932C218.732 146.118 218.47 146.312 218.208 146.509L217.555 147.002L218.373 147.237C218.671 147.322 218.969 147.406 219.267 147.484C219.674 147.596 220.077 147.698 220.472 147.793C221.335 148.005 222.202 148.191 223.076 148.353C223.289 148.392 223.499 148.43 223.712 148.469C224.127 148.54 224.546 148.61 224.965 148.673C224.983 148.677 225 148.679 225.018 148.68C225.453 148.744 225.892 148.803 226.328 148.856C227.137 148.958 227.947 149.039 228.757 149.099C228.846 149.11 228.935 149.113 229.027 149.117C229.225 149.131 229.418 149.145 229.616 149.155C230.051 149.18 230.49 149.198 230.929 149.212C230.962 149.212 230.99 149.215 231.022 149.215C231.244 149.222 231.465 149.229 231.687 149.233C231.687 149.233 231.687 149.236 231.691 149.233C231.913 149.236 232.134 149.24 232.356 149.24H233.581C233.811 149.24 234.04 149.243 234.274 149.243C234.596 149.243 234.923 149.247 235.245 149.25C235.33 149.25 235.418 149.254 235.507 149.254C236.023 149.261 236.539 149.272 237.055 149.282C237.087 149.282 237.119 149.286 237.151 149.286C237.667 149.3 238.183 149.314 238.699 149.335C238.811 149.338 238.924 149.342 239.041 149.349C239.537 149.367 240.032 149.388 240.528 149.412C240.669 149.419 240.814 149.43 240.959 149.437C241.334 149.455 241.713 149.476 242.088 149.5C242.309 149.511 242.527 149.525 242.748 149.542C243.643 149.602 244.534 149.669 245.428 149.747C245.726 149.768 246.025 149.796 246.323 149.824C247.121 149.898 247.921 149.979 248.724 150.067C249.083 150.102 249.442 150.144 249.8 150.187C249.841 150.19 249.881 150.194 249.921 150.201C250.365 150.253 250.804 150.306 251.247 150.362C251.537 150.398 251.827 150.436 252.118 150.475C252.416 150.514 252.714 150.553 253.012 150.598C253.173 150.619 253.334 150.644 253.5 150.669C253.887 150.721 254.277 150.778 254.668 150.841C254.703 150.844 254.738 150.849 254.773 150.855C255.603 150.982 256.437 151.116 257.267 151.26C257.755 151.341 258.239 151.425 258.722 151.513C259.101 151.58 259.48 151.651 259.859 151.721C259.923 151.731 259.987 151.746 260.052 151.76C260.066 151.763 260.081 151.766 260.096 151.767C260.669 151.876 261.245 151.988 261.817 152.108C263.804 152.509 265.788 152.955 267.769 153.445C268.224 153.554 268.68 153.671 269.135 153.787C269.328 153.836 269.518 153.885 269.707 153.934C270.102 154.037 270.493 154.139 270.888 154.248C271.234 154.339 271.585 154.434 271.931 154.533C272.149 154.593 272.367 154.652 272.584 154.716C272.923 154.807 273.261 154.902 273.596 155.004C273.882 155.082 274.164 155.163 274.446 155.251C274.849 155.367 275.256 155.486 275.659 155.613C275.776 155.648 275.897 155.684 276.014 155.722C276.505 155.87 276.997 156.021 277.488 156.18C277.968 156.331 278.447 156.486 278.923 156.641C279.253 156.75 279.584 156.855 279.91 156.968C280.277 157.091 280.644 157.214 281.006 157.341C281.53 157.521 282.058 157.704 282.582 157.89C283.065 158.059 283.545 158.231 284.029 158.411C284.117 158.443 284.21 158.474 284.299 158.51C284.718 158.661 285.137 158.819 285.552 158.978C285.822 159.076 286.088 159.178 286.354 159.28C287.514 159.724 288.673 160.182 289.831 160.656H289.835C290.561 160.955 291.298 161.24 292.04 161.511C292.213 161.575 292.386 161.638 292.564 161.698C292.858 161.807 293.156 161.909 293.454 162.015C293.647 162.082 293.841 162.148 294.038 162.212C294.324 162.31 294.615 162.405 294.905 162.497C295.211 162.595 295.513 162.694 295.824 162.785C295.932 162.821 296.041 162.852 296.154 162.887C296.513 162.993 296.871 163.099 297.234 163.201C297.27 163.211 297.306 163.222 297.347 163.232C297.726 163.338 298.104 163.443 298.487 163.542C298.517 163.552 298.548 163.56 298.58 163.567C298.991 163.676 299.41 163.781 299.825 163.883C300.438 164.031 301.054 164.172 301.671 164.302C301.783 164.327 301.896 164.351 302.009 164.373C302.34 164.443 302.666 164.51 302.996 164.573C303.347 164.643 303.702 164.707 304.052 164.77C304.407 164.834 304.761 164.897 305.112 164.953C305.301 164.985 305.491 165.017 305.676 165.045L306.172 165.119C306.514 165.171 306.857 165.217 307.203 165.266C307.213 165.266 307.222 165.267 307.232 165.27C307.622 165.323 308.009 165.372 308.4 165.414C308.775 165.46 309.15 165.499 309.524 165.537C309.601 165.544 309.682 165.551 309.762 165.559C310.072 165.59 310.383 165.622 310.693 165.646C310.782 165.654 310.87 165.661 310.959 165.668C311.265 165.692 311.572 165.717 311.878 165.734C311.939 165.742 312.001 165.745 312.063 165.745C312.337 165.766 312.611 165.784 312.885 165.794C313.079 165.808 313.268 165.815 313.461 165.826C313.562 165.829 313.659 165.833 313.76 165.837C314.026 165.851 314.292 165.858 314.562 165.865C314.888 165.875 315.214 165.882 315.537 165.889C315.928 165.896 316.323 165.9 316.713 165.9H316.721C317.104 165.9 317.491 165.896 317.874 165.889H318.019L318.442 165.879C318.66 165.875 318.877 165.868 319.091 165.861C319.502 165.847 319.909 165.829 320.316 165.808C320.477 165.801 320.642 165.791 320.804 165.784C320.876 165.78 320.953 165.773 321.025 165.77C321.279 165.756 321.529 165.742 321.783 165.724C322.045 165.706 322.311 165.685 322.573 165.661C322.911 165.632 323.25 165.601 323.588 165.569C323.854 165.544 324.12 165.516 324.382 165.488C324.417 165.485 324.452 165.481 324.487 165.474C324.741 165.449 324.994 165.421 325.244 165.39C325.543 165.354 325.837 165.316 326.131 165.277C326.163 165.273 326.191 165.27 326.224 165.266C326.731 165.196 327.243 165.126 327.755 165.045C328.291 164.96 328.827 164.869 329.359 164.774C329.556 164.739 329.75 164.7 329.947 164.665C330.056 164.644 330.169 164.626 330.273 164.605C330.439 164.573 330.6 164.541 330.761 164.506C330.789 164.503 330.821 164.496 330.85 164.492C331.075 164.45 331.297 164.401 331.523 164.351C331.974 164.256 332.417 164.158 332.86 164.052C333.058 164.01 333.255 163.964 333.445 163.919C333.501 163.904 333.558 163.89 333.61 163.876C334.428 163.676 335.239 163.463 336.044 163.239C336.399 163.141 336.749 163.039 337.1 162.93C337.853 162.704 338.6 162.467 339.34 162.219C339.538 162.155 339.735 162.085 339.933 162.018C340.223 161.916 340.513 161.814 340.799 161.712C341.057 161.617 341.315 161.522 341.577 161.423C341.706 161.378 341.835 161.328 341.964 161.279C342.35 161.131 342.737 160.98 343.12 160.829C343.378 160.723 343.632 160.621 343.886 160.515C344.289 160.347 344.688 160.174 345.087 160.002C345.187 159.956 345.284 159.91 345.381 159.868C345.635 159.755 345.888 159.639 346.146 159.527C346.553 159.337 346.96 159.146 347.363 158.949C347.5 158.886 347.633 158.819 347.77 158.752C348.214 158.534 348.653 158.312 349.088 158.087C350.051 157.584 351.001 157.058 351.937 156.511C352.171 156.377 352.404 156.236 352.634 156.099C353.069 155.838 353.496 155.571 353.924 155.304C353.968 155.275 354.008 155.247 354.053 155.223C354.266 155.085 354.48 154.948 354.693 154.807C355.137 154.515 355.576 154.22 356.015 153.917C356.023 153.913 356.035 153.903 356.047 153.896C356.245 153.759 356.442 153.621 356.636 153.484C357.236 153.058 357.828 152.625 358.409 152.178C358.695 151.964 358.977 151.742 359.255 151.52C359.464 151.355 359.674 151.19 359.88 151.021C360.295 150.679 360.702 150.341 361.104 149.997C361.306 149.828 361.503 149.652 361.705 149.476C361.902 149.3 362.104 149.124 362.301 148.944C362.37 148.884 362.438 148.821 362.507 148.758C362.708 148.571 362.91 148.381 363.111 148.195C363.285 148.033 363.454 147.864 363.627 147.695C363.917 147.413 364.211 147.132 364.498 146.847C364.513 146.831 364.529 146.815 364.546 146.801C364.562 146.783 364.578 146.769 364.59 146.755H364.586C370.443 140.84 374.796 133.906 377.354 126.412C379.913 118.917 380.62 111.034 379.429 103.283C378.238 95.5324 375.175 88.0909 370.444 81.4512C365.713 74.8115 359.421 69.1249 351.985 64.7679Z" fill="#4169E2"/>
<g opacity="0.15">
<path d="M270.421 23.2382C271.224 25.7581 272.433 28.1657 274.011 30.3892C271.369 28.4077 269.01 26.1571 266.982 23.6853C268.121 23.4972 269.267 23.3481 270.421 23.2382Z" fill="black"/>
<path d="M231.1 62.209C228.118 63.6306 225.329 65.3424 222.788 67.312C227.079 62.8805 230.215 57.687 231.979 52.0915C232 52.0243 232.022 51.9566 232.043 51.8893L232.103 51.6989C234.222 45.0206 238.335 38.9539 244.02 34.1191L244.467 33.7388L244.782 34.2088C246.525 36.7967 248.611 39.1966 250.996 41.3586C247.341 50.3657 240.228 57.8621 231.1 62.209Z" fill="black"/>
<path d="M252.107 38.2377L252.047 38.4282C252.026 38.4955 252.004 38.5632 251.983 38.6304C251.865 39.0007 251.74 39.3683 251.611 39.7342C250.336 36.8507 249.441 33.8499 248.943 30.7897L248.896 30.53L249.14 30.3774C252.207 28.4531 255.537 26.872 259.054 25.671C255.896 29.4635 253.543 33.7198 252.107 38.2377Z" fill="black"/>
<path d="M211.097 75.6701C213.736 74.4083 216.206 72.8939 218.462 71.1547C213.956 75.7362 210.726 81.1668 209.026 87.0208C207.325 92.8748 207.199 98.9932 208.659 104.897C210.119 110.8 213.124 116.328 217.439 121.048C221.754 125.767 227.262 129.55 233.531 132.1L233.735 132.182L233.938 132.102C237.324 130.766 240.895 129.819 244.56 129.285C242.272 130.302 240.14 131.567 238.212 133.048L237.561 133.54L238.378 133.776C239.084 133.98 239.791 134.168 240.477 134.334C244.51 135.315 248.679 135.802 252.865 135.782C271.886 135.675 291.055 139.516 309.838 147.196C313.059 148.511 316.4 149.589 319.827 150.42C334.759 154.051 350.699 152.745 364.598 146.752C356.762 154.666 346.516 160.476 335.05 163.508C323.585 166.541 311.369 166.67 299.823 163.881C296.396 163.05 293.055 161.972 289.834 160.657C271.051 152.977 251.882 149.136 232.862 149.243C228.675 149.263 224.506 148.776 220.473 147.795C219.787 147.629 219.08 147.441 218.375 147.237L217.557 147.001L218.209 146.509C220.136 145.028 222.268 143.764 224.556 142.746C220.891 143.28 217.32 144.227 213.934 145.563L213.731 145.643L213.527 145.561C205.999 142.5 199.592 137.673 195.022 131.618C190.452 125.563 187.899 118.518 187.647 111.27C187.395 104.021 189.454 96.8536 193.595 90.5674C197.735 84.2813 203.795 79.1237 211.097 75.6701Z" fill="black"/>
</g>
</g>
<defs>
<clipPath id="clip0_17_859">
<rect width="380" height="280" fill="white"/>
</clipPath>
</defs>
</svg>
