<svg width="380" height="280" viewBox="0 0 380 280" fill="none" xmlns="http://www.w3.org/2000/svg">
<g clip-path="url(#clip0_17_826)">
<path d="M242.155 209.907V277.404H75.8036C56.8501 277.404 41.4293 262.264 41.4293 243.656C41.4293 225.047 56.85 209.907 75.8036 209.907H242.155Z" fill="#F2F2F2"/>
<path d="M246.241 276.885C246.241 277.573 245.972 278.233 245.493 278.72C245.014 279.207 244.365 279.481 243.687 279.481H72.8406C63.5616 279.481 54.6626 275.734 48.1013 269.064C41.5401 262.394 37.854 253.348 37.854 243.915C37.854 234.483 41.5401 225.436 48.1013 218.767C54.6626 212.097 63.5616 208.35 72.8406 208.35H243.687C244.365 208.35 245.014 208.623 245.493 209.11C245.972 209.597 246.241 210.257 246.241 210.946C246.241 211.634 245.972 212.295 245.493 212.781C245.014 213.268 244.365 213.542 243.687 213.542H72.8406C64.9162 213.542 57.3163 216.742 51.7129 222.438C46.1095 228.134 42.9615 235.86 42.9615 243.915C42.9615 251.971 46.1095 259.696 51.7129 265.393C57.3163 271.089 64.9162 274.289 72.8406 274.289H243.687C244.365 274.289 245.014 274.563 245.493 275.049C245.972 275.536 246.241 276.196 246.241 276.885Z" fill="#4169E2"/>
<path d="M242.155 225.483H63.3916C63.2562 225.483 63.1263 225.429 63.0305 225.331C62.9347 225.234 62.8809 225.102 62.8809 224.964C62.8809 224.827 62.9347 224.695 63.0305 224.597C63.1263 224.5 63.2562 224.445 63.3916 224.445H242.155C242.291 224.445 242.42 224.5 242.516 224.597C242.612 224.695 242.666 224.827 242.666 224.964C242.666 225.102 242.612 225.234 242.516 225.331C242.42 225.429 242.291 225.483 242.155 225.483Z" fill="#CCCCCC"/>
<path d="M242.155 237.944H63.3916C63.2562 237.944 63.1263 237.89 63.0305 237.792C62.9347 237.695 62.8809 237.563 62.8809 237.425C62.8809 237.288 62.9347 237.155 63.0305 237.058C63.1263 236.961 63.2562 236.906 63.3916 236.906H242.155C242.291 236.906 242.42 236.961 242.516 237.058C242.612 237.155 242.666 237.288 242.666 237.425C242.666 237.563 242.612 237.695 242.516 237.792C242.42 237.89 242.291 237.944 242.155 237.944Z" fill="#CCCCCC"/>
<path d="M242.155 250.405H63.3916C63.2562 250.405 63.1263 250.351 63.0305 250.253C62.9347 250.156 62.8809 250.024 62.8809 249.886C62.8809 249.748 62.9347 249.616 63.0305 249.519C63.1263 249.422 63.2562 249.367 63.3916 249.367H242.155C242.291 249.367 242.42 249.422 242.516 249.519C242.612 249.616 242.666 249.748 242.666 249.886C242.666 250.024 242.612 250.156 242.516 250.253C242.42 250.351 242.291 250.405 242.155 250.405Z" fill="#CCCCCC"/>
<path d="M242.155 262.866H63.3916C63.2562 262.866 63.1263 262.812 63.0305 262.714C62.9347 262.617 62.8809 262.485 62.8809 262.347C62.8809 262.209 62.9347 262.077 63.0305 261.98C63.1263 261.883 63.2562 261.828 63.3916 261.828H242.155C242.291 261.828 242.42 261.883 242.516 261.98C242.612 262.077 242.666 262.209 242.666 262.347C242.666 262.485 242.612 262.617 242.516 262.714C242.42 262.812 242.291 262.866 242.155 262.866Z" fill="#CCCCCC"/>
<path d="M370.72 222.613L329.061 275.171L199.526 169.071C184.768 156.983 182.104 135.358 193.59 120.868C205.075 106.378 226.427 104.424 241.186 116.513L370.72 222.613Z" fill="#F2F2F2"/>
<path d="M332.563 277.373C332.138 277.909 331.521 278.251 330.848 278.325C330.174 278.398 329.5 278.197 328.972 277.765L195.937 168.799C188.712 162.88 184.095 154.287 183.103 144.908C182.11 135.53 184.823 126.135 190.645 118.79C196.467 111.445 204.921 106.752 214.147 105.743C223.372 104.734 232.615 107.492 239.84 113.41L372.875 222.377C373.136 222.591 373.354 222.855 373.515 223.154C373.675 223.453 373.777 223.782 373.813 224.121C373.849 224.46 373.819 224.803 373.724 225.13C373.63 225.458 373.473 225.763 373.262 226.028C373.052 226.294 372.792 226.515 372.497 226.678C372.203 226.841 371.88 226.944 371.546 226.981C371.213 227.017 370.875 226.986 370.553 226.89C370.232 226.794 369.931 226.634 369.67 226.42L236.635 117.453C233.58 114.949 230.07 113.081 226.304 111.956C222.539 110.831 218.592 110.471 214.69 110.897C210.787 111.323 207.006 112.526 203.561 114.438C200.116 116.35 197.076 118.933 194.613 122.04C192.151 125.147 190.315 128.716 189.209 132.544C188.104 136.373 187.752 140.385 188.172 144.352C188.593 148.318 189.778 152.162 191.66 155.663C193.543 159.164 196.085 162.254 199.142 164.756L332.177 273.723C332.704 274.155 333.041 274.782 333.113 275.466C333.186 276.151 332.988 276.837 332.563 277.373Z" fill="#CCCCCC"/>
<path d="M361.107 234.742L221.907 120.726C221.855 120.683 221.812 120.63 221.779 120.57C221.747 120.51 221.727 120.445 221.72 120.377C221.713 120.309 221.719 120.24 221.738 120.175C221.756 120.11 221.788 120.049 221.83 119.995C221.872 119.942 221.924 119.898 221.983 119.866C222.042 119.833 222.106 119.812 222.173 119.805C222.24 119.798 222.307 119.804 222.371 119.823C222.436 119.842 222.496 119.874 222.548 119.917L361.748 233.933C361.8 233.976 361.843 234.029 361.876 234.088C361.908 234.148 361.928 234.214 361.935 234.282C361.943 234.35 361.937 234.418 361.918 234.484C361.899 234.549 361.867 234.61 361.825 234.663C361.783 234.717 361.731 234.761 361.672 234.793C361.613 234.826 361.549 234.847 361.482 234.854C361.415 234.861 361.348 234.855 361.283 234.836C361.219 234.816 361.159 234.784 361.107 234.742Z" fill="#CCCCCC"/>
<path d="M353.416 244.445L214.216 130.429C214.111 130.342 214.044 130.217 214.029 130.08C214.015 129.943 214.055 129.806 214.139 129.699C214.224 129.592 214.348 129.523 214.482 129.509C214.617 129.494 214.752 129.534 214.857 129.62L354.057 243.636C354.109 243.679 354.152 243.732 354.185 243.791C354.217 243.851 354.237 243.917 354.244 243.985C354.252 244.053 354.246 244.121 354.227 244.187C354.208 244.252 354.177 244.313 354.134 244.367C354.092 244.42 354.04 244.464 353.981 244.497C353.922 244.529 353.858 244.55 353.791 244.557C353.724 244.564 353.657 244.558 353.592 244.539C353.528 244.52 353.468 244.488 353.416 244.445Z" fill="#CCCCCC"/>
<path d="M345.725 254.148L206.525 140.132C206.42 140.045 206.352 139.92 206.338 139.783C206.323 139.646 206.363 139.509 206.448 139.402C206.533 139.294 206.656 139.226 206.791 139.211C206.926 139.197 207.061 139.237 207.166 139.323L346.366 253.339C346.418 253.382 346.461 253.435 346.493 253.495C346.526 253.555 346.546 253.62 346.553 253.688C346.56 253.756 346.554 253.824 346.535 253.89C346.516 253.955 346.485 254.016 346.443 254.069C346.401 254.122 346.349 254.167 346.29 254.199C346.231 254.232 346.167 254.252 346.1 254.26C346.033 254.267 345.966 254.261 345.901 254.242C345.837 254.222 345.777 254.191 345.725 254.148Z" fill="#CCCCCC"/>
<path d="M338.034 263.851L198.834 149.835C198.782 149.792 198.739 149.739 198.706 149.679C198.674 149.619 198.654 149.554 198.647 149.486C198.64 149.418 198.646 149.35 198.665 149.284C198.684 149.219 198.715 149.158 198.757 149.105C198.799 149.052 198.851 149.007 198.91 148.975C198.969 148.942 199.033 148.922 199.1 148.914C199.167 148.907 199.234 148.913 199.299 148.932C199.363 148.951 199.423 148.983 199.475 149.026L338.675 263.042C338.727 263.085 338.771 263.138 338.803 263.198C338.835 263.257 338.855 263.323 338.863 263.391C338.87 263.459 338.864 263.528 338.845 263.593C338.826 263.658 338.795 263.72 338.752 263.773C338.71 263.826 338.658 263.87 338.599 263.903C338.54 263.935 338.476 263.956 338.409 263.963C338.342 263.97 338.275 263.964 338.21 263.945C338.146 263.926 338.086 263.894 338.034 263.851Z" fill="#CCCCCC"/>
<path d="M379.489 280H0.510753C0.375293 280 0.24538 279.945 0.149596 279.848C0.0538109 279.751 0 279.619 0 279.481C0 279.343 0.0538109 279.211 0.149596 279.114C0.24538 279.016 0.375293 278.962 0.510753 278.962H379.489C379.625 278.962 379.755 279.016 379.85 279.114C379.946 279.211 380 279.343 380 279.481C380 279.619 379.946 279.751 379.85 279.848C379.755 279.945 379.625 280 379.489 280Z" fill="#CCCCCC"/>
<path d="M172.676 202.813L166.837 202.812L164.06 179.917L172.678 179.919L172.676 202.813Z" fill="#FFB8B8"/>
<path d="M162.666 201.116H173.927V208.324H155.576C155.575 207.378 155.759 206.44 156.115 205.566C156.472 204.691 156.994 203.897 157.652 203.228C158.311 202.558 159.092 202.027 159.952 201.665C160.813 201.303 161.735 201.116 162.666 201.116Z" fill="#2F2E41"/>
<path d="M113.022 202.813L107.184 202.812L104.407 179.917L113.024 179.919L113.022 202.813Z" fill="#FFB8B8"/>
<path d="M103.013 201.116H114.274V208.324H95.9224C95.9224 207.378 96.1058 206.44 96.4621 205.566C96.8184 204.691 97.3407 203.897 97.999 203.228C98.6574 202.558 99.4391 202.027 100.299 201.665C101.16 201.303 102.081 201.116 103.013 201.116Z" fill="#2F2E41"/>
<path d="M132.525 32.9867V30.3906C132.525 25.9497 134.261 21.6907 137.35 18.5506C140.439 15.4104 144.629 13.6462 148.997 13.6462C153.366 13.6462 157.555 15.4104 160.645 18.5506C163.734 21.6907 165.469 25.9497 165.469 30.3906V32.9867C165.469 36.1882 164.218 39.2587 161.991 41.5225C159.764 43.7864 156.743 45.0582 153.594 45.0582H144.4C142.841 45.0582 141.297 44.7459 139.856 44.1393C138.415 43.5327 137.106 42.6435 136.004 41.5225C134.901 40.4016 134.026 39.0708 133.429 37.6062C132.833 36.1416 132.525 34.5719 132.525 32.9867Z" fill="#2F2E41"/>
<path d="M148.997 45.9514C155.925 45.9514 161.542 40.2421 161.542 33.1992C161.542 26.1564 155.925 20.447 148.997 20.447C142.069 20.447 136.453 26.1564 136.453 33.1992C136.453 40.2421 142.069 45.9514 148.997 45.9514Z" fill="#FFB8B8"/>
<path d="M80.7626 77.027C81.2716 76.5383 81.8799 76.1691 82.5446 75.9452C83.2092 75.7214 83.914 75.6485 84.6094 75.7315C85.3048 75.8145 85.9738 76.0515 86.5694 76.4258C87.1649 76.8001 87.6724 77.3026 88.0563 77.8979L98.81 75.8301L101.64 82.1667L86.4133 84.8701C85.3868 85.4593 84.1834 85.6452 83.0311 85.3927C81.8787 85.1402 80.8575 84.4667 80.161 83.4999C79.4645 82.5332 79.141 81.3403 79.2519 80.1473C79.3628 78.9543 79.9003 77.844 80.7626 77.027Z" fill="#FFB8B8"/>
<path d="M139.358 54.1989L121.724 66.0079L91.968 75.6669C91.5736 75.7957 91.2353 76.0595 91.0107 76.4134C90.786 76.7673 90.689 77.1894 90.7361 77.6078L91.3852 83.2913C91.414 83.5429 91.4942 83.7855 91.6206 84.0037C91.7471 84.2219 91.917 84.4109 92.1194 84.5584C92.3219 84.706 92.5524 84.8089 92.7963 84.8606C93.0402 84.9123 93.292 84.9116 93.5356 84.8586L121.54 78.7565C122.895 78.4628 124.177 77.8893 125.305 77.0714L145.116 62.7429C145.834 62.2207 146.407 61.5184 146.779 60.7043C147.152 59.8903 147.31 58.9922 147.24 58.0974C147.167 57.2013 146.866 56.3399 146.367 55.598C145.867 54.856 145.187 54.2589 144.391 53.8656C143.596 53.4723 142.714 53.2961 141.831 53.3546C140.949 53.413 140.096 53.704 139.358 54.1989Z" fill="#CCCCCC"/>
<path d="M166.941 196.316C166.493 196.316 166.054 196.183 165.679 195.934C165.304 195.685 165.008 195.331 164.828 194.913L138.059 127.676C137.997 127.53 137.892 127.407 137.759 127.324C137.625 127.24 137.47 127.2 137.314 127.209C137.158 127.218 137.008 127.276 136.885 127.374C136.762 127.472 136.671 127.606 136.625 127.758L114.786 193.216C114.694 193.521 114.541 193.803 114.338 194.046C114.134 194.288 113.884 194.486 113.603 194.626C113.321 194.767 113.015 194.847 112.702 194.863C112.388 194.879 112.075 194.829 111.782 194.717L104.459 191.926C104.061 191.775 103.712 191.516 103.451 191.177C103.19 190.837 103.026 190.43 102.979 190.002C99.6843 160.827 128.414 87.184 128.705 86.4437L128.785 86.2386L154.975 92.1279L155.03 92.1882C165.479 103.776 174.067 176.861 175.683 191.395C175.743 191.92 175.626 192.45 175.35 192.898C175.074 193.346 174.656 193.685 174.166 193.859L167.701 196.183C167.457 196.271 167.2 196.316 166.941 196.316Z" fill="#2F2E41"/>
<path d="M144.376 94.4983C138.03 94.4983 130.956 93.2122 128.778 87.904L128.728 87.7821L128.796 87.669C130.515 84.8022 132.787 79.9118 131.566 78.9939C129.16 77.186 127.993 74.212 128.097 70.1542C128.322 61.3454 134.226 53.5247 142.789 50.6931C145.179 49.9156 147.612 49.2789 150.074 48.7864C151.869 48.4182 153.722 48.4587 155.5 48.905C157.278 49.3513 158.937 50.1924 160.357 51.3677C161.795 52.5508 162.957 54.043 163.76 55.737C164.564 57.4311 164.988 59.2849 165.002 61.1655C165.092 70.5791 163.667 83.6903 156.365 92.6917C156.022 93.1093 155.546 93.3909 155.02 93.4867C151.507 94.1327 147.946 94.4711 144.376 94.4983Z" fill="#CCCCCC"/>
<path d="M142.015 94.1458C142.361 92.8865 143.181 91.8167 144.298 91.1688C145.415 90.5209 146.738 90.3473 147.98 90.6857C148.234 90.7577 148.481 90.8509 148.72 90.9641L156.885 83.4103L162.563 87.2993L150.887 97.8033C150.359 98.7696 149.529 99.529 148.529 99.9605C147.528 100.392 146.414 100.471 145.364 100.185C144.752 100.014 144.18 99.7228 143.68 99.3263C143.18 98.9299 142.762 98.4367 142.451 97.8751C142.139 97.3136 141.94 96.6949 141.866 96.0547C141.791 95.4146 141.842 94.7658 142.015 94.1458Z" fill="#FFB8B8"/>
<path d="M155.592 94.2417C155.062 94.242 154.548 94.0558 154.138 93.7146L150.918 91.0397C150.65 90.8167 150.434 90.5349 150.288 90.2154C150.142 89.8958 150.069 89.5468 150.074 89.1945C150.08 88.8421 150.164 88.4956 150.319 88.1808C150.475 87.866 150.699 87.5911 150.974 87.3767L164.479 76.8473C164.639 76.7219 164.744 76.5373 164.771 76.3337C164.798 76.1301 164.745 75.9239 164.624 75.7597L156.288 64.5572C155.32 63.26 154.834 61.6564 154.917 60.0301C155 58.4038 155.646 56.8598 156.741 55.6714C157.895 54.405 159.475 53.6257 161.167 53.4881C162.859 53.3505 164.541 53.8647 165.878 54.9286L165.93 54.9852L174.635 67.655C175.576 68.4052 176.334 69.3664 176.849 70.4636C177.365 71.5608 177.623 72.7642 177.606 73.98C177.588 75.1957 177.294 76.3907 176.746 77.4719C176.199 78.553 175.414 79.4908 174.451 80.2122L156.96 93.7835C156.564 94.0811 156.084 94.2417 155.592 94.2417Z" fill="#CCCCCC"/>
<path d="M137.885 29.6119V23.2847L148.997 18.3523L159.592 23.2847V29.6119C159.592 29.8873 159.485 30.1514 159.293 30.3461C159.102 30.5409 158.842 30.6503 158.571 30.6503H138.907C138.636 30.6503 138.376 30.5409 138.185 30.3461C137.993 30.1514 137.885 29.8873 137.885 29.6119Z" fill="#2F2E41"/>
<path d="M148.487 14.4856C146.853 9.16973 150.285 3.07747 155.357 0.973307C160.43 -1.13086 166.498 0.340018 170.779 3.81642C175.059 7.29282 177.714 12.4998 179.122 17.8823C180.529 23.2648 180.796 28.8774 181.056 34.4404C187.288 35.6042 191.527 43.1186 189.368 49.1746C187.209 55.2307 179.218 58.2393 173.7 55.074C168.181 51.9087 166.582 43.3999 170.565 38.39C172.45 36.0195 173.503 33.0775 173.557 30.03C173.611 26.9826 172.664 24.0039 170.864 21.5657C169.065 19.1275 166.517 17.3692 163.624 16.5693C160.731 15.7694 157.658 15.9735 154.892 17.1495C151.82 18.4552 147.966 15.0626 148.487 14.4856Z" fill="#2F2E41"/>
<path d="M78.4589 52.4827C70.9971 52.4329 63.6286 50.7924 56.8294 47.6671C56.4247 47.4838 56.0812 47.1847 55.8407 46.8064C55.6002 46.428 55.4731 45.9867 55.475 45.5363V26.6279C55.4757 26.0085 55.718 25.4146 56.1489 24.9766C56.5798 24.5386 57.164 24.2922 57.7734 24.2915H99.1443C99.7537 24.2922 100.338 24.5386 100.769 24.9766C101.2 25.4146 101.442 26.0085 101.443 26.6279V45.5363C101.445 45.9868 101.318 46.428 101.077 46.8064C100.837 47.1847 100.493 47.4838 100.088 47.6672C93.2891 50.7924 85.9206 52.4329 78.4589 52.4827Z" fill="#4169E2"/>
<path d="M78.4532 37.1646C78.1465 37.1648 77.8428 37.1028 77.56 36.982L44.7534 22.9118C44.3303 22.7304 43.9704 22.4243 43.7201 22.033C43.4697 21.6417 43.3404 21.1831 43.3488 20.7164C43.3572 20.2497 43.503 19.7963 43.7673 19.4146C44.0316 19.0329 44.4023 18.7404 44.8316 18.5749L77.6386 5.92301C78.1671 5.7183 78.7513 5.71956 79.2788 5.92656L111.646 18.5784C112.073 18.7453 112.441 19.0378 112.704 19.4186C112.966 19.7994 113.111 20.2511 113.119 20.716C113.128 21.1808 113 21.6377 112.751 22.0281C112.503 22.4185 112.146 22.7247 111.725 22.9075L79.3572 36.9775C79.0713 37.1012 78.7638 37.1649 78.4532 37.1646Z" fill="#4169E2"/>
<path d="M59.3056 48.9537C60.9981 48.9537 62.3702 47.559 62.3702 45.8385C62.3702 44.118 60.9981 42.7233 59.3056 42.7233C57.6131 42.7233 56.2411 44.118 56.2411 45.8385C56.2411 47.559 57.6131 48.9537 59.3056 48.9537Z" fill="#3F3D56"/>
<path opacity="0.2" d="M111.837 20.9104L79.4689 34.9804C79.2165 35.0901 78.945 35.147 78.6706 35.1476C78.3962 35.1483 78.1244 35.0928 77.8715 34.9843L45.0649 20.9145C44.6529 20.742 44.3092 20.4349 44.088 20.0417C43.9434 20.2966 43.8537 20.58 43.8251 20.8729C43.7964 21.1658 43.8293 21.4616 43.9217 21.7406C44.0141 22.0195 44.1638 22.2753 44.3609 22.491C44.558 22.7066 44.798 22.8772 45.0649 22.9913L77.8715 37.0611C78.1244 37.1696 78.3962 37.2251 78.6706 37.2245C78.945 37.2238 79.2165 37.1669 79.4689 37.0572L111.837 22.9872C112.102 22.872 112.341 22.701 112.537 22.4852C112.732 22.2695 112.881 22.014 112.972 21.7356C113.064 21.4572 113.096 21.1623 113.067 20.8703C113.038 20.5783 112.949 20.2959 112.804 20.0416C112.585 20.4317 112.245 20.7371 111.837 20.9104Z" fill="black"/>
<path d="M59.5631 45.8264C59.6986 45.8264 59.8285 45.7717 59.9243 45.6743C60.0201 45.5769 60.0739 45.4449 60.0739 45.3072V27.9338L76.9191 21.6955C77.0546 21.6976 77.1853 21.6448 77.2825 21.5489C77.3797 21.453 77.4355 21.3217 77.4375 21.184C77.4395 21.0463 77.3876 20.9135 77.2933 20.8146C77.1989 20.7158 77.0698 20.6592 76.9343 20.6571L60.0891 26.8954C59.9535 26.8923 59.8188 26.9171 59.6929 26.9684C59.5671 27.0198 59.4528 27.0965 59.357 27.1941C59.2602 27.2904 59.1833 27.4056 59.131 27.5326C59.0787 27.6597 59.052 27.7961 59.0524 27.9338V45.3072C59.0524 45.4449 59.1062 45.5769 59.202 45.6743C59.2978 45.7717 59.4277 45.8264 59.5631 45.8264Z" fill="#3F3D56"/>
</g>
<defs>
<clipPath id="clip0_17_826">
<rect width="380" height="280" fill="white"/>
</clipPath>
</defs>
</svg>
