<svg width="380" height="280" viewBox="0 0 380 280" fill="none" xmlns="http://www.w3.org/2000/svg">
<g clip-path="url(#clip0_17_761)">
<path d="M379.451 277.853H0.549133C0.403494 277.853 0.263819 277.794 0.160837 277.689C0.0578545 277.584 0 277.441 0 277.293C0 277.144 0.0578545 277.002 0.160837 276.896C0.263819 276.791 0.403494 276.732 0.549133 276.732H379.451C379.596 276.732 379.736 276.791 379.839 276.896C379.942 277.002 380 277.144 380 277.293C380 277.441 379.942 277.584 379.839 277.689C379.736 277.794 379.596 277.853 379.451 277.853Z" fill="#CCCCCC"/>
<path d="M341.947 180.164H119C118.053 180.164 117.145 180.547 116.476 181.23C115.806 181.913 115.43 182.839 115.43 183.804C115.43 184.77 115.806 185.696 116.476 186.379C117.145 187.062 118.053 187.445 119 187.445H125.315V274.547C125.315 275.512 125.691 276.439 126.36 277.121C127.029 277.804 127.937 278.188 128.884 278.188C129.831 278.188 130.738 277.804 131.408 277.121C132.077 276.439 132.453 275.512 132.453 274.547L132.508 187.445H327.945V274.547C327.945 275.512 328.321 276.439 328.99 277.121C329.659 277.804 330.567 278.188 331.514 278.188C332.461 278.188 333.368 277.804 334.038 277.121C334.707 276.439 335.083 275.512 335.083 274.547V189.365L336.122 187.445H341.947C342.894 187.445 343.802 187.062 344.471 186.379C345.141 185.696 345.517 184.77 345.517 183.804C345.517 182.839 345.141 181.913 344.471 181.23C343.802 180.547 342.894 180.164 341.947 180.164Z" fill="#CCCCCC"/>
<path d="M242.604 182.069H175.07C173.763 182.068 172.509 181.537 171.584 180.594C170.66 179.651 170.14 178.372 170.138 177.038V139.111C170.14 137.778 170.66 136.499 171.584 135.556C172.509 134.612 173.763 134.082 175.07 134.08H242.604C243.911 134.082 245.165 134.612 246.09 135.556C247.014 136.499 247.534 137.778 247.536 139.111V177.038C247.534 178.372 247.014 179.651 246.09 180.594C245.165 181.537 243.911 182.068 242.604 182.069Z" fill="#3F3D56"/>
<path d="M242.603 137.953H175.071C174.769 137.953 174.481 138.076 174.268 138.293C174.055 138.51 173.935 138.805 173.934 139.112V177.039C173.935 177.346 174.055 177.641 174.268 177.858C174.481 178.075 174.769 178.198 175.071 178.198H242.603C242.905 178.198 243.193 178.075 243.406 177.858C243.619 177.641 243.739 177.346 243.74 177.039V139.112C243.739 138.805 243.619 138.51 243.406 138.293C243.193 138.076 242.905 137.953 242.603 137.953Z" fill="white"/>
<path d="M214.597 164.805C214.597 164.805 206.512 162.904 202.066 166.388C197.619 169.872 207.725 177.79 207.725 177.79L214.597 164.805Z" fill="#2F2E41"/>
<path d="M209.233 161.214C213.445 161.214 216.859 157.731 216.859 153.435C216.859 149.139 213.445 145.657 209.233 145.657C205.021 145.657 201.607 149.139 201.607 153.435C201.607 157.731 205.021 161.214 209.233 161.214Z" fill="#A0616A"/>
<path d="M203.336 142.516C203.845 141.636 204.582 140.916 205.466 140.436C206.351 139.956 207.348 139.734 208.348 139.796C209.394 139.93 210.414 140.221 211.376 140.661L216.362 142.645C217.652 143.158 219.064 143.787 219.624 145.078C220.144 146.277 219.756 147.662 219.364 148.91L217.499 154.844C217.292 153.501 216.937 152.186 216.442 150.924C215.938 149.654 215.027 148.595 213.858 147.92C212.563 147.242 211.037 147.256 209.583 147.328C207.525 147.429 205.286 147.696 203.823 149.177C203.047 150.018 202.521 151.067 202.305 152.202C202.094 153.33 201.987 154.476 201.987 155.625C201.143 154.145 200.432 152.589 199.862 150.978C199.394 149.779 199.127 148.507 199.073 147.217C199.024 145.916 199.447 144.642 200.261 143.64C200.675 143.15 201.214 142.787 201.819 142.593C202.423 142.399 203.069 142.381 203.683 142.541L203.336 142.516Z" fill="#2F2E41"/>
<path d="M227.442 171.55C227.37 171.287 227.224 171.052 227.022 170.873C226.819 170.695 226.57 170.581 226.305 170.547C226.287 170.534 226.269 170.523 226.25 170.513L214.866 164.006C214.541 163.82 214.158 163.769 213.797 163.864C213.436 163.958 213.125 164.191 212.928 164.514L209.815 169.656L205.125 164.873L205.05 164.797C204.81 164.551 204.492 164.4 204.153 164.37C203.814 164.34 203.475 164.432 203.196 164.631L193.84 171.314C193.824 171.314 193.807 171.32 193.791 171.32C193.343 171.396 192.934 171.626 192.632 171.971C192.329 172.316 192.151 172.756 192.127 173.219L191.885 178.198H229.248L227.442 171.55Z" fill="#4169E2"/>
<path d="M248.295 177.425H241.086C241.086 177.22 241.006 177.023 240.864 176.878C240.722 176.733 240.529 176.651 240.327 176.651H238.051C237.85 176.651 237.657 176.733 237.514 176.878C237.372 177.023 237.292 177.22 237.292 177.425H235.016C235.016 177.22 234.936 177.023 234.793 176.878C234.651 176.733 234.458 176.651 234.257 176.651H231.98C231.779 176.651 231.586 176.733 231.444 176.878C231.302 177.023 231.222 177.22 231.222 177.425H228.945C228.945 177.22 228.865 177.023 228.723 176.878C228.581 176.733 228.388 176.651 228.186 176.651H225.91C225.709 176.651 225.516 176.733 225.373 176.878C225.231 177.023 225.151 177.22 225.151 177.425H222.875C222.875 177.22 222.795 177.023 222.653 176.878C222.51 176.733 222.317 176.651 222.116 176.651H219.84C219.638 176.651 219.445 176.733 219.303 176.878C219.161 177.023 219.081 177.22 219.081 177.425H216.804C216.804 177.22 216.724 177.023 216.582 176.878C216.44 176.733 216.247 176.651 216.046 176.651H213.769C213.568 176.651 213.375 176.733 213.233 176.878C213.09 177.023 213.01 177.22 213.01 177.425H210.734C210.734 177.22 210.654 177.023 210.512 176.878C210.369 176.733 210.176 176.651 209.975 176.651H207.699C207.498 176.651 207.305 176.733 207.162 176.878C207.02 177.023 206.94 177.22 206.94 177.425H204.664C204.664 177.22 204.584 177.023 204.441 176.878C204.299 176.733 204.106 176.651 203.905 176.651H201.628C201.427 176.651 201.234 176.733 201.092 176.878C200.95 177.023 200.87 177.22 200.87 177.425H198.593C198.593 177.22 198.513 177.023 198.371 176.878C198.229 176.733 198.036 176.651 197.834 176.651H195.558C195.357 176.651 195.164 176.733 195.021 176.878C194.879 177.023 194.799 177.22 194.799 177.425H192.523C192.523 177.22 192.443 177.023 192.301 176.878C192.158 176.733 191.965 176.651 191.764 176.651H189.488C189.286 176.651 189.093 176.733 188.951 176.878C188.809 177.023 188.729 177.22 188.729 177.425H186.452C186.452 177.22 186.372 177.023 186.23 176.878C186.088 176.733 185.895 176.651 185.694 176.651H183.417C183.216 176.651 183.023 176.733 182.881 176.878C182.738 177.023 182.658 177.22 182.658 177.425H180.382C180.382 177.22 180.302 177.023 180.16 176.878C180.017 176.733 179.824 176.651 179.623 176.651H177.347C177.145 176.651 176.952 176.733 176.81 176.878C176.668 177.023 176.588 177.22 176.588 177.425H169.379C168.776 177.426 168.198 177.671 167.772 178.106C167.346 178.542 167.106 179.132 167.106 179.747C167.106 180.362 167.346 180.952 167.772 181.388C168.198 181.823 168.776 182.068 169.379 182.069H248.295C248.898 182.069 249.477 181.824 249.904 181.389C250.331 180.953 250.571 180.363 250.571 179.747C250.571 179.131 250.331 178.541 249.904 178.105C249.477 177.67 248.898 177.425 248.295 177.425Z" fill="#3F3D56"/>
<path d="M157.645 163.94V179.358H119.775C118.761 179.394 117.749 179.222 116.801 178.851C115.854 178.479 114.989 177.917 114.259 177.198C113.528 176.478 112.948 175.616 112.551 174.663C112.154 173.71 111.95 172.685 111.95 171.649C111.95 170.614 112.154 169.589 112.551 168.636C112.948 167.682 113.528 166.82 114.259 166.101C114.989 165.381 115.854 164.819 116.801 164.448C117.749 164.077 118.761 163.904 119.775 163.94H157.645Z" fill="#F2F2F2"/>
<path d="M158.575 179.24C158.575 179.397 158.513 179.548 158.404 179.659C158.295 179.77 158.148 179.833 157.993 179.833H119.101C116.988 179.833 114.962 178.977 113.469 177.453C111.975 175.93 111.136 173.863 111.136 171.709C111.136 169.554 111.975 167.488 113.469 165.964C114.962 164.44 116.988 163.584 119.101 163.584H157.993C158.148 163.584 158.295 163.647 158.404 163.758C158.514 163.869 158.575 164.02 158.575 164.177C158.575 164.335 158.514 164.486 158.404 164.597C158.295 164.708 158.148 164.77 157.993 164.77H119.101C117.298 164.772 115.569 165.504 114.295 166.805C113.021 168.106 112.305 169.87 112.305 171.709C112.305 173.548 113.021 175.312 114.295 176.613C115.569 177.913 117.298 178.645 119.101 178.647H157.993C158.148 178.647 158.295 178.709 158.404 178.821C158.513 178.932 158.575 179.083 158.575 179.24Z" fill="#4169E2"/>
<path d="M157.645 167.498H116.95C116.934 167.498 116.919 167.495 116.905 167.49C116.891 167.484 116.878 167.475 116.867 167.464C116.856 167.453 116.847 167.44 116.841 167.425C116.836 167.411 116.833 167.395 116.833 167.38C116.833 167.364 116.836 167.349 116.841 167.334C116.847 167.32 116.856 167.307 116.867 167.296C116.878 167.285 116.891 167.276 116.905 167.27C116.919 167.264 116.934 167.261 116.95 167.261H157.645C157.675 167.261 157.705 167.274 157.726 167.296C157.748 167.318 157.76 167.348 157.76 167.38C157.76 167.411 157.748 167.441 157.726 167.463C157.705 167.486 157.675 167.498 157.645 167.498Z" fill="#CCCCCC"/>
<path d="M157.645 170.345H116.95C116.934 170.345 116.919 170.342 116.905 170.336C116.891 170.33 116.878 170.321 116.867 170.31C116.856 170.299 116.847 170.286 116.841 170.272C116.836 170.257 116.833 170.242 116.833 170.226C116.833 170.211 116.836 170.195 116.841 170.181C116.847 170.166 116.856 170.153 116.867 170.142C116.878 170.131 116.891 170.122 116.905 170.116C116.919 170.11 116.934 170.107 116.95 170.108H157.645C157.675 170.108 157.705 170.12 157.726 170.143C157.748 170.165 157.76 170.195 157.76 170.226C157.76 170.257 157.748 170.287 157.726 170.31C157.705 170.332 157.675 170.345 157.645 170.345Z" fill="#CCCCCC"/>
<path d="M157.645 173.191H116.95C116.934 173.191 116.919 173.188 116.905 173.182C116.891 173.176 116.878 173.168 116.867 173.157C116.856 173.146 116.847 173.133 116.841 173.118C116.836 173.104 116.833 173.088 116.833 173.073C116.833 173.057 116.836 173.041 116.841 173.027C116.847 173.013 116.856 172.999 116.867 172.988C116.878 172.977 116.891 172.969 116.905 172.963C116.919 172.957 116.934 172.954 116.95 172.954H157.645C157.675 172.954 157.705 172.967 157.726 172.989C157.748 173.011 157.76 173.041 157.76 173.073C157.76 173.104 157.748 173.134 157.726 173.156C157.705 173.178 157.675 173.191 157.645 173.191Z" fill="#CCCCCC"/>
<path d="M157.645 176.038H116.95C116.934 176.038 116.919 176.035 116.905 176.029C116.891 176.023 116.878 176.014 116.867 176.003C116.856 175.992 116.847 175.979 116.841 175.965C116.836 175.95 116.833 175.935 116.833 175.919C116.833 175.903 116.836 175.888 116.841 175.873C116.847 175.859 116.856 175.846 116.867 175.835C116.878 175.824 116.891 175.815 116.905 175.809C116.919 175.803 116.934 175.8 116.95 175.8H157.645C157.675 175.801 157.705 175.813 157.726 175.835C157.748 175.858 157.76 175.888 157.76 175.919C157.76 175.95 157.748 175.98 157.726 176.003C157.705 176.025 157.675 176.037 157.645 176.038Z" fill="#CCCCCC"/>
<path d="M150.506 147.696V163.115H112.636C111.622 163.151 110.61 162.978 109.663 162.607C108.715 162.235 107.85 161.673 107.12 160.954C106.39 160.235 105.809 159.372 105.412 158.419C105.016 157.466 104.811 156.441 104.811 155.405C104.811 154.37 105.016 153.345 105.412 152.392C105.809 151.438 106.39 150.576 107.12 149.857C107.85 149.138 108.715 148.575 109.663 148.204C110.61 147.833 111.622 147.66 112.636 147.696H150.506Z" fill="#F2F2F2"/>
<path d="M151.436 162.996C151.436 163.153 151.375 163.304 151.266 163.415C151.157 163.526 151.009 163.589 150.855 163.589H111.962C110.916 163.589 109.88 163.379 108.914 162.97C107.948 162.562 107.07 161.964 106.33 161.209C105.591 160.455 105.004 159.559 104.604 158.574C104.203 157.588 103.997 156.532 103.997 155.465C103.997 154.398 104.203 153.341 104.604 152.356C105.004 151.37 105.591 150.474 106.33 149.72C107.07 148.966 107.948 148.367 108.914 147.959C109.88 147.551 110.916 147.34 111.962 147.34H150.855C151.009 147.34 151.157 147.403 151.266 147.514C151.375 147.625 151.436 147.776 151.436 147.933C151.436 148.091 151.375 148.242 151.266 148.353C151.157 148.464 151.009 148.526 150.855 148.526H111.962C110.159 148.528 108.43 149.26 107.156 150.561C105.882 151.862 105.166 153.626 105.166 155.465C105.166 157.304 105.882 159.068 107.156 160.369C108.43 161.669 110.159 162.401 111.962 162.403H150.855C151.009 162.403 151.157 162.465 151.266 162.577C151.375 162.688 151.436 162.839 151.436 162.996Z" fill="#3F3D56"/>
<path d="M150.506 151.254H109.811C109.796 151.254 109.78 151.251 109.766 151.246C109.752 151.24 109.739 151.231 109.728 151.22C109.717 151.209 109.709 151.196 109.703 151.181C109.697 151.167 109.694 151.151 109.694 151.136C109.694 151.12 109.697 151.105 109.703 151.09C109.709 151.076 109.717 151.063 109.728 151.052C109.739 151.041 109.752 151.032 109.766 151.026C109.78 151.02 109.796 151.017 109.811 151.017H150.506C150.537 151.017 150.566 151.03 150.588 151.052C150.609 151.074 150.621 151.104 150.621 151.136C150.621 151.167 150.609 151.197 150.588 151.219C150.566 151.241 150.537 151.254 150.506 151.254Z" fill="#CCCCCC"/>
<path d="M150.506 154.101H109.811C109.796 154.101 109.78 154.098 109.766 154.092C109.752 154.086 109.739 154.077 109.728 154.066C109.717 154.055 109.709 154.042 109.703 154.028C109.697 154.013 109.694 153.998 109.694 153.982C109.694 153.966 109.697 153.951 109.703 153.937C109.709 153.922 109.717 153.909 109.728 153.898C109.739 153.887 109.752 153.878 109.766 153.872C109.78 153.866 109.796 153.863 109.811 153.864H150.506C150.537 153.864 150.566 153.876 150.588 153.899C150.609 153.921 150.621 153.951 150.621 153.982C150.621 154.013 150.609 154.043 150.588 154.066C150.566 154.088 150.537 154.101 150.506 154.101Z" fill="#CCCCCC"/>
<path d="M150.506 156.947H109.811C109.796 156.947 109.78 156.944 109.766 156.938C109.752 156.932 109.739 156.924 109.728 156.913C109.717 156.902 109.709 156.889 109.703 156.874C109.697 156.86 109.694 156.844 109.694 156.829C109.694 156.813 109.697 156.797 109.703 156.783C109.709 156.769 109.717 156.755 109.728 156.744C109.739 156.733 109.752 156.725 109.766 156.719C109.78 156.713 109.796 156.71 109.811 156.71H150.506C150.537 156.71 150.566 156.723 150.588 156.745C150.609 156.767 150.621 156.797 150.621 156.829C150.621 156.86 150.609 156.89 150.588 156.912C150.566 156.934 150.537 156.947 150.506 156.947Z" fill="#CCCCCC"/>
<path d="M150.506 159.794H109.811C109.796 159.794 109.78 159.791 109.766 159.785C109.752 159.779 109.739 159.77 109.728 159.759C109.717 159.748 109.709 159.735 109.703 159.721C109.697 159.706 109.694 159.691 109.694 159.675C109.694 159.659 109.697 159.644 109.703 159.629C109.709 159.615 109.717 159.602 109.728 159.591C109.739 159.58 109.752 159.571 109.766 159.565C109.78 159.559 109.796 159.556 109.811 159.556H150.506C150.537 159.557 150.566 159.569 150.588 159.591C150.609 159.614 150.621 159.644 150.621 159.675C150.621 159.706 150.609 159.736 150.588 159.759C150.566 159.781 150.537 159.793 150.506 159.794Z" fill="#CCCCCC"/>
<path d="M194.56 234.162V220.719C194.56 220.124 194.328 219.554 193.916 219.134C193.504 218.714 192.946 218.478 192.363 218.478H142.392C141.809 218.478 141.251 218.714 140.839 219.134C140.427 219.554 140.195 220.124 140.195 220.719V234.162H194.56Z" fill="#CCCCCC"/>
<path d="M194.56 239.203H140.195V256.567H194.56V239.203Z" fill="#CCCCCC"/>
<path d="M140.195 261.609V275.052C140.195 275.646 140.427 276.216 140.839 276.636C141.251 277.056 141.809 277.292 142.392 277.293H192.363C192.946 277.292 193.504 277.056 193.916 276.636C194.328 276.216 194.56 275.646 194.56 275.052V261.609H140.195Z" fill="#CCCCCC"/>
<path d="M167.103 228.561C168.013 228.561 168.75 227.808 168.75 226.88C168.75 225.952 168.013 225.2 167.103 225.2C166.193 225.2 165.455 225.952 165.455 226.88C165.455 227.808 166.193 228.561 167.103 228.561Z" fill="white"/>
<path d="M167.103 250.966C168.013 250.966 168.75 250.214 168.75 249.286C168.75 248.358 168.013 247.605 167.103 247.605C166.193 247.605 165.455 248.358 165.455 249.286C165.455 250.214 166.193 250.966 167.103 250.966Z" fill="white"/>
<path d="M167.191 272.897C168.101 272.897 168.839 272.145 168.839 271.217C168.839 270.288 168.101 269.536 167.191 269.536C166.281 269.536 165.544 270.288 165.544 271.217C165.544 272.145 166.281 272.897 167.191 272.897Z" fill="white"/>
<path d="M188.396 203.15V218.568H150.527C149.512 218.604 148.501 218.431 147.553 218.06C146.605 217.689 145.74 217.127 145.01 216.408C144.28 215.688 143.699 214.826 143.302 213.873C142.906 212.92 142.701 211.895 142.701 210.859C142.701 209.823 142.906 208.799 143.302 207.845C143.699 206.892 144.28 206.03 145.01 205.311C145.74 204.591 146.605 204.029 147.553 203.658C148.501 203.287 149.512 203.114 150.527 203.15H188.396Z" fill="#F2F2F2"/>
<path d="M189.326 218.45C189.326 218.607 189.265 218.758 189.156 218.869C189.047 218.98 188.899 219.043 188.745 219.043H149.852C148.806 219.043 147.769 218.834 146.802 218.426C145.835 218.018 144.956 217.42 144.216 216.665C143.476 215.911 142.888 215.015 142.488 214.029C142.087 213.043 141.881 211.986 141.881 210.918C141.881 209.851 142.087 208.794 142.488 207.808C142.888 206.822 143.476 205.926 144.216 205.171C144.956 204.417 145.835 203.819 146.802 203.411C147.769 203.003 148.806 202.793 149.852 202.794H188.745C188.899 202.794 189.047 202.857 189.156 202.968C189.265 203.079 189.326 203.23 189.326 203.387C189.326 203.544 189.265 203.695 189.156 203.807C189.047 203.918 188.899 203.98 188.745 203.98H149.852C148.049 203.982 146.321 204.714 145.046 206.015C143.772 207.316 143.056 209.079 143.056 210.918C143.056 212.757 143.772 214.521 145.046 215.822C146.321 217.123 148.049 217.855 149.852 217.857H188.745C188.899 217.857 189.047 217.919 189.156 218.03C189.265 218.142 189.326 218.292 189.326 218.45Z" fill="#3F3D56"/>
<path d="M188.396 206.708H147.701C147.686 206.708 147.67 206.705 147.656 206.699C147.642 206.693 147.629 206.684 147.618 206.673C147.607 206.662 147.599 206.649 147.593 206.635C147.587 206.62 147.584 206.605 147.584 206.589C147.584 206.574 147.587 206.558 147.593 206.544C147.599 206.529 147.607 206.516 147.618 206.505C147.629 206.494 147.642 206.485 147.656 206.479C147.67 206.474 147.686 206.471 147.701 206.471H188.396C188.427 206.471 188.456 206.484 188.478 206.506C188.499 206.528 188.512 206.558 188.512 206.589C188.512 206.621 188.499 206.651 188.478 206.673C188.456 206.695 188.427 206.708 188.396 206.708Z" fill="#CCCCCC"/>
<path d="M188.396 209.554H147.701C147.686 209.555 147.67 209.552 147.656 209.546C147.642 209.54 147.629 209.531 147.618 209.52C147.607 209.509 147.599 209.496 147.593 209.481C147.587 209.467 147.584 209.452 147.584 209.436C147.584 209.42 147.587 209.405 147.593 209.39C147.599 209.376 147.607 209.363 147.618 209.352C147.629 209.341 147.642 209.332 147.656 209.326C147.67 209.32 147.686 209.317 147.701 209.317H188.396C188.427 209.317 188.456 209.33 188.478 209.352C188.499 209.374 188.512 209.405 188.512 209.436C188.512 209.467 188.499 209.497 188.478 209.519C188.456 209.542 188.427 209.554 188.396 209.554Z" fill="#CCCCCC"/>
<path d="M188.396 212.401H147.701C147.686 212.401 147.67 212.398 147.656 212.392C147.642 212.386 147.629 212.377 147.618 212.366C147.607 212.355 147.599 212.342 147.593 212.328C147.587 212.313 147.584 212.298 147.584 212.282C147.584 212.267 147.587 212.251 147.593 212.237C147.599 212.222 147.607 212.209 147.618 212.198C147.629 212.187 147.642 212.178 147.656 212.172C147.67 212.167 147.686 212.164 147.701 212.164H188.396C188.427 212.164 188.456 212.176 188.478 212.199C188.499 212.221 188.512 212.251 188.512 212.282C188.512 212.314 188.499 212.344 188.478 212.366C188.456 212.388 188.427 212.401 188.396 212.401Z" fill="#CCCCCC"/>
<path d="M188.396 215.247H147.701C147.686 215.247 147.67 215.244 147.656 215.238C147.642 215.233 147.629 215.224 147.618 215.213C147.607 215.202 147.599 215.189 147.593 215.174C147.587 215.16 147.584 215.144 147.584 215.129C147.584 215.113 147.587 215.097 147.593 215.083C147.599 215.069 147.607 215.055 147.618 215.044C147.629 215.033 147.642 215.025 147.656 215.019C147.67 215.013 147.686 215.01 147.701 215.01H188.396C188.427 215.01 188.456 215.023 188.478 215.045C188.499 215.067 188.512 215.097 188.512 215.129C188.512 215.16 188.499 215.19 188.478 215.212C188.456 215.234 188.427 215.247 188.396 215.247Z" fill="#CCCCCC"/>
<path d="M137.344 102.517V4.21304C137.345 3.09607 137.781 2.0252 138.555 1.23538C139.329 0.445556 140.379 0.00127053 141.474 0H217.655C218.75 0.00127792 219.799 0.445566 220.574 1.23539C221.348 2.02521 221.784 3.09607 221.785 4.21304V102.517C221.784 103.634 221.348 104.705 220.574 105.495C219.799 106.285 218.75 106.729 217.655 106.73H141.474C140.379 106.729 139.329 106.285 138.555 105.495C137.781 104.705 137.345 103.634 137.344 102.517ZM141.474 0.936233C140.622 0.937206 139.806 1.28275 139.204 1.89706C138.601 2.51137 138.263 3.34428 138.262 4.21304V102.517C138.263 103.386 138.601 104.219 139.204 104.833C139.806 105.448 140.622 105.793 141.474 105.794H217.655C218.506 105.793 219.323 105.448 219.925 104.833C220.527 104.219 220.866 103.386 220.867 102.517V4.21304C220.866 3.34428 220.527 2.51137 219.925 1.89706C219.323 1.28275 218.506 0.937207 217.655 0.936233H141.474Z" fill="#E6E6E6"/>
<path d="M183.836 45.1459V24.9609C183.837 24.4024 184.055 23.867 184.442 23.472C184.829 23.0771 185.354 22.855 185.901 22.8544H202.67C203.218 22.855 203.743 23.0771 204.13 23.472C204.517 23.867 204.735 24.4024 204.735 24.9609V45.1459C204.735 45.7044 204.517 46.2398 204.13 46.6347C203.743 47.0296 203.218 47.2518 202.67 47.2524H185.901C185.354 47.2518 184.829 47.0296 184.442 46.6347C184.055 46.2398 183.837 45.7044 183.836 45.1459Z" fill="#4169E2"/>
<path d="M151.253 54.5081V34.3232C151.254 33.7647 151.471 33.2292 151.859 32.8343C152.246 32.4394 152.771 32.2173 153.318 32.2167H170.087C170.635 32.2173 171.16 32.4394 171.547 32.8343C171.934 33.2292 172.152 33.7647 172.152 34.3232V54.5081C172.152 55.0666 171.934 55.6021 171.547 55.997C171.16 56.3919 170.635 56.614 170.087 56.6147H153.318C152.771 56.614 152.246 56.3919 151.859 55.997C151.471 55.6021 151.254 55.0666 151.253 54.5081Z" fill="#CCCCCC"/>
<path d="M177.411 83.0632V62.8782C177.412 62.3198 177.63 61.7843 178.017 61.3894C178.404 60.9945 178.929 60.7723 179.477 60.7717H196.245C196.793 60.7723 197.318 60.9945 197.705 61.3894C198.092 61.7843 198.31 62.3198 198.311 62.8782V83.0632C198.31 83.6217 198.092 84.1571 197.705 84.5521C197.318 84.947 196.793 85.1691 196.245 85.1697H179.477C178.929 85.1691 178.404 84.947 178.017 84.5521C177.63 84.1571 177.412 83.6217 177.411 83.0632Z" fill="#FF6584"/>
<path d="M277.621 175.347H260.368C260.204 175.347 260.042 175.386 259.895 175.459L255.541 177.683C255.397 177.745 255.275 177.849 255.189 177.981C255.103 178.114 255.058 178.269 255.058 178.428C255.058 178.587 255.103 178.742 255.189 178.875C255.275 179.007 255.397 179.111 255.541 179.173L259.895 181.397C260.042 181.471 260.204 181.509 260.368 181.509H277.621C277.859 181.523 278.093 181.441 278.272 181.28C278.45 181.12 278.56 180.894 278.577 180.652V176.204C278.56 175.962 278.45 175.736 278.272 175.576C278.093 175.415 277.859 175.333 277.621 175.347Z" fill="#3F3D56"/>
<path d="M278.577 176.204V180.652C278.56 180.894 278.45 181.12 278.272 181.28C278.093 181.441 277.859 181.523 277.621 181.509H274.184V175.347H277.621C277.859 175.333 278.093 175.415 278.272 175.576C278.45 175.736 278.56 175.962 278.577 176.204Z" fill="#4169E2"/>
<path d="M277.491 142.075C278.273 141.731 279.117 141.559 279.968 141.571C280.819 141.583 281.658 141.778 282.43 142.144C283.202 142.51 283.89 143.037 284.448 143.693C285.006 144.349 285.422 145.117 285.668 145.948C285.745 146.212 285.804 146.48 285.844 146.752L309.972 158.956L315.556 155.182L322.503 163.34L313.977 170.404C312.952 171.246 311.688 171.73 310.372 171.781C309.056 171.833 307.759 171.451 306.673 170.691L282.193 153.423C282.011 153.502 281.825 153.571 281.636 153.63C280.821 153.882 279.964 153.955 279.119 153.844C278.275 153.734 277.463 153.443 276.736 152.99C276.01 152.537 275.386 151.933 274.904 151.217C274.423 150.501 274.095 149.689 273.942 148.835C273.897 148.587 273.867 148.336 273.853 148.085C273.785 146.824 274.098 145.572 274.748 144.498C275.398 143.423 276.356 142.578 277.491 142.075Z" fill="#FFB8B8"/>
<path d="M327.745 217.217H301.381C301.381 217.99 274.21 218.617 274.21 218.617C273.784 218.945 273.395 219.321 273.052 219.738C272.02 220.993 271.456 222.58 271.459 224.219V225.339C271.46 227.196 272.183 228.976 273.47 230.289C274.757 231.602 276.503 232.34 278.323 232.341H327.745C329.565 232.339 331.31 231.601 332.597 230.288C333.884 228.975 334.608 227.195 334.609 225.339V224.219C334.607 222.362 333.883 220.583 332.596 219.271C331.309 217.958 329.565 217.219 327.745 217.217Z" fill="#3F3D56"/>
<path d="M299.067 279.114H306.206V232.062H299.067V279.114Z" fill="#3F3D56"/>
<path d="M278.749 278.858C278.749 279.645 289.567 279.163 302.911 279.163C316.256 279.163 327.073 279.645 327.073 278.858C327.073 278.071 316.256 271.832 302.911 271.832C289.567 271.832 278.749 278.071 278.749 278.858Z" fill="#3F3D56"/>
<path d="M285.194 273.344L278.462 273.343L275.259 255.532L285.195 255.533L285.194 273.344Z" fill="#FFB8B8"/>
<path d="M286.911 280L265.203 279.999V279.719C265.203 278.587 265.422 277.466 265.847 276.421C266.271 275.375 266.894 274.425 267.678 273.625C268.463 272.824 269.394 272.19 270.419 271.757C271.444 271.323 272.543 271.101 273.653 271.101H273.653L286.911 271.101L286.911 280Z" fill="#2F2E41"/>
<path d="M275.125 262.299L261.703 231.599C260.583 229.011 260.459 226.088 261.356 223.412C262.254 220.735 264.107 218.502 266.546 217.156L295.657 201.233L308.942 200.08L321.195 198.944L321.284 199.097C321.397 199.291 324.031 203.933 322.25 209.023C320.9 212.884 317.386 215.9 311.807 217.986C298.784 222.857 283.741 227.02 277.878 228.583C277.619 228.651 277.376 228.774 277.167 228.943C276.958 229.113 276.786 229.326 276.663 229.569C276.54 229.808 276.467 230.071 276.449 230.341C276.43 230.611 276.467 230.882 276.556 231.137L289.025 259.712C289.155 260.074 289.202 260.462 289.162 260.846C289.122 261.23 288.996 261.599 288.793 261.926C288.591 262.252 288.318 262.527 287.996 262.728C287.673 262.93 287.309 263.053 286.933 263.089L277.616 263.781C277.537 263.789 277.458 263.793 277.38 263.793C276.902 263.792 276.436 263.651 276.035 263.386C275.635 263.121 275.319 262.743 275.125 262.299Z" fill="#2F2E41"/>
<path d="M288.489 273.344L281.757 273.343L278.554 255.532L288.49 255.533L288.489 273.344Z" fill="#FFB8B8"/>
<path d="M290.206 280L268.498 279.999V279.719C268.498 278.587 268.717 277.466 269.141 276.421C269.566 275.375 270.188 274.425 270.973 273.625C271.757 272.824 272.689 272.19 273.714 271.757C274.739 271.323 275.838 271.101 276.947 271.101H276.948L290.206 271.101L290.206 280Z" fill="#2F2E41"/>
<path d="M278.969 263.979L265.547 233.279C264.427 230.692 264.303 227.769 265.2 225.092C266.098 222.416 267.951 220.182 270.39 218.837L299.501 202.913L312.786 201.761L325.039 200.624L325.128 200.777C325.241 200.972 327.875 205.614 326.094 210.704C324.743 214.564 321.23 217.58 315.651 219.667C302.628 224.537 287.585 228.7 281.722 230.264C281.462 230.331 281.22 230.454 281.011 230.624C280.802 230.794 280.63 231.007 280.507 231.249C280.384 231.489 280.311 231.752 280.293 232.022C280.274 232.291 280.31 232.562 280.4 232.817L292.868 261.392C292.999 261.755 293.046 262.143 293.006 262.527C292.965 262.91 292.84 263.28 292.637 263.606C292.435 263.932 292.162 264.207 291.84 264.409C291.517 264.61 291.153 264.734 290.777 264.77L281.46 265.462C281.381 265.469 281.302 265.473 281.224 265.473C280.746 265.473 280.279 265.332 279.879 265.067C279.479 264.801 279.163 264.424 278.969 263.979Z" fill="#2F2E41"/>
<path d="M272.279 170.195C266.639 162.543 262.181 154.055 259.058 145.027C258.878 144.487 258.89 143.899 259.095 143.368C259.299 142.836 259.682 142.396 260.174 142.126L279.474 131.577C279.786 131.405 280.132 131.308 280.487 131.294C280.841 131.279 281.195 131.347 281.519 131.493C281.85 131.639 282.144 131.861 282.378 132.141C282.613 132.421 282.781 132.752 282.871 133.108C285.117 141.808 289.34 149.846 295.197 156.573C295.438 156.846 295.614 157.173 295.713 157.527C295.812 157.881 295.83 158.253 295.767 158.615C295.706 158.972 295.566 159.309 295.357 159.602C295.149 159.895 294.878 160.136 294.565 160.306L275.265 170.854C274.771 171.123 274.2 171.204 273.654 171.083C273.107 170.962 272.62 170.648 272.279 170.195Z" fill="#CCCCCC"/>
<path d="M273.596 169.185C273.7 169.317 273.846 169.409 274.008 169.443C274.171 169.477 274.34 169.452 274.487 169.373L293.786 158.824C293.88 158.775 293.961 158.703 294.023 158.616C294.086 158.529 294.127 158.428 294.145 158.322C294.165 158.21 294.159 158.094 294.128 157.985C294.097 157.875 294.042 157.774 293.966 157.69C287.937 150.766 283.59 142.49 281.277 133.534C281.251 133.424 281.199 133.321 281.127 133.234C281.055 133.147 280.964 133.078 280.861 133.033C280.765 132.989 280.659 132.968 280.553 132.973C280.448 132.977 280.344 133.007 280.251 133.059L260.952 143.607C260.806 143.687 260.692 143.818 260.63 143.975C260.568 144.132 260.562 144.306 260.612 144.468C263.678 153.334 268.057 161.67 273.596 169.185Z" fill="white"/>
<path d="M336.395 167.381L321.28 173.24L317.59 162.784C317.1 161.395 317.107 159.875 317.609 158.491C318.112 157.108 319.078 155.95 320.337 155.222C321.61 154.486 323.099 154.239 324.535 154.525C325.972 154.811 327.26 155.611 328.169 156.782L336.395 167.381Z" fill="#4169E2"/>
<path d="M297.95 208.809C297.632 208.579 297.365 208.283 297.168 207.941C296.971 207.598 296.847 207.216 296.806 206.821C294.87 188.387 296.218 173.961 300.928 162.719C301.757 160.78 303.007 159.057 304.582 157.682C306.158 156.306 308.019 155.313 310.025 154.776L322.243 154.147L322.306 154.178C325.063 155.556 327.312 157.803 328.718 160.586C330.125 163.37 330.614 166.542 330.115 169.631C326.185 180.197 322.894 191.198 325.404 200.073C325.509 200.444 325.54 200.833 325.494 201.216C325.448 201.599 325.327 201.97 325.138 202.304C324.955 202.627 324.708 202.909 324.414 203.131C324.12 203.354 323.784 203.513 323.427 203.598L300.156 209.244C299.779 209.336 299.387 209.344 299.007 209.269C298.627 209.194 298.266 209.037 297.95 208.809Z" fill="#4169E2"/>
<path d="M318.165 149.492C325.614 149.492 331.653 143.333 331.653 135.735C331.653 128.136 325.614 121.977 318.165 121.977C310.717 121.977 304.678 128.136 304.678 135.735C304.678 143.333 310.717 149.492 318.165 149.492Z" fill="#FFB8B8"/>
<path d="M280.741 146.631L270.229 151.364C269.83 151.543 269.376 151.554 268.969 151.393C268.562 151.232 268.234 150.912 268.057 150.505L267.797 149.904C267.621 149.497 267.611 149.034 267.769 148.619C267.926 148.203 268.239 147.869 268.639 147.688L279.15 142.956C279.55 142.776 280.003 142.766 280.41 142.927C280.818 143.088 281.146 143.407 281.322 143.814L281.582 144.415C281.758 144.823 281.769 145.285 281.611 145.7C281.453 146.116 281.14 146.45 280.741 146.631Z" fill="#CCCCCC"/>
<path d="M284.585 153.913L274.073 158.646C273.673 158.825 273.22 158.835 272.813 158.674C272.406 158.513 272.078 158.194 271.901 157.787L271.641 157.186C271.465 156.778 271.455 156.316 271.613 155.901C271.77 155.485 272.083 155.151 272.483 154.97L282.994 150.237C283.394 150.058 283.847 150.047 284.254 150.208C284.662 150.369 284.99 150.689 285.166 151.096L285.426 151.697C285.602 152.104 285.612 152.567 285.455 152.982C285.297 153.398 284.984 153.732 284.585 153.913Z" fill="#CCCCCC"/>
<path d="M292.691 182.355L269.257 163.497C269.07 163.564 268.88 163.621 268.688 163.668C267.861 163.866 267.002 163.883 266.168 163.72C265.334 163.557 264.542 163.217 263.846 162.721C263.144 162.225 262.555 161.582 262.117 160.835C261.678 160.088 261.402 159.254 261.305 158.389C261.148 157.007 261.453 155.61 262.172 154.427C262.891 153.244 263.98 152.343 265.264 151.87C266.065 151.577 266.918 151.46 267.766 151.526C268.615 151.593 269.44 151.841 270.188 152.256C270.936 152.67 271.59 153.241 272.106 153.931C272.623 154.622 272.991 155.415 273.186 156.26C273.246 156.528 273.288 156.8 273.311 157.074L296.639 170.801L302.445 167.392L308.876 175.98L299.862 182.533C298.807 183.294 297.539 183.688 296.247 183.655C294.956 183.623 293.708 183.167 292.691 182.355Z" fill="#FFB8B8"/>
<path d="M311.735 178.654L298.364 169.38L304.648 160.302C305.482 159.097 306.708 158.231 308.107 157.858C309.507 157.485 310.991 157.628 312.297 158.263C313.618 158.905 314.67 160.008 315.264 161.373C315.857 162.737 315.953 164.273 315.534 165.703L311.735 178.654Z" fill="#4169E2"/>
<path d="M313.221 133.685C309.754 136.106 305.202 138.593 301.662 136.016C299.337 134.324 298.605 131.19 299.547 128.44C301.243 123.495 305.901 121.318 310.355 119.649C316.145 117.48 322.45 115.754 328.427 117.307C334.405 118.861 339.688 124.764 338.609 130.96C337.741 135.942 333.134 140.087 333.788 145.103C334.446 150.151 340.011 152.808 344.925 153.71C349.838 154.612 355.337 154.902 358.868 158.502C363.372 163.095 362.248 171.303 358.009 176.152C353.77 181.001 347.374 183.199 341.176 184.693C332.964 186.672 324.082 187.713 316.283 184.427C308.483 181.142 302.414 172.298 304.673 164.005C305.628 160.502 307.876 157.541 310.048 154.659C312.221 151.777 314.421 148.763 315.25 145.227C315.941 142.28 315.429 138.859 313.514 136.649C313.165 136.262 312.946 135.772 312.887 135.25C312.829 134.728 312.934 134.201 313.187 133.744L313.221 133.685Z" fill="#2F2E41"/>
<path d="M59.8951 200.529C56.4197 201.775 52.6883 202.087 49.0603 201.435C45.4323 200.783 42.03 199.189 39.1812 196.807C31.9261 190.595 29.6514 180.362 27.8005 170.886C25.9757 161.544 24.1509 152.202 22.3261 142.859L33.7874 150.909C42.0297 156.698 50.4577 162.673 56.1646 171.058C61.8715 179.443 64.3626 190.89 59.7773 199.963" fill="#E6E6E6"/>
<path d="M58.9154 234.461C60.0755 225.842 61.2683 217.112 60.4546 208.401C59.7319 200.664 57.4179 193.107 52.707 186.911C50.2064 183.629 47.1636 180.816 43.7155 178.6C42.8164 178.021 41.9888 179.475 42.8841 180.051C48.8502 183.897 53.4649 189.577 56.0626 196.271C58.9318 203.715 59.3925 211.829 58.8981 219.737C58.5991 224.519 57.9654 229.27 57.3268 234.014C57.2765 234.229 57.3079 234.455 57.4147 234.647C57.5215 234.839 57.6957 234.982 57.9021 235.048C58.1128 235.106 58.3373 235.077 58.5269 234.967C58.7166 234.857 58.8562 234.675 58.9154 234.461Z" fill="#F2F2F2"/>
<path d="M47.7422 219.209C46.2516 221.52 44.2028 223.4 41.793 224.669C39.3833 225.938 36.6938 226.552 33.9838 226.452C27.0191 226.115 21.2127 221.157 15.9859 216.449L0.525972 202.526L10.7579 202.027C18.116 201.667 25.664 201.332 32.6724 203.647C39.6808 205.962 46.1444 211.532 47.4259 218.932" fill="#E6E6E6"/>
<path d="M62.1938 239.416C56.6103 229.338 50.134 218.138 38.562 214.558C35.3444 213.566 31.9705 213.211 28.6221 213.511C27.5668 213.604 27.8303 215.264 28.8837 215.171C34.4964 214.696 40.0983 216.207 44.7462 219.452C49.2188 222.557 52.7013 226.874 55.6488 231.453C57.4542 234.257 59.0714 237.181 60.6889 240.1C61.2058 241.033 62.7167 240.359 62.1938 239.416Z" fill="#F2F2F2"/>
<path d="M71.14 250.023C70.9519 247.799 70.1693 245.671 68.8773 243.87C67.5854 242.069 65.8337 240.664 63.8131 239.808V233.982H54.2335V239.991C52.3123 240.889 50.6589 242.291 49.4419 244.053C48.2248 245.815 47.4877 247.875 47.3056 250.023L45.053 276.732H73.3926L71.14 250.023Z" fill="#F2F2F2"/>
</g>
<defs>
<clipPath id="clip0_17_761">
<rect width="380" height="280" fill="white"/>
</clipPath>
</defs>
</svg>
