<svg width="138" height="138" viewBox="0 0 138 138" fill="none" xmlns="http://www.w3.org/2000/svg">
<path d="M68.75 0C30.7812 0 0 30.78 0 68.75C0 106.72 30.78 137.5 68.75 137.5C106.72 137.5 137.5 106.72 137.5 68.75C137.5 30.78 106.72 0 68.75 0ZM68.75 111.241C45.2825 111.241 26.2587 92.2175 26.2587 68.75C26.2587 45.2825 45.2825 26.2588 68.75 26.2588C92.2175 26.2588 111.241 45.2825 111.241 68.75C111.241 92.2175 92.2175 111.241 68.75 111.241Z" fill="#4169E2"/>
<path d="M68.75 84.9812C77.7143 84.9812 84.9812 77.7143 84.9812 68.75C84.9812 59.7857 77.7143 52.5187 68.75 52.5187C59.7857 52.5187 52.5187 59.7857 52.5187 68.75C52.5187 77.7143 59.7857 84.9812 68.75 84.9812Z" fill="#FF8C1A"/>
</svg>
