<svg width="21" height="21" viewBox="0 0 21 21" fill="none" xmlns="http://www.w3.org/2000/svg">
<path d="M9.66209 18.6251C4.95376 18.6251 1.12042 14.7917 1.12042 10.0834C1.12042 5.37508 4.95376 1.54175 9.66209 1.54175C14.3704 1.54175 18.2038 5.37508 18.2038 10.0834C18.2038 14.7917 14.3704 18.6251 9.66209 18.6251ZM9.66209 2.79175C5.63709 2.79175 2.37042 6.06675 2.37042 10.0834C2.37042 14.1001 5.63709 17.3751 9.66209 17.3751C13.6871 17.3751 16.9538 14.1001 16.9538 10.0834C16.9538 6.06675 13.6871 2.79175 9.66209 2.79175Z" fill="black"/>
<path d="M18.4121 19.4583C18.2537 19.4583 18.0954 19.4 17.9704 19.275L16.3037 17.6083C16.0621 17.3666 16.0621 16.9666 16.3037 16.725C16.5454 16.4833 16.9454 16.4833 17.1871 16.725L18.8537 18.3916C19.0954 18.6333 19.0954 19.0333 18.8537 19.275C18.7287 19.4 18.5704 19.4583 18.4121 19.4583Z" fill="black"/>
</svg>
