<?xml version="1.0" encoding="UTF-8"?>
<svg version="1.1" viewBox="0 0 2048 2048" width="128" height="128" xmlns="http://www.w3.org/2000/svg">
<path transform="translate(1239,203)" d="m0 0h435l72 1 27 1 19 2 12 4 11 8 5 4 9 11 6 10 4 11 1 8 1 20 1 63v474l-1 53-1 22-2 15-4 8-11 14-11 12-9 5-13 4-6 1-16 1h-618l-16-3-9-5-12-11-11-12-8-16-3-15-1-15-1-60v-454l1-89 2-17 6-15 8-11 13-13 11-9 8-4 12-2z"/>
<path transform="translate(368,203)" d="m0 0h486l32 1 19 2 10 4 14 10 13 13 8 12 4 11 1 12v609l-1 20-3 13-5 10-9 12-5 5-9 8-12 6-14 3-16 1-503 1h-62l-51-1-12-2-9-5-12-11-12-13-9-12-4-7-2-12-1-14-1-51v-85l1-304v-128l1-43 3-17 6-11 10-13 7-7 15-11 9-3 9-1 26-1zm193 171-127 1-18 2-10 4-9 7-11 13-5 11-3 18-1 37v257l2 18 5 13 7 9 13 11 12 6 10 2 10 1 219 1 58-1 26-2 10-3 6-4 11-9 9-11 5-10 2-10 1-16v-288l-2-15-7-14-11-14-7-6-12-5-5-1-15-1z"/>
<path transform="translate(1629,1091)" d="m0 0h78l65 1 16 1 11 3 10 6 15 14 10 13 4 7 2 11 1 15 1 49v392l-1 154-1 24-2 15-4 8-10 13-9 10-9 8-12 4-26 3-41 1h-554l-23-1-12-2-9-4-11-8-13-13-9-14-4-15-2-26-1-48v-488l1-68 3-16 9-17 11-12 12-10 15-8 5-1zm-311 171-15 2-12 6-12 11-9 13-4 7-2 10-1 13-1 70v208l2 24 4 13 10 13 7 7 13 8 10 3 7 1 86 1h173l42-1 14-3 14-7 10-8v-2l3-1 7-11 3-15 1-10 1-29v-271l-4-15-6-11-9-10-8-7-12-6-7-2-17-1z"/>
<path transform="translate(721,1091)" d="m0 0h109l63 1 15 2 12 6 12 9 9 9 9 14 4 12 1 14v610l-1 19-4 13-7 12-9 10-5 6-8 7-13 4-13 2-12 1-46 1h-544l-26-1-13-2-8-3-9-6-10-9-11-14-6-12-3-9-2-20-1-27v-583l4-19 10-14 9-10 12-10 14-9 6-2 28-1zm-288 171-15 2-14 7-10 9-8 9-5 11-2 9-1 10-1 36v257l3 21 6 12 9 10 11 8 15 6 12 2 89 1h173l37-1 12-3 13-7 10-9 6-7 7-14 2-11 1-16v-286l-2-14-7-14-11-12-9-8-12-6-20-2z"/>
</svg>
