<svg width="100" height="100" viewBox="0 0 100 100" fill="none" xmlns="http://www.w3.org/2000/svg">
<path d="M49.4141 0H54.6387L56.1523 0.341797L57.4219 0.683594L59.0332 1.2207L60.2539 1.70898L61.1328 2.09961L62.3535 2.73438L63.4766 3.41797L64.209 3.95508L64.8438 4.44336L65.5762 5.07812L66.6992 6.20117L67.1387 6.73828L67.5781 7.22656L67.9199 7.51953L68.6035 7.91016L69.3848 8.30078L70.3125 8.74023L71.0938 9.13086L72.8027 10.0098L73.9746 10.6934L74.9512 11.2793L76.0254 11.9629L77.1973 12.7441L77.9785 13.3301L78.9062 14.0137L79.541 14.502L80.0293 14.8926L80.5664 15.332L81.2988 15.9668L81.7871 16.4062L82.1777 16.748L83.4473 17.9199L84.4727 18.9453L84.8145 19.3359L85.1562 19.6777L85.498 20.0684L86.084 20.7031L86.5234 21.2402L87.1094 21.9238L87.6953 22.7051L88.3789 23.584L88.8184 24.1699L89.4043 25L90.2344 26.2695L90.8691 27.2949L91.6992 28.7109L92.2852 29.7852L92.7734 30.7129L93.3105 31.8359L93.9941 33.3496L94.5312 34.668L95.3613 36.9629L95.8984 38.623L96.4844 40.8203L96.8262 42.334L97.2168 44.4824L97.4609 46.2891L97.6562 48.3398L97.7539 49.707L97.8027 50.8301V53.2715L97.7051 54.9316L97.5098 57.2266L97.3145 58.8867L97.0215 60.6934L96.582 62.8906L96.1914 64.4531L95.6055 66.5039L94.7754 68.9453L93.9941 70.8496L93.2617 72.5098L92.2363 74.5605L91.6504 75.6348L91.1133 76.5625L90.332 77.832L88.916 79.9316L88.2324 80.8594L87.6465 81.5918L86.6211 82.959L86.1816 83.4961L85.498 84.2285L84.7656 85.0098L82.9102 86.8652L82.5195 87.207L82.1777 87.5488L81.7871 87.8906L81.1035 88.4766L80.6152 88.916L79.9805 89.4043L79.2969 89.9414L78.7598 90.332L78.1738 90.7715L77.2949 91.4062L76.0254 92.2363L75.1953 92.7734L74.1211 93.4082L73.0957 93.9941L71.7285 94.7266L70.5566 95.3125L69.043 95.9961L67.4805 96.6309L65.7715 97.2656L64.1113 97.8027L62.4023 98.291L60.0098 98.877L57.959 99.3164L55.7617 99.707L53.9551 100H45.9473L43.7012 99.6094L39.1113 98.6816L36.9629 98.1445L35.3027 97.6562L33.1543 96.9238L31.6895 96.3379L30.127 95.6543L28.4668 94.873L27.4902 94.4336L26.6602 94.043L25.4883 93.3594L24.2676 92.627L22.9492 91.748L22.1191 91.1621L21.3379 90.5762L20.8008 90.1855L20.1172 89.6484L19.4824 89.1113L18.9941 88.7207L18.5059 88.2812L18.1152 87.9395L17.4805 87.3535L17.0898 87.0117L14.9902 84.9121L14.6484 84.5215L14.0625 83.8867L13.623 83.3496L12.9395 82.4219L12.4512 81.7871L11.8164 80.957L11.084 79.9805L10.4492 79.0527L9.96094 78.3203L9.32617 77.3438L8.74023 76.416L8.25195 75.5371L7.66602 74.4629L6.93359 73.0469L6.20117 71.4355L5.41992 69.5801L4.63867 67.4316L3.90625 65.0879L3.22266 62.3535L2.83203 60.3027L2.44141 57.666L2.24609 55.7617L2.09961 53.4668V50.293L2.19727 48.8281L2.44141 46.3379L2.73438 44.2871L3.17383 41.9922L3.56445 40.332L4.15039 38.2812L4.73633 36.5234L5.56641 34.2773L6.29883 32.5684L6.98242 31.1523L7.51953 30.0293L8.10547 28.9062L9.17969 27.1484L9.47266 26.6602L10.1074 25.6836L10.498 25.0977L11.1328 24.2188L11.7188 23.4375L12.3535 22.5586L12.8418 21.9727L13.2324 21.4844L13.6719 20.9961L13.7695 20.8496H13.8672L13.9648 20.6543L14.5508 20.0195L14.9902 19.4824L15.5762 18.8965L15.918 18.5059L16.8945 17.5293L17.2852 17.1875L18.0176 16.5039L18.5547 16.0645L19.1406 15.5273L19.6777 15.0879L20.459 14.4531L21.3379 13.8184L22.3145 13.0859L22.6074 12.7441L22.6562 12.0605V10.1562L22.7539 9.17969L23.0469 7.76367L23.6816 5.56641L24.0234 4.63867L24.3164 3.90625L24.6582 3.22266L25.0488 2.92969L25.3906 2.88086L26.123 3.07617L26.709 3.41797L27.3926 3.95508L27.9785 4.39453L28.4668 4.73633L29.1992 5.17578L30.0293 5.46875L31.25 5.71289L32.373 5.76172L33.3984 5.61523L34.7656 5.22461L36.1816 4.63867L37.5977 4.00391L39.3066 3.22266L40.5762 2.68555L42.627 1.85547L43.4082 1.5625L45.0195 1.07422L48.0957 0.292969L49.4141 0Z" fill="#FD4958"/>
<path d="M49.4141 0H54.6387L56.1523 0.341797L57.4219 0.683594L59.0332 1.2207L60.2539 1.70898L61.1328 2.09961L62.3535 2.73438L63.4766 3.41797L64.209 3.95508L64.8438 4.44336L65.5762 5.07812L66.6992 6.20117L67.1387 6.73828L67.5781 7.22656L67.9199 7.51953L68.6035 7.91016L69.3848 8.30078L70.3125 8.74023L71.0938 9.13086L72.8027 10.0098L73.9746 10.6934L74.9512 11.2793L76.0254 11.9629L77.1973 12.7441L77.9785 13.3301L78.9062 14.0137L79.541 14.502L80.0293 14.8926L80.5664 15.332L81.2988 15.9668L81.7871 16.4062L82.1777 16.748L83.4473 17.9199L84.4727 18.9453L84.8145 19.3359L85.1562 19.6777L85.498 20.0684L86.084 20.7031L86.5234 21.2402L87.1094 21.9238L87.6953 22.7051L88.3789 23.584L88.8184 24.1699L89.4043 25L90.2344 26.2695L90.8691 27.2949L91.6992 28.7109L92.2852 29.7852L92.7734 30.7129L93.3105 31.8359L93.9941 33.3496L94.5312 34.668L95.3613 36.9629L95.8984 38.623L96.4844 40.8203L96.8262 42.334L97.2168 44.4824L97.4609 46.2891L97.6562 48.3398L97.7539 49.707L97.8027 50.8301V53.2715L97.7051 54.9316L97.5098 57.2266L97.3145 58.8867L97.0215 60.6934L96.582 62.8906L96.1914 64.4531L95.6055 66.5039L94.7754 68.9453L93.9941 70.8496L93.2617 72.5098L92.2363 74.5605L91.6504 75.6348L91.1133 76.5625L90.332 77.832L88.916 79.9316L88.2324 80.8594L87.6465 81.5918L86.6211 82.959L86.4746 83.0566L86.2305 82.8125L85.6934 82.4707L84.5215 81.8359L84.082 81.543L83.5938 81.2988L82.7637 80.8105L82.0801 80.4199L81.5918 80.1758L81.1035 79.8828L80.5176 79.5898L79.9805 79.2969L79.0527 78.8086L78.5156 78.5645L77.7832 78.1738L77.3926 78.0273L76.123 77.3926L75.5371 77.1973L74.707 76.8066L73.4863 76.3184L72.8027 76.0742L72.3145 75.8789L70.5566 75.293L70.3125 75.1953L69.3848 75.1465H68.75L68.5059 75.1953L67.7246 75L66.9922 74.7559L66.7969 74.707L66.6016 74.8047L66.5039 75.0488L65.8691 76.0254L65.4785 76.5625L65.1367 77.002L64.5508 77.7832L63.916 78.4668L63.4766 79.0039L63.1836 79.248L62.8906 79.5898L62.5977 79.834L62.0605 80.3711L61.8164 80.5176L61.3281 80.957L60.791 81.3477L60.3516 81.6895L59.8145 82.0801L58.8379 82.666L57.959 83.1543L57.0312 83.6426L56.1035 84.0332L54.9316 84.4727L54.1992 84.7168L52.4414 85.1562L51.416 85.3516L50.7812 85.4492L50.4883 85.5469L49.4629 85.5957L48.3887 85.3027L46.5332 84.9121L45.2637 84.4727L44.2383 84.082L43.75 83.8867L42.6758 83.3496L42.041 82.959L41.3086 82.5195L40.4297 81.9336L39.502 81.25L38.8672 80.7129L38.3789 80.3223L37.1582 79.1016L36.8164 78.7109L36.3281 78.1738L35.9863 77.7832L35.3027 76.9043L34.7168 76.0254L34.2773 75.3906L33.5449 74.2676L32.7148 72.6562L32.1289 71.2891L31.5918 69.873L31.0059 68.1152L30.4199 65.9668L30.0781 64.6484L29.7363 62.7441L29.2969 59.6191L29.0527 57.3242L28.9062 55.6641V51.0254L29.0039 49.3652L29.1504 48.4863L29.248 48.0957L29.3945 47.0215L29.541 46.1914L29.7363 45.1172L29.834 44.3848L29.9316 43.9453H30.0781L30.3223 44.873L30.4688 45.8008L30.8105 46.8262L31.2012 47.8516L31.7383 49.1211L32.1777 50.0488L32.7148 51.0254L33.2031 51.7578L33.8867 52.6367L34.375 53.1738L34.6191 53.4668L35.0098 53.8086L35.5469 54.248L36.1816 54.6875L36.8652 55.0293H37.1094L37.3535 54.7363L37.5977 54.248L37.8906 53.8574L38.1348 53.6133L38.8184 52.8809L39.3555 52.2949L39.8438 51.8555L40.4297 51.416L41.1133 50.9766L42.5293 50.293L43.2617 50.0488L43.8965 49.9512H45.6543L47.4609 50.3418L48.2422 50.5859L49.707 51.123L50.5859 51.3672H51.2207L51.9043 51.123L52.5391 50.8789L53.2715 50.5859L53.9062 50.3418L54.5898 50.1953L55.9082 50L56.7871 49.9512L57.4707 50.0488L58.7402 50.3906L59.4727 50.6836L60.3027 51.0742L60.7422 51.3672L61.8164 52.1484L62.5977 52.832L63.3301 53.5645L63.7695 54.1992L64.1113 54.6387L64.4043 54.834H64.6973L65.2832 54.2969L65.7715 53.8574L66.1621 53.5156L66.6016 53.0273L67.2852 52.0996L67.4805 51.8066L68.0176 51.0254L68.7012 49.8047L69.3359 48.4863L70.0684 46.6309L70.2148 46.1426L70.3613 45.7031L70.5078 45.0195L70.6055 44.4336L70.7031 44.1895L70.8008 44.2383L70.9473 44.7266L71.2402 48.0957L71.4355 48.4863L72.0703 48.3887L72.5098 48.1934L72.998 47.7539L73.3887 47.2656L73.7305 46.5332L74.3652 44.7266L74.9512 42.8711L75.5859 40.8691L75.9277 39.7949L76.2207 38.6719L76.3672 37.9395V37.5L76.2695 36.7676L76.123 36.4746L75.9277 35.9863L75.3906 35.3516L74.9023 34.9121L74.3164 34.668L73.877 34.4727L73.0469 34.5215L72.4609 34.668L71.5332 35.0098L71.2891 34.9609L70.8984 33.4961L70.6055 32.666L70.166 31.6406L69.7266 30.8105L69.2383 29.5898L69.0918 28.8086V27.2949L69.2383 25.6836V25.0977L69.1406 24.1211L68.8477 22.9004L68.6035 22.1191L68.1641 21.0938L67.7246 20.3613L67.2363 19.6777L66.6992 18.9941L66.2109 18.5547L65.7227 18.2617L65.4297 18.0664L64.9414 18.0176L64.4043 18.0664L63.3789 18.5059L62.3047 19.0918L60.9375 19.7266L58.8379 20.6055L56.6895 21.3867L54.6875 21.9727L53.3203 22.3145L51.8555 22.6074L49.7559 22.9004L48.2422 23.0469L47.5586 23.0957H45.6543L43.8965 22.9492L42.041 22.6562L40.0879 22.2656L37.9395 21.6797L36.3281 21.1426L34.4727 20.5566L33.1543 20.2148L32.7148 20.1172H32.4707L32.1777 20.6543L31.7871 22.0703L31.543 22.998L31.3965 23.9258L31.3477 24.5117V26.3672L31.3965 26.9531V28.418L31.25 29.4434L31.0547 30.2246L30.5664 31.2012L30.3711 31.6406L30.0781 32.1289L29.834 32.6172L29.6387 33.1543L29.2969 34.4238L29.1504 34.668L28.8086 34.8145L28.5645 34.8633L27.7344 34.5703L27.2949 34.1309L27.1973 33.8867L27.002 32.9102L26.5625 31.1523L25.9766 28.7109L25.4395 26.5137L25.0977 25.3906L24.8047 24.6094L24.2676 23.4375L23.6328 22.3145L23.0469 21.2891L22.4609 20.2148L21.9238 19.043L21.2891 17.3828L21.0938 16.748V16.5039L21.3867 16.3086L22.2656 16.1133L22.9492 16.0156L22.998 15.9668L22.9492 15.1367L22.8516 14.502L22.7539 13.0859L22.6562 12.0605V10.1562L22.7539 9.17969L23.0469 7.76367L23.6816 5.56641L24.0234 4.63867L24.3164 3.90625L24.6582 3.22266L25.0488 2.92969L25.3906 2.88086L26.123 3.07617L26.709 3.41797L27.3926 3.95508L27.9785 4.39453L28.4668 4.73633L29.1992 5.17578L30.0293 5.46875L31.25 5.71289L32.373 5.76172L33.3984 5.61523L34.7656 5.22461L36.1816 4.63867L37.5977 4.00391L39.3066 3.22266L40.5762 2.68555L42.627 1.85547L43.4082 1.5625L45.0195 1.07422L48.0957 0.292969L49.4141 0Z" fill="#FD4958"/>
<path d="M64.9414 17.9688L65.4297 18.0176L66.1133 18.457L66.6016 18.8477L67.041 19.3359L67.6758 20.2148L68.2129 21.0938L68.6523 22.1191L68.8965 22.9004L69.1895 24.1211L69.2871 25.1953V25.6836L69.1406 27.2949V28.8086L69.2871 29.5898L69.873 31.0059L70.3613 31.9336L70.8008 33.0566L71.1426 34.2285L71.3379 34.9609L71.6309 34.9121L72.8027 34.5215L73.5352 34.4238H73.877L74.4629 34.668L74.9512 34.9121L75.4395 35.3516L75.7812 35.7422L76.0742 36.1816L76.2695 36.6699L76.3672 36.9629L76.416 37.5V37.9395L76.1719 39.0625L75.7812 40.4297L75.0977 42.5293L74.2676 45.166L73.7793 46.5332L73.3887 47.3145L73.1445 47.6562H73.0469L72.9492 47.8516L72.4609 48.291L71.875 48.4863L71.4355 48.5352L71.2891 48.3398L71.1914 48.0957L70.8984 44.7266L70.752 44.2383L70.6055 44.5801L70.5078 45.2637L70.3125 46.0449L70.166 46.4355L69.873 47.2656L69.2871 48.6816L68.6035 50.0977L67.9199 51.2695L67.4805 51.8555L67.041 52.4902L66.5527 53.125L66.1133 53.6133L65.4785 54.1992L64.6973 54.8828H64.4043L64.0625 54.6387L63.4277 53.8086L63.1348 53.418L62.3047 52.5879L61.8652 52.2461L61.377 51.8555L60.791 51.4648L60.5469 51.2695L59.6191 50.7812L58.8379 50.4883L58.0566 50.2441L57.2754 50.0488L56.5918 50L55.6152 50.0977L54.2969 50.293L53.5156 50.5371L51.5625 51.3184L51.2207 51.416H50.5859L49.5605 51.123L48.2422 50.6348L47.4609 50.3906L45.6543 50H43.8965L43.1152 50.1465L42.334 50.4395L40.918 51.123L40.4297 51.4648L39.9902 51.8066L39.3066 52.3926L38.5254 53.2227L37.9883 53.8574L37.7441 54.1016L37.5 54.4922L37.3047 54.8828L37.1094 55.0781H36.8652L35.9375 54.5898L35.3027 54.1016L34.7168 53.5645L34.375 53.2715L33.9355 52.7344L33.5938 52.3438L33.0078 51.5625L32.4219 50.5859L32.0312 49.8047L31.4453 48.584L31.0059 47.4609L30.5176 46.1426L30.3711 45.5078L30.1758 44.4336L30.0293 43.9453H29.9805L29.834 44.6289L29.7363 45.3613L29.541 46.3379L29.3945 47.2656H29.2969V47.5586H29.248L29.1992 48.1934H29.0527L29.0039 47.8027L28.9062 47.7051L28.7109 47.7539L28.4668 47.9492L28.125 47.998H27.7344L27.2949 47.5586L26.8555 46.8262L26.5625 45.9961L26.0254 44.2871L25.6836 43.1152L25.3418 41.8945L24.5117 39.3066L24.3164 38.4277L24.2676 37.9395V37.3047L24.4141 36.5723L24.8047 35.8398L25.4883 35.1562L26.1719 34.7656L26.416 34.668L27.3926 34.5215L27.6855 34.5703L28.125 34.668L28.6621 34.8145L29.1016 34.668L29.248 34.4238L29.5898 33.1543L29.8828 32.373L30.4688 31.3477L30.7129 30.7617L30.9082 30.4688L31.1523 29.7363L31.2988 28.8086L31.3477 28.418V26.9531L31.2988 26.3672V24.5117L31.4453 23.2422L31.6895 22.2168L32.0312 21.0449L32.1777 20.5566L32.4707 20.0684L32.9102 20.1172L34.1309 20.4102L35.4004 20.8008L37.2559 21.3867L38.2812 21.7285L40.2832 22.2656L42.5781 22.7051L43.8965 22.9004L45.6543 23.0469H47.5586L48.9258 22.9492L50.8789 22.7051L52.6367 22.4121L54.1504 22.0703L56.2012 21.4844L57.666 20.9961L59.082 20.459L60.9375 19.6777L62.6953 18.8477L63.5742 18.3594L64.4043 18.0176L64.9414 17.9688Z" fill="#F7B486"/>
<path d="M29.9805 43.8965L30.0781 43.9453L30.3223 44.873L30.4688 45.8008L30.8105 46.8262L31.2012 47.8516L31.7383 49.1211L32.1777 50.0488L32.7148 51.0254L33.2031 51.7578L33.8867 52.6367L34.375 53.1738L34.6191 53.4668L35.0098 53.8086L35.5469 54.248L36.1816 54.6875L36.8652 55.0293H37.1094L37.3535 54.7363L37.5977 54.248L37.8906 53.8574L38.1348 53.6133L38.8184 52.8809L39.3555 52.2949L39.8438 51.8555L40.4297 51.416L41.1133 50.9766L42.5293 50.293L43.2617 50.0488L43.8965 49.9512H45.6543L47.4609 50.3418L48.2422 50.5859L49.707 51.123L50.5859 51.3672H51.2207L51.9043 51.123L52.5391 50.8789L53.2715 50.5859L53.9062 50.3418L54.5898 50.1953L55.9082 50L56.7871 49.9512L57.4707 50.0488L58.7402 50.3906L59.4727 50.6836L60.3027 51.0742L60.7422 51.3672L61.8164 52.1484L62.5977 52.832L63.3301 53.5645L63.7695 54.1992L64.1113 54.6387L64.4043 54.834H64.6973L65.2832 54.2969L65.7715 53.8574L66.1621 53.5156L66.6016 53.0273L67.2852 52.0996L67.4805 51.8066L68.0176 51.0254L68.7012 49.8047L69.3359 48.4863L70.0684 46.6309L70.2148 46.1426L70.3613 45.7031L70.5078 45.0195L70.6055 44.4336L70.7031 44.1895L70.8008 44.2383L70.9473 44.7266L71.3379 49.2188L71.3867 50.1465V55.8594L71.2891 57.9102L71.0938 60.0586L70.752 62.5L70.459 64.2578L70.2148 65.332L69.6289 67.6758L69.2871 68.6523L68.9453 69.7754L68.6523 70.5566L67.9688 72.2168L67.5781 73.0957L66.9922 74.2676L66.4062 75.1953L65.8691 76.0254L65.4785 76.5625L65.1367 77.002L64.5508 77.7832L63.916 78.4668L63.4766 79.0039L63.1836 79.248L62.8906 79.5898L62.5977 79.834L62.0605 80.3711L61.8164 80.5176L61.3281 80.957L60.791 81.3477L60.3516 81.6895L59.8145 82.0801L58.8379 82.666L57.959 83.1543L57.0312 83.6426L56.1035 84.0332L54.9316 84.4727L54.1992 84.7168L52.4414 85.1562L51.416 85.3516L50.7812 85.4492L50.4883 85.5469L49.4629 85.5957L48.3887 85.3027L46.5332 84.9121L45.2637 84.4727L44.2383 84.082L43.75 83.8867L42.6758 83.3496L42.041 82.959L41.3086 82.5195L40.4297 81.9336L39.502 81.25L38.8672 80.7129L38.3789 80.3223L37.1582 79.1016L36.8164 78.7109L36.3281 78.1738L35.9863 77.7832L35.3027 76.9043L34.7168 76.0254L34.2773 75.3906L33.5449 74.2676L32.7148 72.6562L32.1289 71.2891L31.5918 69.873L31.0059 68.1152L30.4199 65.9668L30.0781 64.6484L29.7363 62.7441L29.2969 59.6191L29.0527 57.3242L28.9062 55.6641V51.0254L29.0039 49.3652L29.1504 48.4863L29.248 48.0957L29.3945 47.0215L29.541 46.1914L29.7363 45.1172L29.834 44.3848L29.9316 43.9453L29.9805 43.8965Z" fill="#42416A"/>
<path d="M66.7969 74.6582L67.2363 74.8047L67.8711 75L68.5059 75.1465L68.75 75.0977H69.7266L70.3125 75.1465L70.9961 75.3906L72.3145 75.8301L72.8027 76.0254L73.584 76.3184L74.9512 76.8555L75.6348 77.1973L76.2207 77.3926L77.2461 77.9297L77.7344 78.0762L78.0762 78.2715L78.5645 78.5645L79.4434 78.9551L80.3223 79.4434L81.1035 79.834L81.7871 80.2246L82.5684 80.6641L83.0078 80.9082L83.6914 81.2988L84.4727 81.7383L85.5957 82.373L86.1816 82.7148L86.4258 82.959L86.5234 83.1055L85.9863 83.6914L85.6445 84.082L85.2539 84.4727L84.9121 84.8633L82.9102 86.8652L82.5195 87.207L82.1777 87.5488L81.7871 87.8906L81.1035 88.4766L80.6152 88.916L79.9805 89.4043L79.2969 89.9414L78.7598 90.332L78.1738 90.7715L77.2949 91.4062L76.0254 92.2363L75.1953 92.7734L74.1211 93.4082L73.0957 93.9941L71.7285 94.7266L70.5566 95.3125L69.043 95.9961L67.4805 96.6309L65.7715 97.2656L64.1113 97.8027L62.4023 98.291L60.0098 98.877L57.959 99.3164L55.7617 99.707L53.9551 100H45.9473L43.7012 99.6094L39.1113 98.6816L36.9629 98.1445L35.3027 97.6562L33.1543 96.9238L31.6895 96.3379L30.127 95.6543L28.4668 94.873L27.4902 94.4336L26.6602 94.043L25.4883 93.3594L24.2676 92.627L22.9492 91.748L22.1191 91.1621L21.3379 90.5762L20.8008 90.1855L20.1172 89.6484L19.4824 89.1113L18.9941 88.7207L18.5059 88.2812L18.1152 87.9395L17.4805 87.3535L17.0898 87.0117L14.9902 84.9121L14.6484 84.5215L14.0625 83.8867L13.623 83.3496L13.3301 82.9102L14.0137 82.5684L14.6484 82.3242L15.6738 81.8359L16.4551 81.4453L17.1875 81.0547L17.8711 80.7129L18.7988 80.2246L19.7266 79.6875L20.4102 79.3457L20.8984 79.0527L21.582 78.7598L22.3145 78.3691L22.8027 78.125L23.7305 77.6855L24.1211 77.4902L25.2441 77.002L26.5625 76.416L27.9297 75.8789L29.2969 75.3906L29.8828 75.1465L30.4688 75.0488L30.9082 74.9512H31.6406L31.9336 74.9023L32.373 75.2441L32.8613 75.3906L32.9102 75.4883V75.8301L33.1055 76.1719L33.252 76.2207L33.3008 75.7324L33.3984 75.6348L33.6426 75.7812L33.7891 75.9766V76.0742H33.8867L33.9844 76.2695V76.416H34.2285L34.1309 76.0742L33.9355 75.9277L33.7891 75.5371L33.6914 75.4395L33.7402 75.1953H33.9355L33.9844 75L34.2285 75.2441L34.7656 76.0254L35.2539 76.7578L35.8887 77.5879L36.3281 78.0762L36.7676 78.6133L37.1582 79.0039L37.5 79.3945L38.5254 80.4199L39.209 80.957L39.9414 81.543L40.8691 82.1777L41.6992 82.7148L42.2852 83.0566L43.0176 83.4961L43.7012 83.7891L43.9453 83.9355L44.7266 84.2285L46.3867 84.8145L47.8516 85.1562L48.9746 85.4004L49.5117 85.5469L50.4883 85.498L50.9766 85.3516L51.9043 85.2051L53.2715 84.9121L54.541 84.5703L55.8594 84.082L56.8359 83.6914L58.5938 82.7637L59.5703 82.1777L60.1074 81.8359L60.5469 81.4941L61.0352 81.1035L61.4258 80.8105L61.9141 80.3711L62.1582 80.2246L62.5 79.9316L62.793 79.5898L63.0859 79.3457L63.3301 79.1016L63.8184 78.5645L64.1602 78.1738L64.5996 77.6855L65.0879 77.002L65.5273 76.4648L66.0156 75.7324L66.6016 74.8047L66.7969 74.6582Z" fill="#FDF4EC"/>
<path d="M49.4141 0H54.6387L56.1523 0.341797L57.4219 0.683594L59.0332 1.2207L60.2539 1.70898L61.1328 2.09961L62.3535 2.73438L63.4766 3.41797L64.209 3.95508L64.8438 4.44336L65.5762 5.07812L66.6992 6.20117L67.1387 6.73828L67.5781 7.22656L67.9199 7.51953L68.1641 7.66602L68.3105 8.54492L68.5059 9.13086L68.9453 9.81445L69.3359 10.3516L69.9219 10.8887L70.8984 11.5234L71.6309 12.0605L72.168 12.4512L72.7539 12.8906L73.3887 13.4277L73.877 13.916L74.5605 14.8438L75 15.5762L75.4395 16.6016L75.6836 17.334L75.8301 18.0176L75.9766 19.3848V22.9004L75.7812 25.0977L75.4883 27.002L75 29.2969L74.1699 32.373L73.9746 33.3984L73.9258 34.2285L73.7793 34.375L72.4609 34.668L71.5332 35.0098L71.2891 34.9609L70.8984 33.4961L70.6055 32.666L70.166 31.6406L69.7266 30.8105L69.2383 29.5898L69.0918 28.8086V27.2949L69.2383 25.6836V25.0977L69.1406 24.1211L68.8477 22.9004L68.6035 22.1191L68.1641 21.0938L67.7246 20.3613L67.2363 19.6777L66.6992 18.9941L66.2109 18.5547L65.7227 18.2617L65.4297 18.0664L64.9414 18.0176L64.4043 18.0664L63.3789 18.5059L62.3047 19.0918L60.9375 19.7266L58.8379 20.6055L56.6895 21.3867L54.6875 21.9727L53.3203 22.3145L51.8555 22.6074L49.7559 22.9004L48.2422 23.0469L47.5586 23.0957H45.6543L43.8965 22.9492L42.041 22.6562L40.0879 22.2656L37.9395 21.6797L36.3281 21.1426L34.4727 20.5566L33.1543 20.2148L32.7148 20.1172H32.4707L32.1777 20.6543L31.7871 22.0703L31.543 22.998L31.3965 23.9258L31.3477 24.5117V26.3672L31.3965 26.9531V28.418L31.25 29.4434L31.0547 30.2246L30.5664 31.2012L30.3711 31.6406L30.0781 32.1289L29.834 32.6172L29.6387 33.1543L29.2969 34.4238L29.1504 34.668L28.8086 34.8145L28.5645 34.8633L27.7344 34.5703L27.2949 34.1309L27.1973 33.8867L27.002 32.9102L26.5625 31.1523L25.9766 28.7109L25.4395 26.5137L25.0977 25.3906L24.8047 24.6094L24.2676 23.4375L23.6328 22.3145L23.0469 21.2891L22.4609 20.2148L21.9238 19.043L21.2891 17.3828L21.0938 16.748V16.5039L21.3867 16.3086L22.2656 16.1133L22.9492 16.0156L22.998 15.9668L22.9492 15.1367L22.8516 14.502L22.7539 13.0859L22.6562 12.0605V10.1562L22.7539 9.17969L23.0469 7.76367L23.6816 5.56641L24.0234 4.63867L24.3164 3.90625L24.6582 3.22266L25.0488 2.92969L25.3906 2.88086L26.123 3.07617L26.709 3.41797L27.3926 3.95508L27.9785 4.39453L28.4668 4.73633L29.1992 5.17578L30.0293 5.46875L31.25 5.71289L32.373 5.76172L33.3984 5.61523L34.7656 5.22461L36.1816 4.63867L37.5977 4.00391L39.3066 3.22266L40.5762 2.68555L42.627 1.85547L43.4082 1.5625L45.0195 1.07422L48.0957 0.292969L49.4141 0Z" fill="#42426A"/>
<path d="M29.9805 43.8965L30.0781 43.9453L30.3223 44.873L30.4688 45.8008L30.8105 46.8262L31.2012 47.8516L31.7383 49.1211L32.1777 50.0488L32.7148 51.0254L33.2031 51.7578L33.8867 52.6367L34.375 53.1738L34.6191 53.4668L35.0098 53.8086L35.5469 54.248L36.1816 54.6875L36.8652 55.0293H37.1094L37.3535 54.7363L37.5977 54.248L37.8906 53.8574L38.1348 53.6133L38.8184 52.8809L39.3555 52.2949L39.8438 51.8555L40.4297 51.416L41.1133 50.9766L41.9434 50.5859L42.041 50.6348L41.748 50.7812H41.6504L41.6992 51.0742L41.5527 51.2695H41.4551L41.4062 51.3672L41.2109 51.4648L41.0645 51.6113L40.8203 51.8066L40.7715 51.9043H40.6738L40.625 52.0508L40.918 52.1484L40.9668 52.3438L41.0645 52.3926L41.3086 52.2461L41.748 52.1973L42.1387 52.1484V52.0508L42.5781 51.8066L42.7734 51.9043L42.4805 52.2461L42.334 52.3926L42.0898 52.2949V52.3926H41.9434V52.6367L42.4316 52.5391H42.5781L42.7734 52.6855L42.8711 52.8809V53.2715L43.0664 53.3691L43.1152 53.5645L43.1641 53.7109H43.3105V53.8086H43.4082L43.5547 54.2969L43.6035 54.541L43.5059 54.6875H43.3594L43.5059 55.127L43.8477 55.2246L43.8965 55.3711V55.6152L44.1895 55.8594L44.3359 56.3965L44.4824 56.5918V56.6895H44.3848V56.7871L44.1406 56.9336H43.9941V57.0801H44.3359L44.3848 57.2754L43.9941 57.666L43.6523 57.7148V57.8125L43.1152 57.959L42.5293 58.252L42.2852 58.4961L42.1875 58.7402V59.082L42.5293 60.1074L42.9199 60.9863L43.3105 61.6211L43.6035 62.0605L43.75 62.5L43.9453 62.5977L44.5801 63.1348L45.6055 63.6719L46.0938 63.8672L46.4844 64.0137L47.0215 64.1602L47.998 64.3066L50 64.4531L50.6348 64.5508L50.5371 64.6484L50.0977 64.6973L49.2676 65.1367L49.1699 65.3809H49.0723V66.0156L48.584 66.9922L48.4863 67.4316L48.2422 67.9688L48.1445 68.6035L47.998 69.1895L47.9492 70.2637V70.6543L48.0957 71.2402L48.291 71.9238L48.5352 72.5098L48.7305 72.8027L48.877 73.0957L49.1211 73.4375L49.2676 73.6816L49.6094 74.2188L49.8535 74.6094V74.8047H49.9512L50.293 75.3418L50.6348 75.8301L50.9277 76.416L51.3184 77.0508L51.4648 77.1973L51.5625 77.4902L51.709 77.832V77.9785H51.8066L51.8555 78.2715H51.9531L52.0508 78.418L52.1484 79.0527L52.2461 79.3945V80.0781L52.2949 80.3711V80.9082L52.2461 81.543L52.1973 81.8359L52.0996 82.1289L51.9043 82.6172L51.7578 82.7637H51.6602V83.0566L51.709 83.2031L51.6602 83.3496L51.4648 83.5449L51.416 84.0332L51.2207 84.2285H51.123V84.3262L50.9277 84.4727H50.4395L50.3418 84.668H50.1953V84.5703L50 84.6191L50.0488 84.7656H49.707L49.3164 84.668L49.1699 84.7656L48.7793 84.7168L48.584 84.8145L48.4375 84.7656V84.9609L48.5352 85.0586L48.2422 85.1562L47.2656 85.0098L46.8262 84.8633L46.0449 84.668L45.3125 84.4238L44.7266 84.2773L43.75 83.8867L42.6758 83.3496L42.041 82.959L41.3086 82.5195L40.4297 81.9336L39.502 81.25L38.8672 80.7129L38.3789 80.3223L37.1582 79.1016L36.8164 78.7109L36.3281 78.1738L35.9863 77.7832L35.3027 76.9043L34.7168 76.0254L34.2773 75.3906L33.5449 74.2676L32.7148 72.6562L32.1289 71.2891L31.5918 69.873L31.0059 68.1152L30.4199 65.9668L30.0781 64.6484L29.7363 62.7441L29.2969 59.6191L29.0527 57.3242L28.9062 55.6641V51.0254L29.0039 49.3652L29.1504 48.4863L29.248 48.0957L29.3945 47.0215L29.541 46.1914L29.7363 45.1172L29.834 44.3848L29.9316 43.9453L29.9805 43.8965Z" fill="#373960"/>
<path d="M66.7969 74.6582L67.2363 74.8047L67.8711 75L68.5059 75.1465L68.6523 75.2441L68.2617 75.7812L67.8711 76.2695L67.1875 77.3438L66.748 78.0273L66.3574 78.5645L65.7227 79.4434L65.1367 80.3223L64.6484 81.0059L64.209 81.543L63.8672 81.9824L63.3301 82.6172L62.9883 83.0566L62.5488 83.5449L62.207 83.9355L61.7676 84.4238L60.5957 85.5957L60.0586 86.0352L59.375 86.5723L58.3496 87.3535L57.4707 87.8906L56.6406 88.3789L55.5664 88.916L54.834 89.2578L53.3691 89.7461L52.4902 89.9414L51.416 90.0879L50.7812 90.1367H49.2676L48.1445 89.9902L47.3145 89.7949L46.1426 89.4043L45.6055 89.1602L45.2148 89.0625L43.9941 88.4277L43.0176 87.8418L42.334 87.4023L42.0898 87.2559L41.5039 87.207L40.5762 87.5L39.1602 87.9883L38.2324 88.3301L37.4023 88.623L36.8164 88.7695L36.4258 88.916L35.498 89.2578L34.7656 89.5508L34.2285 89.7949L33.8379 89.9414L33.1055 90.2832L32.2754 90.7227L31.4941 91.1133L30.7129 91.5527L30.0293 91.8457L29.0039 92.4805L28.3691 92.9199L28.2715 92.9688H27.5879L27.0996 92.8711L26.4648 92.6758L25.8789 92.3828L25.1953 92.0898L24.6094 91.8945V91.7969L24.4141 91.748V91.6504L24.0234 91.4551V91.3574L23.8281 91.2598L23.1934 90.7227L22.7051 90.5273L21.9238 90.1367L21.582 89.7461L21.3867 89.5996V89.502L21.2402 89.4531L20.9961 89.1602L20.752 89.0625L20.7031 88.8672L20.5078 88.7695L20.0684 88.3301L18.9941 87.7441L18.7012 87.4023L18.3594 87.1094L18.0176 86.7188L17.5781 86.2793L17.2363 86.0352V85.8887L17.041 85.791L16.7969 85.5469L16.6504 85.498L16.6016 85.3027L16.4062 85.2051L16.2109 84.9609L15.8203 84.375L15.6738 84.1309L15.2344 83.5938L15.0391 83.3008L14.6484 83.1543H14.2578L13.5742 83.252L13.3301 82.959L13.4277 82.8613L14.0137 82.5684L14.6484 82.3242L15.6738 81.8359L16.4551 81.4453L17.1875 81.0547L17.8711 80.7129L18.7988 80.2246L19.7266 79.6875L20.4102 79.3457L20.8984 79.0527L21.582 78.7598L22.3145 78.3691L22.8027 78.125L23.7305 77.6855L24.1211 77.4902L25.2441 77.002L26.5625 76.416L27.9297 75.8789L29.2969 75.3906L29.8828 75.1465L30.4688 75.0488L30.9082 74.9512H31.6406L31.9336 74.9023L32.373 75.2441L32.8613 75.3906L32.9102 75.4883V75.8301L33.1055 76.1719L33.252 76.2207L33.3008 75.7324L33.3984 75.6348L33.6426 75.7812L33.7891 75.9766V76.0742H33.8867L33.9844 76.2695V76.416H34.2285L34.1309 76.0742L33.9355 75.9277L33.7891 75.5371L33.6914 75.4395L33.7402 75.1953H33.9355L33.9844 75L34.2285 75.2441L34.7656 76.0254L35.2539 76.7578L35.8887 77.5879L36.3281 78.0762L36.7676 78.6133L37.1582 79.0039L37.5 79.3945L38.5254 80.4199L39.209 80.957L39.9414 81.543L40.8691 82.1777L41.6992 82.7148L42.2852 83.0566L43.0176 83.4961L43.7012 83.7891L43.9453 83.9355L44.7266 84.2285L46.3867 84.8145L47.8516 85.1562L48.9746 85.4004L49.5117 85.5469L50.4883 85.498L50.9766 85.3516L51.9043 85.2051L53.2715 84.9121L54.541 84.5703L55.8594 84.082L56.8359 83.6914L58.5938 82.7637L59.5703 82.1777L60.1074 81.8359L60.5469 81.4941L61.0352 81.1035L61.4258 80.8105L61.9141 80.3711L62.1582 80.2246L62.5 79.9316L62.793 79.5898L63.0859 79.3457L63.3301 79.1016L63.8184 78.5645L64.1602 78.1738L64.5996 77.6855L65.0879 77.002L65.5273 76.4648L66.0156 75.7324L66.6016 74.8047L66.7969 74.6582Z" fill="#FCE4D5"/>
<path d="M44.3359 1.26953L44.7266 1.31836V1.41602L44.5312 1.51367H44.3848L44.3359 1.70898L44.1895 1.85547H44.0918L43.9941 2.05078L43.6523 2.29492L43.4082 2.58789H43.3105L43.2129 2.7832H43.1152L43.0176 2.97852L42.7246 3.36914H42.627L42.5293 3.61328L42.3828 3.85742H42.2852L42.1875 4.10156L41.8945 4.63867H41.7969L41.6992 4.93164L41.5039 5.37109L41.1133 6.15234L41.0156 6.44531L40.8691 6.93359L40.7227 7.4707L40.6738 7.76367V8.49609L40.918 9.61914L41.1621 10.6445L41.4551 11.5723L41.6992 12.4023L41.9922 13.5742L42.1875 14.5508L42.2363 15.0879L42.2852 16.3086L42.2363 17.1387L42.1387 17.8711L42.041 18.1641L41.9434 18.75L41.748 19.3359L41.5527 19.7754L41.4062 20.2148L41.2109 20.5566L40.9668 21.2402L40.625 21.582V21.9238L41.1133 22.168L41.0156 22.3145H40.2832L39.0137 21.9727L37.6465 21.582L36.3281 21.1426L34.4727 20.5566L33.1543 20.2148L32.7148 20.1172H32.4707L32.1777 20.6543L31.7871 22.0703L31.543 22.998L31.3965 23.9258L31.3477 24.5117V26.3672L31.3965 26.9531V28.418L31.25 29.4434L31.0547 30.2246L30.5664 31.2012L30.3711 31.6406L30.0781 32.1289L29.834 32.6172L29.6387 33.1543L29.2969 34.4238L29.1504 34.668L28.8086 34.8145L28.5645 34.8633L27.7344 34.5703L27.2949 34.1309L27.1973 33.8867L27.002 32.9102L26.5625 31.1523L25.9766 28.7109L25.4395 26.5137L25.0977 25.3906L24.8047 24.6094L24.2676 23.4375L23.6328 22.3145L23.0469 21.2891L22.4609 20.2148L21.9238 19.043L21.2891 17.3828L21.0938 16.748V16.5039L21.3867 16.3086L22.2656 16.1133L22.9492 16.0156L22.998 15.9668L22.9492 15.1367L22.8516 14.502L22.7539 13.0859L22.6562 12.0605V10.1562L22.7539 9.17969L23.0469 7.76367L23.6816 5.56641L24.0234 4.63867L24.3164 3.90625L24.6582 3.22266L25.0488 2.92969L25.3906 2.88086L26.123 3.07617L26.709 3.41797L27.3926 3.95508L27.9785 4.39453L28.4668 4.73633L29.1992 5.17578L30.0293 5.46875L31.25 5.71289L32.373 5.76172L33.3984 5.61523L34.7656 5.22461L36.1816 4.63867L37.5977 4.00391L39.3066 3.22266L40.5762 2.68555L42.627 1.85547L43.4082 1.5625L44.3359 1.26953Z" fill="#373960"/>
<path d="M66.7969 74.6582L67.2363 74.8047L67.8711 75L68.5059 75.1465L68.6523 75.2441L68.2617 75.7812L67.8711 76.2695L67.1875 77.3438L66.748 78.0273L66.3574 78.5645L65.7227 79.4434L65.1367 80.3223L64.6484 81.0059L64.209 81.543L63.8672 81.9824L63.3301 82.6172L62.9883 83.0566L62.5488 83.5449L62.207 83.9355L61.7676 84.4238L60.5957 85.5957L60.0586 86.0352L59.375 86.5723L58.3496 87.3535L57.4707 87.8906L56.6406 88.3789L55.5664 88.916L54.834 89.2578L53.3691 89.7461L52.4902 89.9414L51.416 90.0879L50.7812 90.1367H49.2676L48.1445 89.9902L47.3145 89.7949L46.1426 89.4043L44.9707 88.8672L43.7988 88.2324L42.6758 87.5L42.1387 87.1094L41.4551 86.5234L40.8203 85.9375L40.4297 85.6445V85.5469L40.2344 85.4492L39.4531 84.7168L39.209 84.4727V84.375L39.0137 84.2773V84.1797L38.8184 84.082L38.2812 83.4961L37.9395 83.1055L37.5 82.6172L37.3047 82.373V82.2754L37.1582 82.2266L36.5723 81.4453L36.084 80.7617L35.1074 79.2969L34.4727 78.418L33.4961 76.9531L32.9102 76.123L32.5684 75.6348L32.2754 75.3906V75.293L32.0801 75.1953L31.9824 75.0488H31.6895L31.3477 75.0977L30.9082 75V74.9512H31.6406L31.9336 74.9023L32.373 75.2441L32.8613 75.3906L32.9102 75.4883V75.8301L33.1055 76.1719L33.252 76.2207L33.3008 75.7324L33.3984 75.6348L33.6426 75.7812L33.7891 75.9766V76.0742H33.8867L33.9844 76.2695V76.416H34.2285L34.1309 76.0742L33.9355 75.9277L33.7891 75.5371L33.6914 75.4395L33.7402 75.1953H33.9355L33.9844 75L34.2285 75.2441L34.7656 76.0254L35.2539 76.7578L35.8887 77.5879L36.3281 78.0762L36.7676 78.6133L37.1582 79.0039L37.5 79.3945L38.5254 80.4199L39.209 80.957L39.9414 81.543L40.8691 82.1777L41.6992 82.7148L42.2852 83.0566L43.0176 83.4961L43.7012 83.7891L43.9453 83.9355L44.7266 84.2285L46.3867 84.8145L47.8516 85.1562L48.9746 85.4004L49.5117 85.5469L50.4883 85.498L50.9766 85.3516L51.9043 85.2051L53.2715 84.9121L54.541 84.5703L55.8594 84.082L56.8359 83.6914L58.5938 82.7637L59.5703 82.1777L60.1074 81.8359L60.5469 81.4941L61.0352 81.1035L61.4258 80.8105L61.9141 80.3711L62.1582 80.2246L62.5 79.9316L62.793 79.5898L63.0859 79.3457L63.3301 79.1016L63.8184 78.5645L64.1602 78.1738L64.5996 77.6855L65.0879 77.002L65.5273 76.4648L66.0156 75.7324L66.6016 74.8047L66.7969 74.6582Z" fill="#F7B386"/>
<path d="M50.3906 56.2012H51.123L51.8555 56.4453L53.0273 56.7871L54.541 57.0801L55.8594 57.2754L57.0312 57.373L57.8613 57.5195L58.6914 57.7148L59.2285 57.959L59.2773 58.1055L58.7891 58.9844L58.3496 59.9121L57.5684 61.4746L57.1777 62.0605L56.7871 62.5488L56.3477 62.9883L55.6641 63.4766L54.9316 63.8184L54.1504 64.1113L52.9785 64.4043L51.709 64.5508H50.8301L50.0977 64.4531L48.0957 64.3066L46.875 64.1113L46.1426 63.8672L45.2637 63.4766L44.5801 63.0859L44.0918 62.6465L43.7012 62.3047L43.2617 61.6211L42.8711 60.9863L42.4316 59.9609L42.1387 59.082V58.7402L42.334 58.3496L42.9688 57.959L43.4082 57.8125L44.4336 57.6172L45.9961 57.373L48.4375 56.8359L49.707 56.4453L50.3906 56.2012Z" fill="#F7B486"/>
<path d="M37.9883 32.0801H39.4043L40.7227 32.2266L42.5781 32.5195L45.0195 33.0078L45.9473 33.252L46.3867 33.4961L46.6797 33.8379L46.9238 34.3262L47.168 35.0586L47.3633 35.5469V35.6934H46.9238L46.1914 35.498L44.9219 35.1562L42.8711 34.7168L41.2109 34.4238L40.5762 34.3262L38.7695 34.1797H37.4023L36.6699 34.2773L35.8398 34.7168L35.3027 35.1074L35.0586 35.3027L34.9609 35.498L34.375 35.7422H33.9355L33.8867 35.5957L34.2285 34.668L34.5215 34.1309L35.2051 33.252L35.6934 32.8125L36.4258 32.373L37.3535 32.1289L37.9883 32.0801Z" fill="#373960"/>
<path d="M62.0117 32.1777H63.4766L64.209 32.3242L64.8438 32.5684L65.4785 32.959L65.8203 33.252L66.4551 34.082L66.7969 34.8633L67.0898 35.1562V35.498L66.8945 35.5957L66.6504 35.5469L66.2598 35.2051L66.0645 35.0098L65.4785 34.6191L64.8438 34.3262L64.209 34.1797L63.7207 34.082L62.8906 34.0332L61.0352 34.2773L59.668 34.5215L58.6426 34.8145L57.7148 35.0098L56.4453 35.2051L54.7852 35.7422L54.3457 35.8398H54.0039L53.9062 35.6934L53.8574 35.0098L54.1016 34.2285L54.3945 33.7891L54.7852 33.3496L55.1758 33.1055L56.1523 32.8613L57.8125 32.5684L58.8867 32.4219L61.3281 32.2266L62.0117 32.1777Z" fill="#373960"/>
<path d="M40.8691 37.2559L41.6016 37.3047L42.4805 37.4512L43.2617 37.7441L43.6035 38.0371L43.7012 38.3301V39.0625L43.6523 39.7949L43.457 40.1855L43.2617 40.4297L43.2129 40.5762L43.0176 40.6738L42.8223 40.8691L42.3828 40.9668L41.0156 41.0156L40.0879 40.918L39.5996 40.7227L39.209 40.4297L39.0625 40.2344L38.916 39.4531L38.8672 38.916V38.0859L39.0625 37.5L39.3066 37.4023L40.8691 37.2559Z" fill="#42426B"/>
<path d="M59.8145 37.207L60.8398 37.2559L61.377 37.4023L61.9141 37.6953L62.2559 38.1836L62.4023 38.5742V39.1113L62.2559 39.5996L62.0117 40.0391L61.8164 40.2344L61.4746 40.625L61.0352 40.8203L60.8398 40.918L60.0098 41.0156H58.7891L58.4961 40.918L58.1055 40.6738L57.8125 40.5273L57.7148 40.3809V40.0879H57.6172L57.3242 39.502V38.8184L57.4707 38.2812H57.5684L57.6172 38.0859L57.9102 37.7441L58.4473 37.5488L59.8145 37.207Z" fill="#43426A"/>
<path d="M62.0117 32.1777H63.4766L64.209 32.3242L64.8438 32.5684L65.4785 32.959L65.8203 33.252L66.4551 34.082L66.7969 34.8633L67.0898 35.1562V35.498L66.8945 35.5957L66.6504 35.5469L66.2598 35.2051L66.0645 35.0098L65.4785 34.6191L64.8438 34.3262L64.209 34.1797L63.7207 34.082L62.8906 34.0332L61.0352 34.2773L59.668 34.5215L58.6426 34.8145L58.1543 34.9121H57.9102L58.0566 34.8145L58.7891 34.668L59.4238 34.4238L59.4727 34.2285L59.3262 34.1797L59.1797 33.8867V33.7402L59.2285 33.6426L59.668 33.5449H59.8633L60.0586 33.3496H60.1562V33.252L59.8633 33.3496L59.5215 33.3008L59.2773 33.252H59.1309V33.1543H59.2773V33.0078L59.7656 32.8613L59.8145 32.8125L60.2539 32.8613L60.4492 32.9102L60.7422 32.8125L60.9375 32.9102L61.377 32.8613L62.0117 32.666L62.4512 32.7148L62.5977 32.666L62.7441 32.4707L63.0859 32.4219L63.0371 32.3242H60.5957V32.2754L62.0117 32.1777Z" fill="#41416A"/>
<path d="M29.4922 46.3379H29.541L29.6387 46.7285V46.875V47.4121L29.6875 47.5586V48.3398L29.4922 48.3887L29.6875 48.4863L29.7363 48.7305V49.0234L29.834 49.5117L29.8828 49.8047V50.5371L29.9316 51.1719L29.9805 51.5625L29.9316 52.832L30.1758 52.6855L30.2246 53.0273L30.0293 52.9297L29.9805 53.0762L30.0293 53.2715L29.9316 53.5156V54.0039L29.8828 54.3457V54.834L29.834 55.2734V56.1523L29.7363 56.5918V57.373L29.7852 57.9102V58.7891L29.834 59.2285V59.7656L29.8828 60.0098L29.7852 60.3027V60.6934L29.6875 60.8887H29.5898L29.6875 61.1816L29.7852 61.8164L29.834 62.0605V62.5977L29.9316 63.1836L30.0293 63.6719V63.8184L30.127 63.8672L30.1758 64.0137V64.1602V64.5508L30.4688 65.3809L30.5176 65.918L30.8105 66.9922L30.9082 67.2363L31.0059 67.6758L31.25 68.457V68.7012L31.1523 68.5547L30.7129 67.0898L30.2734 65.4297L30.0293 64.4043L29.6875 62.4512L29.2969 59.6191L29.0527 57.3242L28.9062 55.6641V51.0254L29.0039 49.3652L29.1504 48.4863L29.248 48.0957L29.3945 47.0215L29.4922 46.3379Z" fill="#473D61"/>
<path d="M68.9453 75.3906H69.8242L70.2148 75.5859L70.4102 75.7812V75.8789L70.166 76.123L70.2637 76.416L70.3613 76.5625V76.8555L70.166 77.1973L69.8242 77.4414L69.5801 77.6855L68.8965 78.2227L68.4082 78.5645L67.8711 79.0039L67.3828 79.5898L67.0898 79.9316L66.8457 80.1758L66.4551 80.7129L66.2109 80.9082H66.1133V81.0059L65.9668 80.957L66.0156 80.6152L66.3574 79.834L66.5039 79.4922L66.5527 79.248L66.2598 79.3457L66.2109 79.1504L66.6016 78.4668L66.9922 78.0273L67.1387 77.4902L67.5293 76.9043H67.627L67.7246 76.709L68.2617 76.0742L68.6035 75.5859L68.9453 75.3906Z" fill="#FDFCFC"/>
<path d="M22.7051 12.3535L22.9492 12.4512L23.1934 12.8906L23.2422 13.1836L23.3398 13.8672L23.2422 14.3555L23.0957 14.502L23.1934 15.3809L23.2422 15.7227L23.1934 16.0645L22.8516 16.2109L21.875 16.3574L21.5332 16.6016H21.4355L21.3379 16.7969L21.4844 16.8457L21.4355 17.041H21.5332L21.6309 17.5293L21.7773 17.9688L22.0703 18.75L22.2168 19.2383L22.5098 19.6777L22.6562 20.2148L22.7539 20.3125L22.9492 20.8008L23.2422 21.2402L23.3887 21.582L23.6328 21.9727L23.8281 22.3633L24.0723 22.6562L24.2188 22.9004V22.998H24.3164L24.5605 23.2422L24.707 23.4863L24.8047 23.7305L24.9512 23.9258L25.1465 24.1211L25.3906 24.8047L25.5371 24.9512H25.7324L25.7812 25.1953H25.6836L25.7812 25.5371H25.8789L25.9766 25.8789L25.8789 25.9277L25.9766 26.2695V26.4648L25.6836 26.5625L25.6348 26.8066L25.9766 28.2227L26.123 28.8086L26.3672 29.0039L26.4648 29.248L26.5137 29.0527L26.5625 29.1992L26.709 29.248L26.8066 29.9805L26.9043 30.0293L26.8555 30.8105L27.0996 30.8594L27.1484 30.7129L27.2949 30.957V31.4453L27.5391 32.4707V33.5938L27.4902 34.0332L27.7832 34.4727L27.9297 34.5703L27.6855 34.5215L27.2949 34.1309L27.1973 33.8867L27.002 32.9102L26.5625 31.1523L25.9766 28.7109L25.4395 26.5137L25.0977 25.3906L24.8047 24.6094L24.2676 23.4375L23.6328 22.3145L23.0469 21.2891L22.4609 20.2148L21.9238 19.043L21.2891 17.3828L21.0938 16.748V16.5039L21.3867 16.3086L22.2656 16.1133L22.9492 16.0156L22.998 15.9668L22.9492 15.1367L22.8516 14.502L22.7539 13.0859L22.7051 12.3535Z" fill="#473D61"/>
<path d="M43.7012 38.1836L44.043 38.2812L44.9707 38.8672L45.8496 39.4043L46.4355 39.8438L46.7285 40.0391L46.7773 40.2832L46.582 40.4297L45.2637 40.625L43.457 40.8691L43.1152 40.918L43.0176 40.7715L43.1641 40.5762L43.3594 40.2344L43.5547 39.9414L43.6035 39.7949L43.7012 38.1836Z" fill="#FDF4EB"/>
<path d="M39.0137 37.4512L39.1113 37.5L38.916 38.0859V38.916L39.0137 39.7461L39.1113 40.2344L39.1602 40.2832V40.5273L38.7207 40.4785L36.5234 39.7949L36.1816 39.502L36.2793 39.2578L36.5234 39.0137L37.0605 38.6719L37.5977 38.2324L37.9883 38.0371L38.4277 37.7441L39.0137 37.4512Z" fill="#FDF2E9"/>
<path d="M57.2266 38.4766L57.373 38.5254V39.502L57.6172 39.9902V40.0879H57.7148L57.8125 40.4785L58.0566 40.625L58.3008 40.8691V40.9668L58.0078 40.918L57.666 40.8203L56.543 40.7227L55.5664 40.5762L54.8828 40.5273L54.541 40.2344L54.5898 39.9902L55.2246 39.4531L56.25 38.7695L56.5918 38.5742L57.2266 38.4766Z" fill="#FDF4EC"/>
<path d="M72.9004 76.123L73.2422 76.1719L73.9258 76.4648L74.707 76.7578L75.7812 77.2461L76.3184 77.4414L77.2461 77.9297L77.7344 78.0762L78.0762 78.2715L78.5645 78.5645L79.4434 78.9551L80.3223 79.4434L81.1035 79.834L81.7871 80.2246L82.5684 80.6641L83.0078 80.9082L83.6914 81.2988L84.4727 81.7383L85.5957 82.373L86.1816 82.7148L86.4258 82.959L86.5234 83.1055L86.377 83.1543L85.791 82.9102L85.1074 82.5684L84.6191 82.2754L83.8379 81.8848L83.1055 81.4453L82.3242 81.0547V80.957L82.1289 80.9082L81.2012 80.4199L80.957 80.2734L80.5664 80.0293L79.7852 79.6387L79.3457 79.3457L78.2227 78.8086L77.832 78.5645L76.709 77.9785L75.9766 77.5879L74.707 77.002L74.6582 76.8555L74.2188 76.709L72.9004 76.1719V76.123Z" fill="#FDE5D6"/>
<path d="M62.3047 38.0859H62.8418L63.9648 38.623L64.3555 38.9648L64.8926 39.209L64.9902 39.3555L64.9414 39.6484L64.6973 39.8438L64.0625 40.0391L63.4277 40.2832L62.4023 40.5273H61.8652L61.7676 40.4785L61.9141 40.0391L62.0605 39.8926L62.3047 39.3555L62.3535 39.1113V38.5742L62.3047 38.0859Z" fill="#FDF4EC"/>
<path d="M22.6562 12.4023H22.7051L22.8027 13.0859L22.9004 14.502L23.0469 15.5762V15.9668L22.9492 16.0645L22.0703 16.2109L21.2891 16.4062L21.1426 16.5039L21.1914 16.8945L21.5332 17.9199L22.0703 19.2383L22.5098 20.2148L22.998 21.1426L23.3887 21.7773L23.6816 22.3145L24.3164 23.4375L24.7559 24.3652L25.1953 25.4883L25.5371 26.6602L26.0254 28.7109L26.5137 30.7129L27.002 32.7637L27.1973 33.5449L27.2949 33.9844L27.4414 34.2285L27.7344 34.5215L27.9297 34.6191L27.5879 34.5703L27.3438 34.4238L27.1484 34.375V34.2773H27.0508V34.1797H26.9531V33.4473L26.709 32.2754L26.3672 30.7129L26.0742 29.541L25.8301 28.5156L25.6836 28.0273L25.5371 27.2949L25.293 26.3672L25.0488 25.5371L24.707 24.6094L24.1211 23.3887L23.584 22.5098L23.1934 21.875L22.8516 21.3379L22.6074 20.8496L22.3633 20.459L21.6797 18.9453L21.4844 18.4082L21.1426 17.5293L21.0449 17.0898L20.9473 16.8457V16.4551L21.1914 16.2598L21.9238 16.0156H22.168L22.2168 15.8691L22.5586 15.7715L22.6074 15.6738V14.4531L22.5098 14.2578V14.1602L22.6074 14.1113L22.6562 13.623V12.9883L22.6074 12.7441L22.6562 12.4023Z" fill="#C2686B"/>
<path d="M29.2969 47.2656H29.3457V47.7051L29.248 48.3887L29.1504 48.7305L29.0527 49.4629L28.9551 51.0254V55.6641L29.1992 58.252L29.4434 60.4004L29.834 63.0859L30.2246 65.0879L30.8594 67.4316L31.2988 68.8477L31.7383 70.166L32.3242 71.6309L32.8125 72.7539L33.3496 73.8281L33.4473 74.0723L33.252 73.877L32.666 72.8027L32.1777 71.6309L31.7871 70.6543L31.543 69.9707L30.8594 67.9688L30.3711 66.2109L30.0781 64.9902L29.7852 63.623L29.5898 62.5L29.3457 60.5469L29.0039 58.0566L28.9062 56.9336L28.8086 56.4941L28.7109 54.4922V50.293L28.6621 49.4141V48.6816L28.8086 48.4863L29.1016 48.3887L29.1504 48.291L29.1992 47.5098H29.248L29.2969 47.2656Z" fill="#C2686B"/>
<path d="M70.7031 44.1895L70.8008 44.2383L70.9473 44.7266L71.1426 47.0215V47.6074L70.8984 47.6562L70.6543 47.6074L70.459 47.5098L70.2148 47.7051L70.166 47.9004L69.9707 48.2422L69.7754 48.4375L69.3848 49.1211L69.2383 49.4629L69.1895 49.5605H69.0918V49.6582L68.8965 49.7559L68.7988 49.9512L68.5547 50.1953L68.6523 49.9023L69.3359 48.4863L70.0684 46.6309L70.2148 46.1426L70.3613 45.7031L70.5078 45.0195L70.6055 44.4336L70.7031 44.1895Z" fill="#383960"/>
<path d="M60.4492 19.5312H60.6934V19.8242L59.3262 20.4102L57.9102 20.9473L56.543 21.4355L54.4922 22.0215L53.5156 22.2656H53.2227L53.2715 22.1191L53.5645 21.9238L54.0039 21.8262L54.1992 21.7285L54.6875 21.6309L54.7852 21.6797V21.582L55.0293 21.5332L55.3711 21.4355L55.7617 21.1914L56.3965 20.9961L56.7383 20.8496L57.1777 20.752L57.373 20.7031V20.6055L58.252 20.2637L58.5449 20.2148H58.6914L59.1797 19.9707L59.7656 19.7266L60.3516 19.5801L60.4492 19.5312Z" fill="#383960"/>
<path d="M64.7461 32.8125L65.0879 32.8613L65.625 33.2031L66.0156 33.6426L66.4062 34.1797L66.5527 34.4727V34.7168L66.5039 34.7656L66.6504 35.1562L66.7969 35.2539L67.041 35.3027V35.5469L66.748 35.5957L66.4062 35.2539V35.1074L66.2109 35.0098L65.8203 34.7656L65.4297 34.4727L65.1367 34.3262L64.5996 34.082L64.209 33.9355L63.7695 33.8379L63.6719 33.5938L63.8672 33.4473H64.3555L64.7461 33.6426L64.8438 33.5449L64.7461 33.1055L64.6973 32.9102L64.5996 32.8613L64.7461 32.8125Z" fill="#373960"/>
<path d="M43.8965 49.9512H45.6543L47.4609 50.3418L48.2422 50.5859L49.707 51.123L50.5859 51.3672H51.4648L51.416 51.5137L50.7324 51.6113H50.0488L49.7559 51.5137L49.6094 51.3672L49.4629 51.416L49.4141 51.3184L49.3164 51.3672L49.1699 51.2207L48.7305 51.0254L48.6328 50.9766H48.1934L48.0957 50.8789L47.5098 50.7812L47.2168 50.6348L46.8262 50.5859L46.5332 50.4883L46.2402 50.4395L45.752 50.3906L45.3125 50.293L45.0195 50.3906H44.7754L44.6777 50.293L44.3359 50.1953L44.043 50.3418L43.5547 50.3906L43.3105 50.4883H43.1152V50.5859H42.7734L42.2852 50.6836V50.5371L42.0898 50.5859L42.2363 50.4395L42.8223 50.1953L43.2617 50.0488L43.8965 49.9512Z" fill="#383960"/>
<path d="M72.9004 76.123L73.2422 76.1719L73.9258 76.4648L74.707 76.7578L75.7812 77.2461L76.3184 77.4414L77.2461 77.9297L77.7344 78.0762L78.0762 78.2715L78.5645 78.5645L79.4434 78.9551L80.3223 79.4434L81.1035 79.834L81.7871 80.2246L82.5684 80.6641L83.0078 80.9082L83.6914 81.2988L84.4727 81.7383L85.5957 82.373L86.1816 82.7148L86.4258 82.959L86.5234 83.1055L86.3281 83.0078L85.1562 82.373L84.8145 82.1289L84.0332 81.7383L83.3984 81.3477L82.7148 81.0059L81.9336 80.5664L81.0547 80.0781L80.0293 79.541L79.1504 79.0527L78.5156 78.7598L77.6367 78.2715L77.1973 78.0762L76.416 77.6855L75.6348 77.3438L74.9023 77.002L73.291 76.3184L72.9004 76.1719V76.123Z" fill="#F8B587"/>
<path d="M74.2188 14.3555L74.4629 14.5996L75 15.4297L75.4395 16.3574L75.6836 17.041L75.7812 17.2852L75.9766 18.2617L76.0742 19.6289V23.0469L75.8789 25.0488L75.5859 26.8555L75.1953 28.7109L75 29.541L74.4141 31.7383L74.1699 32.7148L74.0234 33.4961L73.9746 34.375L73.9258 34.4238L73.3398 34.4727L73.4863 34.375L73.877 34.3262L73.9258 33.3984L74.1211 32.373L74.9512 29.2969L75.293 27.6367L75.5371 26.416L75.7812 24.6582L75.9277 22.9004V19.3848L75.7812 18.0176L75.5371 16.9922L75.1465 16.0156L74.7559 15.2344L74.3652 14.6484L74.2188 14.4531V14.3555Z" fill="#C2686B"/>
<path d="M62.3047 38.0859H62.8418L63.9648 38.623L64.3555 38.9648L64.8926 39.209L64.9902 39.3555L64.9414 39.6484L64.6973 39.8438L64.0625 40.0391L63.4277 40.2832L62.4023 40.5273H61.8652L61.7676 40.4785L61.9141 40.0391L62.0605 39.8926L62.3047 39.3555L62.3535 39.5508L62.4023 39.7949L62.6953 39.9414H63.8184L64.6484 39.7461L64.8438 39.5996L64.7949 39.2578L64.209 39.0625L63.4277 38.6719L63.2324 38.5254L62.6953 38.4277L62.3047 38.2812V38.0859Z" fill="#FCE1D2"/>
<path d="M30.3711 48.8281H30.6152L30.9082 49.1699L31.0059 49.4141V50H30.9082L30.8105 50.4883L30.957 50.6836L30.9082 50.8301H30.7129L30.5664 51.4648L30.4199 51.5137V51.6602H30.3223L30.2246 51.5137V50.7812L30.3223 50.5859V50.4395H30.2246L30.1758 50.293V49.8047L30.127 49.6582L30.2246 49.2188L30.2734 48.9258H30.3711V48.8281Z" fill="#41416A"/>
<path d="M30.9082 47.0703L31.0547 47.2656L31.3477 48.0469L32.1777 49.8047L32.6172 50.5859L33.0078 51.2207L33.4473 51.8555L33.7891 52.2949L34.2285 52.832L34.668 53.2715L35.1562 53.6621L35.791 54.1504L36.2305 54.541L36.9629 54.9316L37.1582 54.8828L37.3535 54.5898L37.5 54.2969L37.5488 54.3945L37.3047 54.8828L37.1094 55.0781H36.8652L35.9375 54.5898L35.3027 54.1016L34.7168 53.5645L34.375 53.2715L33.9355 52.7344L33.5938 52.3438L33.0078 51.5625L32.4219 50.5859L32.0312 49.8047L31.4453 48.584L31.0059 47.4609L30.9082 47.2168V47.0703Z" fill="#D06066"/>
<path d="M58.7402 50.3906L59.0332 50.4395L59.8633 50.7324L60.8398 51.2207L61.6211 51.7578L61.9629 52.002L62.1582 52.1973L62.5488 52.5391L63.1348 53.0762L63.4766 53.4668L63.6719 53.6621V53.7598L63.8672 53.8574L64.0625 54.1992L64.3555 54.6387L64.5996 54.7363L65.2832 54.1992L65.4785 54.0527L65.5762 54.1016L64.9902 54.6387L64.6973 54.8828H64.4043L64.0625 54.6387L63.4277 53.8086L63.1348 53.418L62.3047 52.5879L61.8652 52.2461L61.377 51.8555L60.791 51.4648L60.5469 51.2695L59.6191 50.7812L58.8379 50.4883L58.7402 50.3906Z" fill="#C56669"/>
<path d="M23.9746 77.5391L24.1211 77.5879L23.4375 77.9785L22.4609 78.418L21.9727 78.7109L20.752 79.2969L20.2637 79.5898L18.9941 80.2734L18.4082 80.6152L17.627 81.0059L16.748 81.4941L15.9668 81.8848L14.7949 82.4219L13.8672 82.9102L13.5254 83.1055H13.4277L13.3301 82.9102L14.0137 82.5684L14.6484 82.3242L15.6738 81.8359L16.4551 81.4453L17.1875 81.0547L17.8711 80.7129L18.7988 80.2246L19.7266 79.6875L20.4102 79.3457L20.8984 79.0527L21.582 78.7598L22.3145 78.3691L22.8027 78.125L23.7305 77.6855L23.9746 77.5391Z" fill="#F8B587"/>
<path d="M42.2852 59.4238L42.3828 59.4727L42.627 60.0586L42.7734 60.3027L42.9688 60.791L43.3105 61.4258L43.8965 62.2559L44.2871 62.6465L44.8242 63.0859L45.6543 63.5254L46.5332 63.8672L47.6074 64.1113L48.6328 64.209L50.1465 64.3066L50.9766 64.4531H51.6113L52.3438 64.3555L53.3203 64.209L53.7109 64.1113H53.9551L53.7598 64.209L52.9785 64.4043L51.709 64.5508H50.8301L50.0977 64.4531L48.0957 64.3066L46.875 64.1113L46.1426 63.8672L45.2637 63.4766L44.5801 63.0859L44.0918 62.6465L43.7012 62.3047L43.2617 61.6211L42.8711 60.9863L42.4316 59.9609L42.2852 59.5703V59.4238Z" fill="#C2686B"/>
<path d="M68.6035 22.1191L68.7012 22.2656L68.8965 22.9004L69.1895 24.1211L69.2871 25.1953V25.6836L69.1406 27.2949V28.8086L69.2871 29.5898L69.3848 29.7852L69.3359 29.9316L69.1406 29.4922L68.9941 28.8574L68.9453 28.4668V24.1699L68.8965 23.4863L68.6523 22.4609L68.6035 22.1191Z" fill="#C2686B"/>
<path d="M86.2305 83.252H86.3281L86.2305 83.4473L84.7656 85.0098L84.668 85.0586L84.7656 84.8633L85.1074 84.2773L84.7656 84.2285L84.668 84.0332V83.6914L84.9121 83.3984L85.1074 83.3008L86.2305 83.252Z" fill="#FDFDFD"/>
<path d="M50.3906 56.2012H51.123L51.8555 56.4453L53.0273 56.7871L54.541 57.0801L55.8594 57.2754L57.0312 57.373L57.8613 57.5195L58.252 57.6172V57.666H57.9102L57.5684 57.5684L56.3477 57.4219H55.9082L54.8828 57.2754L54.1016 57.1289L52.8809 56.8848L51.6113 56.4941L51.2695 56.3477H50.2441L49.7559 56.543L48.584 56.9336L48.0957 57.0801L46.7773 57.3242L45.166 57.666L43.9453 57.8125H43.6523V57.7637L44.8242 57.5684L46.2402 57.3242L48.4375 56.8359L49.707 56.4453L50.3906 56.2012Z" fill="#C2686B"/>
<path d="M42.9688 37.793L43.2129 37.8418L43.6523 38.1348L43.7012 38.3301V39.0625L43.6523 39.7949L43.457 40.1855L43.1641 40.5273V40.3809L43.2617 40.2344L43.1152 40.0879L43.1641 39.7461L43.2617 39.6973L43.2129 39.4043L43.2617 39.3555V39.1113L43.0664 38.6719L43.1152 38.3789L42.9688 38.3301L42.8223 38.0371L42.9688 37.793Z" fill="#393A60"/>
<path d="M45.2637 33.1055L45.6055 33.1543L46.0938 33.3008L46.5332 33.6426L46.875 34.1797L47.168 35.0586L47.3633 35.5469V35.6934H46.9238L47.0703 35.5957H47.2168L47.0703 35.3516L46.9727 35.4004H46.6797L46.4355 35.1074V34.8145L46.2891 34.8633L46.2402 34.7656V34.2285L46.2891 34.082L46.582 34.0332L46.6797 34.1309L46.3379 33.6914L46.0938 33.5449L45.9473 33.3984L45.2637 33.1543V33.1055Z" fill="#41416A"/>
<path d="M39.8926 34.2285H40.7227L41.5039 34.2773L41.748 34.3262V34.4238L42.041 34.375L42.0898 34.2773L42.8223 34.3262L43.2129 34.4727H43.3594L43.8965 34.6191L44.3359 34.7168L44.4336 34.7656V34.9121L45.2637 35.1074L45.9961 35.3027L46.5332 35.498L46.9238 35.5957L46.7285 35.6445L45.5078 35.3027L43.1641 34.7656L41.2109 34.4238L40.5762 34.3262L39.8926 34.2773V34.2285Z" fill="#42416A"/>
<path d="M22.7051 12.3535L22.9492 12.4512L23.1934 12.8906L23.2422 13.1836L23.3398 13.8672L23.2422 14.3555L23.0957 14.502L23.1934 15.3809L23.2422 15.7227L23.1934 16.0645L23.0957 16.0156V15.7227L22.998 15.5762L22.8516 14.502L22.7539 13.0859L22.7051 12.3535Z" fill="#473C60"/>
<path d="M59.3262 38.2324H59.668L59.6191 38.4766L59.8633 38.6719H60.0586L60.1074 38.3301H60.3027L60.498 38.4766L60.4492 39.0137L60.2539 39.0625L60.0586 39.0137L59.9121 39.0625L59.9609 39.5508L59.9121 39.6484L59.375 39.502L59.3262 39.1113L59.1797 38.916L59.2285 38.7207L59.2773 38.3789L59.3262 38.2324Z" fill="#373960"/>
<path d="M72.998 13.3789L73.1934 13.4277L73.4375 13.623L73.6816 13.7207L74.0723 14.1602L74.4141 14.6484L74.4629 14.9414L74.5605 15.0391V15.1855H74.6582L74.9023 15.625V15.7227L74.6582 15.6738L74.3164 15.2832L73.877 14.7461L73.3887 14.0625L73.0469 13.6719L72.9492 13.4277L72.998 13.3789Z" fill="#383960"/>
<path d="M29.7852 32.4707L29.834 32.6172L29.6387 33.1543L29.2969 34.4238L29.1504 34.668L28.8086 34.8145L28.5645 34.8633L27.9297 34.6191L28.0762 34.4238V34.3262H28.1738L28.2227 34.1797L28.6133 34.0332V33.9355H28.7598V33.8379L29.0039 33.8867L29.1504 34.0332L29.248 34.1797L29.4434 33.4473L29.7852 32.4707Z" fill="#424169"/>
<path d="M62.8906 33.9844L63.7207 34.0332L64.9902 34.3262L65.7227 34.7168L65.8691 34.9121L65.5762 34.8145L65.0879 34.6191L64.8926 34.4727L64.4043 34.375L64.0137 34.2773H62.1094L60.5957 34.4238L59.6191 34.6191L58.9355 34.8145H58.6426V34.7656L59.8633 34.4238L61.6699 34.1309L62.8906 33.9844Z" fill="#C2686B"/>
<path d="M68.1641 7.71484L68.2617 7.76367L68.457 8.78906L68.6523 9.27734L69.1406 9.86328L69.3848 10.2539L69.873 10.6934L70.166 10.8887L70.5566 11.1816L71.2402 11.6699L71.9727 12.207L72.6074 12.6465V12.7441L72.8027 12.8418L73.3398 13.2812L73.877 13.8184L73.8281 13.916L73.1934 13.2812L72.7539 12.9395L71.9238 12.3047L71.0938 11.7188L70.6055 11.377L69.873 10.8887L69.1895 10.2539L68.5059 9.22852L68.3105 8.69141L68.1641 8.05664V7.71484Z" fill="#C2686B"/>
<path d="M33.3984 52.0996L33.6426 52.3438L34.2773 53.0762L34.6191 53.4668L35.0098 53.8086L35.5469 54.248L36.1816 54.6875L36.8652 55.0293H37.1094L37.3535 54.7363L37.5 54.3945L37.5977 54.4922L37.6465 54.834L37.9395 54.7852L37.8906 55.0293L37.9395 55.1758H37.8418L37.793 55.2734L37.5977 55.3223V55.1758H37.5L37.4512 54.9316L37.2559 54.9805L37.1582 55.1758L36.9141 55.2246L36.1328 54.834L35.4492 54.3457L34.9609 53.9551L34.2285 53.2227V53.125H34.1309L33.7891 52.6855L33.3984 52.1973V52.0996Z" fill="#473D61"/>
<path d="M40.6738 38.5254L40.918 38.5742L41.0156 38.7207L41.2109 38.8184L41.2598 39.2578L41.3574 39.4531L41.6992 39.3066L41.9434 39.209L42.1387 39.3066L42.0898 39.5508L41.9922 39.5996H41.6992L41.5039 39.6973L41.3086 39.6484L41.1133 39.7461L40.918 39.6484V39.5508H40.8203L40.625 38.916V38.5742L40.6738 38.5254Z" fill="#373960"/>
<path d="M54.7363 39.8438L54.834 39.8926L54.7363 39.9902V40.1855L54.9316 40.2832V40.3809L55.8594 40.4297L57.373 40.5762H57.7637L57.8613 40.5273L58.0566 40.625L58.3008 40.8691V40.9668L58.0078 40.918L57.666 40.8203L56.543 40.7227L55.5664 40.5762L54.8828 40.5273L54.541 40.2344L54.5898 39.9902L54.7363 39.8438Z" fill="#FCE4D5"/>
<path d="M61.8164 32.1289H63.623L64.502 32.3242L64.9902 32.5195L65.4297 32.8125L65.8691 33.1543L66.2598 33.6426L66.6992 34.4238L67.041 35.1074L66.748 34.8633L66.4062 34.082L65.8691 33.3984L65.6738 33.1543L65.1855 32.8125L64.502 32.4707L64.0625 32.3242L63.4766 32.2266H62.0117L60.1074 32.373H59.5215V32.3242L61.8164 32.1289Z" fill="#C2686B"/>
<path d="M39.5508 53.8574H39.6973L39.5996 54.0527L39.502 54.1992L39.5508 54.4434L39.6973 54.3457L39.7949 53.9551L40.0391 53.9062L40.1855 53.9551L40.2832 54.2969L40.1855 54.4434L40.0391 54.3945L39.9414 54.3457L39.8926 54.4434H39.7949L39.7461 54.7363L39.502 54.9316H39.4043V54.7363H39.1113L39.0625 54.3457L38.9648 54.2969L39.0137 54.1504L39.209 54.0039L39.3555 54.0527V53.9551L39.5508 53.8574Z" fill="#41416A"/>
<path d="M64.2578 78.0762V78.2227L63.8672 78.7109L63.1836 79.4434L62.207 80.4199L61.7676 80.7617L61.1816 81.2012L60.8887 81.3965L60.0098 82.0312L59.9121 81.9824L60.4004 81.5918L61.377 80.8594L61.6211 80.6152L61.9141 80.3711L62.1582 80.2246L62.5 79.9316L62.793 79.5898L63.0859 79.3457L63.3301 79.1016L63.8184 78.5645L64.1602 78.1738L64.2578 78.0762Z" fill="#C2686B"/>
<path d="M31.8359 21.7773L31.8848 21.9727L31.7383 22.4121L31.543 23.4863L31.4453 24.4141V26.123L31.4941 26.9531V28.2227L31.3965 29.1016L31.2988 29.248V28.8086L31.3477 28.418V26.9531L31.2988 26.3672V24.5117L31.4453 23.2422L31.6895 22.2168L31.8359 21.7773Z" fill="#C2686B"/>
<path d="M62.3047 38.0859H62.8418L63.9648 38.623L64.3555 38.9648L64.8926 39.209L64.9902 39.3555L64.9414 39.6484L64.6973 39.8438L64.3066 39.8926L64.3555 39.7949L64.6973 39.6973L64.8438 39.5996L64.7949 39.2578L64.209 39.0625L63.4277 38.6719L63.2324 38.5254L62.6953 38.4277L62.3047 38.2812V38.0859Z" fill="#FDE5D6"/>
<path d="M42.2852 59.4238L42.3828 59.4727L42.627 60.0586L42.7734 60.3027L42.9688 60.791L43.3105 61.4258L43.8965 62.2559L44.2871 62.6465L44.8242 63.0859L45.6543 63.5254L46.0449 63.6719V63.7695L45.5566 63.623L44.6289 63.1348L44.0918 62.6465L43.7012 62.3047L43.2617 61.6211L42.8711 60.9863L42.4316 59.9609L42.2852 59.5703V59.4238Z" fill="#CD6167"/>
<path d="M27.6367 76.0742L28.0273 76.123L28.0762 76.2207L27.9297 76.4648L27.3438 76.6113L26.7578 76.8555L26.2207 77.002L25.8789 77.1484L25.8301 77.0508L25.8789 76.9531L26.0742 76.9043L26.1719 76.9531L26.2207 76.7578L26.416 76.709L26.6113 76.7578L26.6602 76.5137L26.9043 76.4648H27.0996L27.1484 76.3184L27.4902 76.1719L27.6367 76.0742Z" fill="#FEF5ED"/>
<path d="M57.7148 0.830078L58.0566 0.878906L59.0332 1.2207L59.082 1.46484L58.8867 1.61133L58.3008 1.51367L58.252 1.41602L58.1055 1.36719V1.26953L57.8125 1.2207L57.5684 0.976562V0.878906L57.7148 0.830078Z" fill="#3A3A60"/>
<path d="M29.8828 75.2441L30.127 75.293L30.2734 75.3418H30.5664L30.4688 75.5371L30.0293 75.7812L29.4434 75.9277H29.1992L29.1016 75.7812L29.2969 75.4883L29.8828 75.2441Z" fill="#FEF5ED"/>
<path d="M56.5918 49.9512L57.2754 50V50.0977L57.373 50.1465L56.9336 50.1953L56.7383 50.3906H55.9082L55.4688 50.3418L55.5176 50.2441H55.6152V50.0488L56.5918 49.9512Z" fill="#383960"/>
<path d="M46.4355 39.8926L46.6797 39.9902L46.7773 40.0879L46.7285 40.332L46.582 40.4297L45.2637 40.625L43.457 40.8691L43.1152 40.918L43.0176 40.7715L43.1641 40.625H43.7012L44.9219 40.4785L46.4844 40.332L46.6797 40.2344L46.582 40.0391L46.4355 39.8926Z" fill="#FDE5D6"/>
<path d="M43.7012 38.1836L44.043 38.2812L44.9707 38.8672L45.8496 39.4043L46.1426 39.6484H45.9961L45.2148 39.1602L44.9707 39.0625L44.6777 39.0137V38.916L44.3848 38.8672L44.0918 38.6719L44.043 38.5254H43.7988L43.75 38.8672H43.7012V38.1836Z" fill="#FCE3D4"/>
<path d="M29.4922 46.3379H29.541L29.6387 46.7285V46.875V47.4121L29.6875 47.5586V48.3398H29.541V48.2422H29.4434L29.3945 48.0469H29.2969L29.3457 47.2656L29.4922 46.3379Z" fill="#42416A"/>
<path d="M37.4023 34.1309H38.7695L40.5762 34.2773L40.8691 34.3262V34.375L39.7949 34.3262L38.916 34.2773L38.4766 34.3262H37.0117L36.6699 34.2773V34.2285L37.4023 34.1309Z" fill="#D85C63"/>
<path d="M39.0137 37.4512L39.1113 37.5L38.9648 37.9883L38.8672 37.793L38.5254 38.0371L38.2324 38.4277H37.9883L37.9395 38.3301H37.5L37.5977 38.2324L37.9883 38.0371L38.4277 37.7441L39.0137 37.4512Z" fill="#FADFD0"/>
<path d="M69.7754 30.6641L70.0195 30.7129L70.1172 30.8594L70.2637 31.4941L70.6543 32.2754L70.752 32.5195L70.8008 32.6172H70.8496L70.8984 33.1543L70.752 33.0566L70.2637 31.8359L69.7754 30.9082V30.6641Z" fill="#3A3A61"/>
<path d="M57.2266 38.4766L57.373 38.5254L57.3242 39.3066H57.2754V38.8184L56.9824 38.916L56.25 38.9648L55.9082 39.0625L56.0547 38.916L56.4941 38.623L56.7871 38.5254L57.2266 38.4766Z" fill="#FCE3D3"/>
<path d="M54.2969 50.2441L54.541 50.293L54.5898 50.4883L54.3945 50.5371L54.0527 50.5859L54.0039 50.6836L53.5645 50.7324V50.6348L53.3203 50.7324L53.0273 50.7812L52.7832 50.9277L52.5391 51.0254L52.4414 51.123L52.2461 51.0742L52.4414 50.9277L53.2715 50.5859L53.9062 50.3418L54.2969 50.2441Z" fill="#383960"/>
<path d="M64.9414 17.9688L65.4297 18.0176L66.1133 18.457L66.3574 18.7012L66.1621 18.6035L65.625 18.3105L65.3809 18.1641L64.8438 18.1152L64.2578 18.2129L63.5254 18.5059L62.4512 19.0918L62.1094 19.2383L61.9629 19.1895L62.7441 18.7988L63.6719 18.3105L64.4043 18.0176L64.9414 17.9688Z" fill="#C2686B"/>
<path d="M43.6035 62.1582L43.8477 62.4023L44.3359 62.8418L44.7266 63.1348L45.6543 63.623L46.1426 63.8184L46.875 64.0625L48.0957 64.2578L48.2422 64.3555L47.6074 64.3066L46.6309 64.1113L46.1426 63.9648L45.752 63.7695L44.7266 63.2812L43.9453 62.6465L43.7012 62.4023L43.6035 62.1582Z" fill="#473D61"/>
<path d="M38.6719 54.834L38.8672 54.8828L38.9648 54.9316L39.1113 55.2246L38.916 55.2734H38.7695L38.7207 55.5664L38.623 55.3711L38.5254 55.5176H38.3789V55.6641H38.2812L38.1348 55.3711V55.127H38.4277L38.5254 55.1758L38.5742 54.8828L38.6719 54.834Z" fill="#42426B"/>
<path d="M63.2812 32.3242L64.0625 32.373L64.5508 32.6172V32.7637L64.3066 32.8613L64.0625 32.7148L63.4277 32.666L63.2812 32.4707V32.3242Z" fill="#373960"/>
<path d="M30.0781 64.502L30.1758 64.5508L30.4688 65.3809L30.5176 65.918L30.8105 66.9922L30.9082 67.2363L31.0059 67.6758L31.25 68.457V68.7012L31.1523 68.5547L30.7129 67.0898L30.2734 65.4297L30.0781 64.6484V64.502Z" fill="#463E63"/>
<path d="M30.9082 47.0703L31.0547 47.2656L31.3477 48.0469L32.1777 49.8047L32.3242 50.0488V50.1465L32.1289 50.0488L31.4941 48.6816L30.9082 47.2168V47.0703Z" fill="#D06066"/>
<path d="M39.6484 53.0762L39.8926 53.125L40.1855 53.4668L40.4785 53.3691L40.5273 53.5645H40.4297V53.7109L40.0879 53.8086L40.0391 53.4668L39.7949 53.3691V53.2715H39.6484L39.5508 53.4668L39.3066 53.5156L39.4043 53.2715L39.5508 53.125H39.6484V53.0762Z" fill="#42426B"/>
<path d="M29.6875 49.9512H29.8828V50.7812L29.834 51.0254L29.6387 50.9766V50.7324H29.541L29.6387 50.3418L29.541 50.293V50.0488L29.6875 49.9512Z" fill="#42416A"/>
<path d="M27.7832 75.9277L27.9297 75.9766L27.3438 76.3184L27.1484 76.3672L27.002 76.5137H26.709L26.6113 76.7578L26.2695 76.709V76.5625L27.1484 76.1719L27.7832 75.9277Z" fill="#FBD7C0"/>
<path d="M37.5 54.3945L37.5977 54.4922L37.6465 54.834L37.9395 54.7852L37.8906 55.0293L37.9395 55.1758H37.8418L37.793 55.2734L37.5977 55.3223V55.1758H37.5L37.4512 54.9316L37.2559 54.9805L37.3535 54.7363L37.5 54.3945Z" fill="#42416A"/>
<path d="M24.2188 4.10156H24.2676L24.3164 4.49219L24.3652 4.58984L24.2676 4.63867L24.1699 5.12695L23.9746 5.32227H23.877V5.41992H23.7793L23.877 4.98047L24.1699 4.24805L24.2188 4.10156Z" fill="#4A456B"/>
<path d="M41.4062 82.5195L41.6504 82.6172L41.8945 82.7637L42.2363 82.9102L42.4805 83.0566L42.8711 83.252V83.3496H42.9688V83.4473L43.2617 83.4961L43.7012 83.7402L43.6035 83.7891L42.8223 83.4473L42.2852 83.1055L41.4551 82.6172L41.4062 82.5195Z" fill="#434169"/>
<path d="M68.1152 7.95898L68.2129 8.05664L68.4082 8.88672L68.7012 9.47266L69.1406 10.1074H68.9941L68.6035 9.57031L68.2617 8.88672L68.1152 8.34961V7.95898Z" fill="#483D61"/>
<path d="M63.916 81.8848V82.0312L63.4277 82.6172L63.0371 83.1055L62.5 83.7402L62.1582 84.082V83.9355L62.6465 83.3984L62.9883 83.0078L63.5254 82.3242L63.916 81.8848Z" fill="#FDE5D6"/>
<path d="M58.9355 37.5977L59.1797 37.6465L59.2773 37.7441V37.8906L58.9355 37.9883L58.8867 38.0859H58.5449L58.5938 37.8418L58.8379 37.793L58.9355 37.5977Z" fill="#373960"/>
<path d="M29.4922 48.3887L29.6875 48.4863L29.7363 48.7305V49.2676L29.4922 49.2188L29.4434 48.9746V48.5352L29.4922 48.3887Z" fill="#42416A"/>
<path d="M34.2285 52.8809L34.5703 53.1738L35.2051 53.7109L35.791 54.1504L35.9863 54.3945L35.791 54.2969L35.2539 53.9062L34.7656 53.4668L34.375 53.125L34.2285 52.9785V52.8809Z" fill="#FE4958"/>
<path d="M23.3398 6.73828L23.4863 6.78711L23.5352 6.93359L23.4375 7.27539L23.2422 7.66602L23.0469 7.86133L23.2422 7.08008L23.3398 6.73828Z" fill="#4F476B"/>
<path d="M41.6504 38.2812L41.7969 38.3301L41.8457 38.5254L41.9922 38.7695L41.9434 38.9648L41.7969 39.0625L41.6016 39.0137L41.6504 38.4766L41.6016 38.3789L41.6504 38.2812Z" fill="#373960"/>
<path d="M42.2852 32.9102H42.4316V33.3008L42.2852 33.3496L41.8457 33.1543V33.0566L42.2852 32.9102Z" fill="#42426B"/>
<path d="M61.6211 40.0391H61.8652L61.8164 40.2344L61.6211 40.332L61.5723 40.4297L61.2305 40.4785L61.1328 40.2832L61.6211 40.0391Z" fill="#373960"/>
<path d="M45.2637 33.1055L45.6055 33.1543L46.0938 33.3008L46.5332 33.6426L46.6797 33.8379L46.6309 33.9355L46.1426 33.5449L45.8496 33.3496L45.2637 33.1543V33.1055Z" fill="#473D61"/>
<path d="M70.752 43.9453L70.8496 43.9941L70.9961 44.5801L71.0449 45.0684V45.8496H70.9961L70.8984 44.7266L70.752 44.2383L70.6543 44.3359L70.7031 43.9941L70.752 43.9453Z" fill="#C2686B"/>
<path d="M69.7754 30.6641L70.0195 30.7129L70.1172 30.8594L70.166 31.3965L69.9219 31.1523L69.7754 30.9082V30.6641Z" fill="#383A61"/>
<path d="M24.9512 2.97852L25.0488 3.02734L24.9512 3.27148L24.7559 3.4668L24.6094 3.71094L24.4141 3.80859L24.4629 3.56445L24.7559 3.125L24.9512 2.97852Z" fill="#504A6C"/>
<path d="M71.3867 75.5859L71.875 75.6836L72.7539 75.9766L72.9004 76.123L72.4609 76.0254L71.6797 75.7324L71.3867 75.6836V75.5859Z" fill="#F8B78B"/>
<path d="M58.0566 40.625L58.4961 40.8691L58.7891 40.9668H59.6191V41.0156L58.8379 41.1133L58.3984 40.9668L58.1055 40.7715L58.0566 40.625Z" fill="#C9726E"/>
<path d="M69.3848 75.0977L70.3125 75.1465L70.8496 75.3418V75.3906H70.5078V75.293H70.166L69.3848 75.1465V75.0977Z" fill="#F8B88D"/>
<path d="M63.3301 53.3691L63.6719 53.6621V53.7598L63.8672 53.8574L64.0625 54.1992L64.1602 54.4434L63.916 54.1992L63.3789 53.5156L63.3301 53.3691Z" fill="#FE4958"/>
<path d="M53.418 50.5371L53.5156 50.5859L53.3203 50.7324L53.0273 50.7812L52.7832 50.9277L52.5391 51.0254L52.4414 51.123L52.2461 51.0742L52.4414 50.9277L53.2715 50.5859L53.418 50.5371Z" fill="#3C3A60"/>
<path d="M40.1855 81.6895L40.4297 81.7871L40.918 82.1289L41.2109 82.2754V82.373L41.4062 82.4707H41.2598L40.4297 81.9336L40.1855 81.6895Z" fill="#463E63"/>
<path d="M39.6484 53.0762L39.8926 53.125V53.2715H39.6484L39.5508 53.4668L39.3066 53.5156L39.4043 53.2715L39.5508 53.125H39.6484V53.0762Z" fill="#41416A"/>
<path d="M65.918 34.1309L66.1133 34.2285L66.3574 34.4238V34.5703L66.1133 34.5215L65.8691 34.2773L65.918 34.1309Z" fill="#42426B"/>
<path d="M52.002 51.0742L52.1973 51.123L52.0508 51.416L51.5137 51.3672L51.6602 51.2207L52.002 51.0742Z" fill="#393960"/>
<path d="M70.7031 44.1895L70.8008 44.2383L70.9473 44.7266V45.166L70.8496 45.0195L70.8008 44.5312L70.6055 44.5801L70.6543 44.3359L70.7031 44.1895Z" fill="#42426B"/>
<path d="M31.7871 48.8281L31.8848 48.9746L32.3242 49.8047V49.9023L32.1289 49.8047L31.7383 48.9258L31.7871 48.8281Z" fill="#D35E65"/>
<path d="M62.5 33.5449L62.6953 33.5938L62.7441 33.6914L62.6465 33.8379L62.3535 33.8867L62.2559 33.7891L62.3047 33.6426L62.5 33.5449Z" fill="#373960"/>
<path d="M36.2793 39.2578H36.3281L36.4258 39.5508L36.5723 39.6973L37.1582 39.8926L36.9629 39.9414L36.4258 39.7461L36.1816 39.502L36.2793 39.2578Z" fill="#FDE5D6"/>
<path d="M74.4141 14.6973L74.6094 14.9414L74.9512 15.4785V15.5762L74.8047 15.5273L74.6582 15.2832V15.1855H74.5605L74.3652 14.7949L74.4141 14.6973Z" fill="#443F66"/>
<path d="M27.7832 75.9277L27.9297 75.9766L27.3438 76.3184L27.0508 76.2695L27.1484 76.1719L27.7832 75.9277Z" fill="#FACEB1"/>
<path d="M67.4805 76.8066L67.5293 77.002L67.041 77.6855L66.9434 77.7344L67.041 77.4902L67.4805 76.8066Z" fill="#FDEEE4"/>
<path d="M59.2773 57.959H59.3262L59.2773 58.3496L59.0332 58.6426L58.8379 58.9844L58.7891 58.8867L59.2285 58.1055L59.2773 57.959Z" fill="#463D61"/>
<path d="M70.1172 46.4355H70.2148V46.7285L70.3125 46.7773L70.166 46.8262V46.9727H70.0195L69.9707 47.1191L69.9219 47.0215L70.1172 46.4355Z" fill="#42416A"/>
<path d="M37.5 54.2969L37.5488 54.3945L37.3047 54.8828L37.1094 55.0781H36.8652L36.8164 54.9316H37.1094L37.3047 54.6875L37.5 54.2969Z" fill="#C56669"/>
<path d="M60.9863 33.1055L61.2305 33.1543V33.3496H60.791L60.8398 33.1543L60.9863 33.1055Z" fill="#373960"/>
<path d="M70.0195 31.25L70.1172 31.2988V31.3965H70.2148L70.4102 31.7871L70.459 32.1777L70.3613 32.0801L70.0195 31.3477V31.25Z" fill="#403E65"/>
<path d="M39.7949 98.7793H40.3809L40.7715 98.9258V98.9746L40.2832 98.9258L39.7949 98.8281V98.7793Z" fill="#FDFDFD"/>
<path d="M70.6055 32.5684L70.8496 32.6172L70.8984 33.1543L70.752 33.0566L70.6055 32.5684Z" fill="#3F3C62"/>
<path d="M29.541 49.3164L29.7363 49.3652L29.6875 49.5117H29.834L29.7852 49.6582L29.6875 49.8047L29.541 49.5117V49.3164Z" fill="#42426B"/>
<path d="M57.4707 61.5723L57.5684 61.6211L57.4219 61.9629L57.0801 62.207L57.1777 62.0117L57.4707 61.5723Z" fill="#3E3B61"/>
<path d="M29.2969 47.2656H29.3457V47.7051L29.248 48.0469H29.1992V47.5098H29.248L29.2969 47.2656Z" fill="#D65D64"/>
<path d="M70.4102 45.459L70.5078 45.6055L70.5566 45.8984L70.5078 45.9961L70.3125 46.0449L70.4102 45.459Z" fill="#42426B"/>
<path d="M26.9043 76.2695H27.1484L27.0996 76.4648L26.9043 76.5137L26.709 76.416H26.8066V76.3184L26.9043 76.2695Z" fill="#FBDAC5"/>
<path d="M65.8691 34.9121L66.1133 35.0098L66.3574 35.2539L66.5527 35.498L66.3574 35.4004L66.0156 35.0586L65.8691 34.9121Z" fill="#C2686B"/>
<path d="M60.4004 33.7891L60.498 33.8867V34.0332L60.2051 34.082L60.1562 33.9355L60.2051 33.8379L60.4004 33.7891Z" fill="#373960"/>
<path d="M39.3066 55.0293L39.4043 55.127L39.3555 55.3223L39.1602 55.3711V55.127L39.3066 55.0293Z" fill="#42426B"/>
<path d="M31.4453 48.5352L31.5918 48.584L31.7871 48.9746L31.7383 49.1699L31.4453 48.584V48.5352Z" fill="#CD6267"/>
<path d="M72.2168 12.5488L72.4121 12.6465L72.8027 12.9395L72.9004 13.0859L72.7051 12.9883L72.2168 12.5977V12.5488Z" fill="#483D61"/>
</svg>
